<svg width="360" height="159" viewBox="0 0 360 159" fill="none" xmlns="http://www.w3.org/2000/svg">
<g clip-path="url(#clip0_7917_17251)">
<path d="M149.608 123.926V186.999" stroke="#202124" stroke-width="1.2" stroke-miterlimit="10"/>
<path d="M119.069 118.548V186.999" stroke="#202124" stroke-width="1.2" stroke-miterlimit="10"/>
<path d="M88.5285 109.059L88.3158 187" stroke="#202124" stroke-width="1.2" stroke-miterlimit="10"/>
<path d="M57.9878 94.7614V187" stroke="#202124" stroke-width="1.2" stroke-miterlimit="10"/>
<path d="M27.4493 187V75.2227" stroke="#202124" stroke-width="1.2" stroke-miterlimit="10"/>
<path d="M180.222 187V125.809" stroke="#202124" stroke-width="1.2" stroke-miterlimit="10"/>
<path d="M210.76 123.926V186.999" stroke="#202124" stroke-width="1.2" stroke-miterlimit="10"/>
<path d="M241.301 118.548V186.999" stroke="#202124" stroke-width="1.2" stroke-miterlimit="10"/>
<path d="M271.839 109.059L272.054 187" stroke="#202124" stroke-width="1.2" stroke-miterlimit="10"/>
<path d="M302.38 94.4982V187" stroke="#202124" stroke-width="1.2" stroke-miterlimit="10"/>
<path d="M332.921 187V75.2227" stroke="#202124" stroke-width="1.2" stroke-miterlimit="10"/>
<path d="M394 99.2154C345.348 127.218 267.713 150.605 180.248 150.605C92.7832 150.605 15.0908 127.202 -33.5568 99.1838" stroke="#202124" stroke-width="1.2" stroke-miterlimit="10"/>
<path d="M393.557 133.899C337.503 146.927 262.377 162.804 179.805 162.804C97.2329 162.804 22.0578 146.935 -34 133.899" stroke="#202124" stroke-width="1.2" stroke-miterlimit="10"/>
<path d="M393.805 59.7457C348.122 103.972 269.535 138.429 180.248 138.429C90.9617 138.429 12.0881 103.867 -33.5568 59.5035" stroke="#202124" stroke-width="1.2" stroke-miterlimit="10"/>
<path d="M393.805 5.26324C353.84 77.0206 273.209 126.065 180.248 126.065C87.2876 126.065 6.65891 77.0206 -33.3064 5.26324" stroke="#202124" stroke-width="1.2" stroke-miterlimit="10"/>
<path d="M204.074 135.773C204.502 135.773 204.502 134.983 204.074 134.983C203.647 134.983 203.647 135.773 204.074 135.773Z" fill="#202124"/>
<path d="M80.5779 104.847L77.1753 123.881C75.232 134.747 89.6693 146.524 109.417 150.188L120.336 152.214L191.581 165.434L202.501 167.46C222.251 171.125 239.834 165.287 241.775 154.421L245.06 136.051" fill="url(#paint0_linear_7917_17251)"/>
<path d="M80.5779 104.847L77.1753 123.881C75.2319 134.747 89.6693 146.524 109.417 150.188L120.336 152.214L191.581 165.434L202.501 167.46C222.251 171.125 239.834 165.287 241.775 154.421L245.06 136.051" stroke="#202124" stroke-width="1.2" stroke-miterlimit="10"/>
<path d="M78.8478 114.527C76.9044 125.393 91.3418 137.17 111.089 140.834L122.009 142.86L193.254 156.08L204.173 158.106C223.923 161.77 241.507 155.933 243.448 145.067" stroke="#202124" stroke-width="1.2" stroke-miterlimit="10"/>
<path d="M212.36 112.319L201.441 110.292L130.196 97.0729L119.276 95.0467C99.5263 91.3823 82.0985 96.3503 80.3468 106.142C78.5952 115.934 93.1858 126.844 112.936 130.508L123.855 132.535L195.1 145.754L206.02 147.78C225.77 151.445 243.197 146.477 244.949 136.685C246.701 126.893 232.11 115.983 212.36 112.319Z" fill="#EEEEEE" stroke="#202124" stroke-width="1.2" stroke-miterlimit="10"/>
<path d="M84.8582 117.454L81.2863 136.044" stroke="#202124" stroke-width="1.2" stroke-miterlimit="10"/>
<path d="M237.38 145.155L234.166 164.109" stroke="#202124" stroke-width="1.2" stroke-miterlimit="10"/>
<path d="M98.9658 126.76L95.5703 145.755" stroke="#202124" stroke-width="1.2" stroke-miterlimit="10"/>
<path d="M118.995 131.519L115.456 151.308" stroke="#202124" stroke-width="1.2" stroke-miterlimit="10"/>
<path d="M139.534 134.983L135.935 155.108" stroke="#202124" stroke-width="1.2" stroke-miterlimit="10"/>
<path d="M159.955 139.119L156.416 158.91" stroke="#202124" stroke-width="1.2" stroke-miterlimit="10"/>
<path d="M180.438 142.919L176.898 162.708" stroke="#202124" stroke-width="1.2" stroke-miterlimit="10"/>
<path d="M200.992 146.796L197.378 166.511" stroke="#202124" stroke-width="1.2" stroke-miterlimit="10"/>
<path d="M221.7 148.834L218.182 168.503" stroke="#202124" stroke-width="1.2" stroke-miterlimit="10"/>
<ellipse cx="9.49423" cy="6.72724" rx="9.49423" ry="6.72724" transform="matrix(0.977728 0.209876 -0.201893 0.979407 98.7631 100.319)" stroke="#202124" stroke-width="1.2"/>
<line y1="-0.6" x2="11.1181" y2="-0.6" transform="matrix(0.709204 0.705003 -0.690506 0.723327 113.022 114.754)" stroke="#202124" stroke-width="1.2"/>
<path fill-rule="evenodd" clip-rule="evenodd" d="M179.74 124.418C179.627 124.411 179.514 124.405 179.402 124.396L179.396 124.391C178.7 124.344 177.998 124.295 177.293 124.237C167.382 123.413 158.309 121.489 150.978 118.892L107.168 103.109C105.553 102.527 105.015 101.797 105.074 101.118C105.134 100.439 105.788 99.8094 107.481 99.5024L125.596 96.216L130.198 97.0699L201.443 110.289L212.362 112.316C216.092 113.008 219.638 113.958 222.925 115.111C222.87 115.176 222.815 115.24 222.76 115.303C222.611 115.477 222.453 115.65 222.289 115.821C222.261 115.848 222.235 115.877 222.208 115.905C222.181 115.933 222.155 115.962 222.127 115.989C221.919 116.198 221.695 116.402 221.462 116.604C221.388 116.667 221.31 116.732 221.233 116.794C221.047 116.948 220.856 117.099 220.658 117.249C220.626 117.273 220.593 117.298 220.561 117.322C220.511 117.361 220.46 117.399 220.407 117.437C220.146 117.626 219.876 117.813 219.594 117.997C219.501 118.056 219.404 118.117 219.308 118.176C219.089 118.313 218.867 118.448 218.636 118.581L218.635 118.581C218.527 118.645 218.418 118.71 218.306 118.771C218.012 118.939 217.709 119.101 217.393 119.26C217.387 119.264 217.379 119.267 217.372 119.27C217.364 119.273 217.357 119.277 217.351 119.281C217.287 119.313 217.222 119.344 217.156 119.376C217.12 119.393 217.084 119.41 217.049 119.427C216.786 119.557 216.514 119.684 216.239 119.809C216.114 119.865 215.993 119.92 215.869 119.975C215.513 120.128 215.15 120.281 214.779 120.429C214.706 120.46 214.631 120.489 214.555 120.517C214.511 120.534 214.467 120.55 214.424 120.567C214.127 120.684 213.821 120.797 213.512 120.908C213.462 120.926 213.412 120.944 213.361 120.962C213.278 120.992 213.194 121.022 213.11 121.051C212.71 121.188 212.301 121.325 211.887 121.456C211.789 121.488 211.689 121.518 211.59 121.548C211.555 121.558 211.52 121.569 211.485 121.58C211.152 121.682 210.812 121.784 210.466 121.881C210.324 121.921 210.185 121.961 210.043 122.001C209.6 122.121 209.149 122.239 208.691 122.354C208.607 122.375 208.522 122.395 208.436 122.415C208.377 122.429 208.318 122.443 208.259 122.458C207.886 122.548 207.506 122.636 207.12 122.721L206.695 122.814C206.21 122.918 205.718 123.017 205.217 123.114C205.119 123.132 205.018 123.151 204.917 123.17C204.866 123.179 204.815 123.189 204.765 123.198C204.348 123.276 203.928 123.35 203.502 123.421C203.433 123.432 203.365 123.444 203.297 123.455C203.229 123.466 203.161 123.478 203.092 123.489C202.566 123.574 202.032 123.655 201.492 123.73C201.406 123.742 201.32 123.754 201.233 123.766C201.164 123.775 201.095 123.784 201.025 123.794C200.562 123.855 200.095 123.915 199.626 123.971C199.502 123.988 199.378 124.003 199.254 124.017L199.252 124.018C198.687 124.082 198.113 124.142 197.536 124.197C197.377 124.214 197.218 124.228 197.058 124.242C196.552 124.289 196.042 124.332 195.527 124.37C195.419 124.379 195.31 124.388 195.199 124.395C194.598 124.44 193.991 124.477 193.377 124.509C193.216 124.519 193.055 124.526 192.893 124.534L192.892 124.534C192.339 124.56 191.787 124.584 191.225 124.603C191.179 124.603 191.134 124.605 191.089 124.608C191.043 124.61 190.998 124.612 190.952 124.613C190.318 124.63 189.681 124.645 189.038 124.653L189.037 124.653C188.872 124.656 188.708 124.659 188.544 124.66C187.945 124.667 187.344 124.669 186.736 124.665C186.703 124.664 186.671 124.664 186.638 124.665C186.606 124.665 186.573 124.665 186.54 124.665C185.879 124.661 185.212 124.647 184.543 124.631C184.459 124.629 184.375 124.626 184.292 124.624C184.208 124.621 184.124 124.619 184.041 124.617C183.393 124.598 182.743 124.577 182.09 124.547C182.052 124.546 182.017 124.546 181.98 124.543C181.295 124.51 180.608 124.473 179.915 124.429C179.857 124.425 179.798 124.421 179.74 124.418Z" fill="#202124"/>
<path d="M179.402 124.396L179.023 124.862L179.169 124.98L179.356 124.994L179.402 124.396ZM179.74 124.418L179.705 125.017H179.705L179.74 124.418ZM179.396 124.391L179.774 123.925L179.626 123.805L179.436 123.792L179.396 124.391ZM177.293 124.237L177.244 124.835L177.244 124.835L177.293 124.237ZM150.978 118.892L150.775 119.456L150.778 119.457L150.978 118.892ZM107.168 103.109L106.965 103.674L106.965 103.674L107.168 103.109ZM107.481 99.5024L107.588 100.093L107.588 100.093L107.481 99.5024ZM125.596 96.216L125.705 95.6261L125.597 95.606L125.489 95.6256L125.596 96.216ZM130.198 97.0699L130.088 97.6599L130.088 97.6599L130.198 97.0699ZM201.443 110.289L201.552 109.699L201.552 109.699L201.443 110.289ZM212.362 112.316L212.253 112.906L212.253 112.906L212.362 112.316ZM222.925 115.111L223.385 115.496L223.941 114.831L223.123 114.544L222.925 115.111ZM222.76 115.303L222.306 114.911L222.304 114.913L222.76 115.303ZM222.289 115.821L222.715 116.242L222.72 116.237L222.289 115.821ZM222.208 115.905L221.771 115.494L221.771 115.494L222.208 115.905ZM222.127 115.989L222.552 116.413L222.554 116.411L222.127 115.989ZM221.462 116.604L221.849 117.063L221.855 117.057L221.462 116.604ZM221.233 116.794L220.856 116.327L220.85 116.332L221.233 116.794ZM220.658 117.249L221.015 117.731L221.021 117.726L220.658 117.249ZM220.561 117.322L220.197 116.845L220.197 116.845L220.561 117.322ZM220.407 117.437L220.059 116.948L220.054 116.952L220.407 117.437ZM219.594 117.997L219.915 118.503L219.921 118.5L219.594 117.997ZM219.308 118.176L218.995 117.664L218.989 117.668L219.308 118.176ZM218.636 118.581L218.338 118.06L218.33 118.065L218.636 118.581ZM218.635 118.581L218.94 119.098L218.942 119.097L218.635 118.581ZM218.306 118.771L218.015 118.246L218.009 118.25L218.306 118.771ZM217.393 119.26L217.123 118.724L217.105 118.733L217.088 118.743L217.393 119.26ZM217.372 119.27L217.617 119.818L217.617 119.818L217.372 119.27ZM217.351 119.281L217.621 119.816L217.639 119.807L217.655 119.797L217.351 119.281ZM217.156 119.376L216.896 118.835V118.835L217.156 119.376ZM217.049 119.427L216.786 118.888L216.783 118.89L217.049 119.427ZM216.239 119.809L215.991 119.262L215.99 119.263L216.239 119.809ZM215.869 119.975L216.107 120.526L216.11 120.524L215.869 119.975ZM214.779 120.429L214.557 119.872L214.544 119.877L214.779 120.429ZM214.555 120.517L214.343 119.956L214.343 119.956L214.555 120.517ZM214.424 120.567L214.643 121.126L214.643 121.126L214.424 120.567ZM213.512 120.908L213.713 121.474L213.715 121.473L213.512 120.908ZM213.361 120.962L213.564 121.527L213.564 121.527L213.361 120.962ZM213.11 121.051L213.304 121.619L213.305 121.619L213.11 121.051ZM211.887 121.456L211.705 120.884L211.703 120.885L211.887 121.456ZM211.59 121.548L211.416 120.974L211.416 120.974L211.59 121.548ZM211.485 121.58L211.31 121.006L211.309 121.006L211.485 121.58ZM210.466 121.881L210.628 122.459L210.628 122.459L210.466 121.881ZM210.043 122.001L210.201 122.58L210.205 122.579L210.043 122.001ZM208.691 122.354L208.836 122.936L208.837 122.936L208.691 122.354ZM208.436 122.415L208.574 122.999L208.574 122.999L208.436 122.415ZM208.259 122.458L208.4 123.041L208.401 123.041L208.259 122.458ZM207.12 122.721L207.248 123.307L207.249 123.307L207.12 122.721ZM206.695 122.814L206.821 123.401L206.824 123.4L206.695 122.814ZM205.217 123.114L205.104 122.524L205.104 122.524L205.217 123.114ZM204.917 123.17L205.026 123.76L205.026 123.76L204.917 123.17ZM204.765 123.198L204.655 122.608L204.654 122.608L204.765 123.198ZM203.502 123.421L203.599 124.013L203.6 124.013L203.502 123.421ZM203.297 123.455L203.395 124.047L203.395 124.047L203.297 123.455ZM203.092 123.489L203.188 124.081L203.189 124.081L203.092 123.489ZM201.492 123.73L201.574 124.325L201.575 124.325L201.492 123.73ZM201.233 123.766L201.314 124.36L201.314 124.36L201.233 123.766ZM201.025 123.794L201.104 124.389L201.105 124.388L201.025 123.794ZM199.626 123.971L199.554 123.375L199.545 123.377L199.626 123.971ZM199.254 124.017L199.184 123.422L199.183 123.422L199.254 124.017ZM199.252 124.018L199.321 124.614L199.323 124.613L199.252 124.018ZM197.536 124.197L197.479 123.6L197.475 123.6L197.536 124.197ZM197.058 124.242L197.005 123.645L197.003 123.645L197.058 124.242ZM195.527 124.37L195.483 123.771L195.475 123.772L195.527 124.37ZM195.199 124.395L195.162 123.796L195.155 123.797L195.199 124.395ZM193.377 124.509L193.346 123.91L193.342 123.91L193.377 124.509ZM192.893 124.534L192.921 125.133L192.921 125.133L192.893 124.534ZM192.892 124.534L192.864 123.935L192.863 123.935L192.892 124.534ZM191.225 124.603L191.237 125.202L191.245 125.202L191.225 124.603ZM191.089 124.608L191.116 125.207H191.116L191.089 124.608ZM190.952 124.613L190.941 124.013L190.936 124.013L190.952 124.613ZM189.038 124.653L189.03 124.053L189.027 124.053L189.038 124.653ZM189.037 124.653L189.047 125.253L189.048 125.253L189.037 124.653ZM188.544 124.66L188.541 124.06L188.537 124.06L188.544 124.66ZM186.736 124.665L186.73 125.264L186.732 125.265L186.736 124.665ZM186.638 124.665L186.643 125.265L186.638 124.665ZM186.54 124.665L186.546 124.065L186.544 124.065L186.54 124.665ZM184.543 124.631L184.528 125.231L184.543 124.631ZM184.041 124.617L184.023 125.217L184.026 125.217L184.041 124.617ZM182.09 124.547L182.118 123.947L182.109 123.947L182.101 123.947L182.09 124.547ZM181.98 124.543L182.025 123.944L182.017 123.944L182.008 123.943L181.98 124.543ZM179.915 124.429L179.953 123.83L179.915 124.429ZM179.356 124.994C179.474 125.003 179.592 125.01 179.705 125.017L179.776 123.819C179.662 123.812 179.554 123.806 179.448 123.798L179.356 124.994ZM179.017 124.857L179.023 124.862L179.78 123.93L179.774 123.925L179.017 124.857ZM177.244 124.835C177.953 124.893 178.659 124.943 179.356 124.99L179.436 123.792C178.741 123.746 178.043 123.697 177.343 123.639L177.244 124.835ZM150.778 119.457C158.164 122.075 167.289 124.008 177.244 124.835L177.343 123.639C167.476 122.819 158.454 120.904 151.178 118.326L150.778 119.457ZM106.965 103.674L150.775 119.456L151.181 118.327L107.372 102.545L106.965 103.674ZM104.477 101.066C104.378 102.19 105.307 103.076 106.965 103.674L107.372 102.545C105.799 101.978 105.652 101.405 105.672 101.17L104.477 101.066ZM107.374 98.912C105.635 99.2272 104.575 99.945 104.477 101.066L105.672 101.17C105.693 100.932 105.94 100.392 107.588 100.093L107.374 98.912ZM125.489 95.6256L107.374 98.912L107.588 100.093L125.703 96.8064L125.489 95.6256ZM130.307 96.48L125.705 95.6261L125.486 96.8059L130.088 97.6599L130.307 96.48ZM201.552 109.699L130.307 96.48L130.088 97.6599L201.333 110.879L201.552 109.699ZM212.472 111.726L201.552 109.699L201.333 110.879L212.253 112.906L212.472 111.726ZM223.123 114.544C219.807 113.382 216.231 112.423 212.472 111.726L212.253 112.906C215.953 113.592 219.469 114.535 222.726 115.677L223.123 114.544ZM223.214 115.695C223.269 115.632 223.326 115.565 223.385 115.496L222.465 114.725C222.413 114.787 222.361 114.847 222.306 114.911L223.214 115.695ZM222.72 116.237C222.892 116.059 223.059 115.877 223.216 115.693L222.304 114.913C222.164 115.077 222.014 115.241 221.857 115.404L222.72 116.237ZM222.645 116.316C222.673 116.287 222.694 116.264 222.715 116.242L221.862 115.399C221.828 115.433 221.797 115.467 221.771 115.494L222.645 116.316ZM222.554 116.411C222.588 116.377 222.619 116.343 222.645 116.316L221.771 115.494C221.743 115.523 221.722 115.546 221.701 115.568L222.554 116.411ZM221.855 117.057C222.095 116.849 222.33 116.636 222.552 116.413L221.703 115.566C221.508 115.761 221.296 115.954 221.068 116.152L221.855 117.057ZM221.61 117.261C221.692 117.195 221.773 117.127 221.849 117.063L221.075 116.146C221.002 116.207 220.929 116.269 220.856 116.327L221.61 117.261ZM221.021 117.726C221.224 117.572 221.422 117.416 221.615 117.256L220.85 116.332C220.672 116.479 220.488 116.625 220.295 116.771L221.021 117.726ZM220.925 117.799C220.958 117.774 220.987 117.752 221.015 117.731L220.301 116.767C220.265 116.794 220.229 116.821 220.197 116.845L220.925 117.799ZM220.755 117.926C220.817 117.882 220.876 117.837 220.925 117.799L220.197 116.845C220.146 116.884 220.103 116.917 220.059 116.948L220.755 117.926ZM219.921 118.5C220.212 118.31 220.491 118.118 220.76 117.922L220.054 116.952C219.801 117.135 219.54 117.316 219.267 117.493L219.921 118.5ZM219.622 118.687C219.723 118.626 219.823 118.562 219.915 118.503L219.272 117.49C219.179 117.549 219.086 117.608 218.995 117.664L219.622 118.687ZM218.934 119.101C219.175 118.964 219.404 118.824 219.628 118.684L218.989 117.668C218.775 117.802 218.56 117.933 218.338 118.06L218.934 119.101ZM218.942 119.097L218.942 119.097L218.33 118.065L218.329 118.065L218.942 119.097ZM218.596 119.297C218.716 119.23 218.833 119.161 218.94 119.098L218.33 118.064C218.22 118.129 218.119 118.189 218.015 118.246L218.596 119.297ZM217.663 119.796C217.987 119.632 218.299 119.465 218.602 119.293L218.009 118.25C217.724 118.412 217.43 118.569 217.123 118.724L217.663 119.796ZM217.617 119.818C217.618 119.817 217.657 119.8 217.698 119.776L217.088 118.743C217.104 118.733 217.117 118.727 217.123 118.724C217.128 118.722 217.132 118.72 217.127 118.722L217.617 119.818ZM217.655 119.797C217.639 119.807 217.626 119.813 217.621 119.816C217.616 119.818 217.612 119.82 217.617 119.818L217.127 118.722C217.126 118.723 217.086 118.74 217.046 118.764L217.655 119.797ZM217.416 119.917C217.48 119.886 217.551 119.852 217.621 119.816L217.08 118.745C217.023 118.774 216.963 118.803 216.896 118.835L217.416 119.917ZM217.311 119.967C217.345 119.95 217.38 119.934 217.416 119.917L216.896 118.835C216.861 118.852 216.824 118.87 216.786 118.888L217.311 119.967ZM216.486 120.355C216.765 120.229 217.044 120.099 217.314 119.965L216.783 118.89C216.528 119.015 216.262 119.139 215.991 119.262L216.486 120.355ZM216.11 120.524C216.238 120.468 216.362 120.412 216.487 120.355L215.99 119.263C215.867 119.319 215.749 119.372 215.628 119.425L216.11 120.524ZM215.001 120.987C215.38 120.836 215.748 120.68 216.107 120.525L215.632 119.424C215.278 119.576 214.921 119.727 214.557 119.872L215.001 120.987ZM214.767 121.078C214.841 121.051 214.928 121.018 215.013 120.981L214.544 119.877C214.485 119.902 214.421 119.926 214.343 119.956L214.767 121.078ZM214.643 121.126C214.682 121.111 214.722 121.095 214.767 121.078L214.343 119.956C214.299 119.972 214.252 119.99 214.204 120.009L214.643 121.126ZM213.715 121.473C214.028 121.36 214.339 121.245 214.643 121.126L214.205 120.009C213.915 120.122 213.615 120.234 213.31 120.343L213.715 121.473ZM213.564 121.527C213.615 121.508 213.664 121.491 213.713 121.474L213.312 120.342C213.26 120.361 213.208 120.379 213.158 120.398L213.564 121.527ZM213.305 121.619C213.394 121.588 213.482 121.556 213.564 121.527L213.158 120.398C213.074 120.428 212.994 120.456 212.914 120.484L213.305 121.619ZM212.068 122.028C212.488 121.895 212.902 121.757 213.304 121.619L212.915 120.484C212.519 120.62 212.115 120.755 211.705 120.884L212.068 122.028ZM211.765 122.122C211.863 122.092 211.967 122.061 212.07 122.027L211.703 120.885C211.611 120.915 211.516 120.943 211.416 120.974L211.765 122.122ZM211.661 122.154C211.695 122.143 211.729 122.133 211.765 122.122L211.416 120.974C211.381 120.984 211.345 120.995 211.31 121.006L211.661 122.154ZM210.628 122.459C210.981 122.36 211.326 122.256 211.661 122.153L211.309 121.006C210.978 121.108 210.643 121.208 210.304 121.303L210.628 122.459ZM210.205 122.579C210.277 122.558 210.348 122.538 210.419 122.518C210.489 122.498 210.558 122.478 210.628 122.459L210.304 121.303C210.232 121.324 210.161 121.344 210.091 121.364C210.02 121.384 209.951 121.404 209.881 121.423L210.205 122.579ZM208.837 122.936C209.298 122.82 209.754 122.702 210.201 122.58L209.885 121.422C209.447 121.541 208.999 121.658 208.545 121.772L208.837 122.936ZM208.574 122.999C208.659 122.979 208.748 122.958 208.836 122.936L208.545 121.772C208.466 121.792 208.384 121.811 208.298 121.832L208.574 122.999ZM208.401 123.041C208.458 123.027 208.515 123.013 208.574 122.999L208.298 121.832C208.239 121.845 208.179 121.86 208.118 121.875L208.401 123.041ZM207.249 123.307C207.639 123.221 208.023 123.132 208.4 123.041L208.118 121.875C207.748 121.964 207.373 122.051 206.99 122.135L207.249 123.307ZM206.824 123.4L207.248 123.307L206.991 122.135L206.566 122.228L206.824 123.4ZM205.331 123.703C205.835 123.606 206.331 123.506 206.821 123.401L206.569 122.228C206.089 122.331 205.601 122.429 205.104 122.524L205.331 123.703ZM205.026 123.76C205.127 123.741 205.23 123.722 205.331 123.703L205.104 122.524C205.008 122.543 204.909 122.561 204.808 122.58L205.026 123.76ZM204.875 123.788C204.925 123.779 204.975 123.769 205.026 123.76L204.808 122.58C204.757 122.589 204.706 122.599 204.655 122.608L204.875 123.788ZM203.6 124.013C204.03 123.941 204.454 123.867 204.876 123.788L204.654 122.608C204.242 122.686 203.826 122.759 203.403 122.829L203.6 124.013ZM203.395 124.047C203.463 124.036 203.531 124.024 203.599 124.013L203.405 122.829C203.335 122.84 203.266 122.852 203.198 122.863L203.395 124.047ZM203.189 124.081C203.258 124.07 203.327 124.058 203.395 124.047L203.198 122.863C203.13 122.875 203.063 122.886 202.995 122.897L203.189 124.081ZM201.575 124.325C202.119 124.248 202.658 124.167 203.188 124.081L202.995 122.897C202.475 122.981 201.945 123.061 201.409 123.136L201.575 124.325ZM201.314 124.36C201.401 124.348 201.488 124.337 201.574 124.325L201.409 123.136C201.325 123.148 201.239 123.159 201.153 123.171L201.314 124.36ZM201.105 124.388C201.175 124.379 201.244 124.37 201.314 124.36L201.153 123.171C201.084 123.18 201.014 123.19 200.945 123.199L201.105 124.388ZM199.698 124.567C200.17 124.51 200.638 124.45 201.104 124.389L200.946 123.199C200.485 123.26 200.021 123.319 199.554 123.376L199.698 124.567ZM199.324 124.613C199.448 124.599 199.577 124.583 199.707 124.566L199.545 123.377C199.427 123.393 199.308 123.407 199.184 123.422L199.324 124.613ZM199.323 124.613L199.325 124.613L199.183 123.422L199.182 123.422L199.323 124.613ZM197.593 124.794C198.174 124.739 198.751 124.679 199.321 124.614L199.184 123.421C198.623 123.486 198.053 123.545 197.479 123.6L197.593 124.794ZM197.112 124.84C197.271 124.826 197.434 124.811 197.598 124.794L197.475 123.6C197.32 123.616 197.165 123.63 197.005 123.645L197.112 124.84ZM195.571 124.968C196.09 124.93 196.604 124.887 197.114 124.84L197.003 123.645C196.5 123.692 195.995 123.734 195.483 123.771L195.571 124.968ZM195.236 124.994C195.356 124.987 195.471 124.977 195.579 124.967L195.475 123.772C195.366 123.781 195.265 123.79 195.162 123.796L195.236 124.994ZM193.409 125.109C194.026 125.076 194.637 125.038 195.243 124.994L195.155 123.797C194.559 123.841 193.956 123.878 193.346 123.91L193.409 125.109ZM192.921 125.133C193.082 125.126 193.247 125.118 193.413 125.108L193.342 123.91C193.185 123.92 193.028 123.927 192.866 123.934L192.921 125.133ZM192.919 125.133L192.921 125.133L192.866 123.934L192.864 123.935L192.919 125.133ZM191.245 125.202C191.81 125.183 192.366 125.159 192.92 125.133L192.863 123.935C192.312 123.961 191.763 123.984 191.205 124.003L191.245 125.202ZM191.116 125.207C191.162 125.205 191.2 125.203 191.237 125.202L191.213 124.003C191.158 124.004 191.105 124.006 191.061 124.008L191.116 125.207ZM190.964 125.212C191.019 125.211 191.072 125.209 191.116 125.207L191.061 124.008C191.015 124.01 190.977 124.012 190.941 124.013L190.964 125.212ZM189.045 125.253C189.693 125.245 190.333 125.23 190.969 125.212L190.936 124.013C190.303 124.03 189.669 124.045 189.03 124.053L189.045 125.253ZM189.048 125.253L189.049 125.253L189.027 124.053L189.026 124.053L189.048 125.253ZM188.546 125.26C188.715 125.259 188.883 125.256 189.047 125.253L189.027 124.053C188.861 124.056 188.701 124.059 188.541 124.06L188.546 125.26ZM186.732 125.265C187.344 125.269 187.949 125.267 188.551 125.26L188.537 124.06C187.941 124.067 187.344 124.069 186.741 124.065L186.732 125.265ZM186.643 125.265C186.677 125.264 186.704 125.264 186.73 125.264L186.742 124.065C186.703 124.064 186.665 124.064 186.633 124.065L186.643 125.265ZM186.534 125.265C186.574 125.265 186.612 125.265 186.643 125.265L186.633 124.065C186.6 124.065 186.573 124.065 186.546 124.065L186.534 125.265ZM184.528 125.231C185.199 125.247 185.87 125.261 186.536 125.265L186.544 124.065C185.888 124.061 185.226 124.047 184.557 124.031L184.528 125.231ZM184.273 125.224C184.357 125.226 184.442 125.229 184.528 125.231L184.557 124.031C184.476 124.029 184.394 124.027 184.31 124.024L184.273 125.224ZM184.026 125.217C184.108 125.219 184.189 125.221 184.273 125.224L184.31 124.024C184.227 124.022 184.141 124.019 184.055 124.017L184.026 125.217ZM182.062 125.146C182.72 125.177 183.375 125.198 184.023 125.217L184.058 124.017C183.412 123.998 182.765 123.977 182.118 123.947L182.062 125.146ZM181.934 125.141C181.993 125.145 182.046 125.146 182.079 125.147L182.101 123.947C182.058 123.946 182.042 123.946 182.025 123.944L181.934 125.141ZM179.877 125.027C180.574 125.072 181.264 125.109 181.951 125.142L182.008 123.943C181.326 123.911 180.643 123.874 179.953 123.83L179.877 125.027ZM179.705 125.017C179.763 125.02 179.82 125.024 179.877 125.027L179.953 123.83C179.893 123.826 179.834 123.823 179.776 123.819L179.705 125.017Z" fill="#202124"/>
<path d="M230.16 56.3432L101.865 69.179L104.926 100.366C105.061 101.767 105.916 102.936 107.041 103.253L157.614 117.604C165.964 119.889 175.984 120.714 186.615 119.634C187.371 119.557 188.121 119.467 188.865 119.374C189.047 119.353 189.228 119.326 189.413 119.302C190.154 119.206 190.886 119.1 191.614 118.988C191.654 118.984 191.691 118.976 191.731 118.968C192.425 118.86 193.115 118.738 193.801 118.613C193.978 118.579 194.156 118.549 194.333 118.516C195.041 118.381 195.746 118.244 196.443 118.093C196.513 118.078 196.579 118.061 196.649 118.046C197.29 117.909 197.922 117.762 198.55 117.609C198.723 117.568 198.896 117.525 199.069 117.481C199.743 117.316 200.41 117.141 201.073 116.963C201.169 116.938 201.262 116.907 201.358 116.882C201.944 116.72 202.52 116.552 203.095 116.38C203.263 116.33 203.432 116.28 203.6 116.226C204.237 116.03 204.867 115.828 205.489 115.616C205.605 115.579 205.716 115.539 205.828 115.498C206.361 115.317 206.887 115.13 207.408 114.937C207.573 114.877 207.737 114.817 207.9 114.753C208.494 114.531 209.083 114.302 209.662 114.067C209.789 114.014 209.917 113.962 210.044 113.906C210.524 113.707 211 113.504 211.473 113.298C211.633 113.228 211.792 113.158 211.948 113.089C212.499 112.843 213.041 112.592 213.573 112.334C213.713 112.266 213.849 112.199 213.988 112.131C214.419 111.92 214.843 111.706 215.263 111.485C215.415 111.406 215.57 111.326 215.718 111.247C216.222 110.978 216.715 110.708 217.2 110.431C217.341 110.349 217.483 110.268 217.624 110.186C218.009 109.962 218.388 109.736 218.759 109.506C218.903 109.417 219.047 109.332 219.188 109.243C219.641 108.956 220.088 108.666 220.524 108.374C220.664 108.279 220.8 108.183 220.94 108.088C221.28 107.855 221.613 107.616 221.939 107.378C222.069 107.284 222.202 107.189 222.331 107.091C222.735 106.789 223.132 106.48 223.519 106.173C223.651 106.067 223.779 105.959 223.908 105.854C224.206 105.609 224.5 105.361 224.783 105.11C224.896 105.01 225.015 104.914 225.123 104.811C225.478 104.493 225.822 104.17 226.159 103.847C226.277 103.733 226.391 103.619 226.508 103.502C226.767 103.243 227.022 102.982 227.267 102.718C227.362 102.617 227.457 102.519 227.549 102.419C227.561 102.403 227.576 102.391 227.588 102.376C227.882 102.055 228.161 101.731 228.429 101.402C228.532 101.279 228.631 101.153 228.73 101.028C228.941 100.768 229.142 100.505 229.339 100.24C229.425 100.126 229.512 100.008 229.595 99.8945C229.847 99.5428 230.086 99.1891 230.314 98.8332C230.39 98.7168 230.459 98.5978 230.532 98.4818C230.704 98.2018 230.868 97.9225 231.026 97.6405C231.092 97.5252 231.158 97.4066 231.22 97.2917C231.416 96.9219 231.602 96.5533 231.77 96.1796C231.814 96.0808 231.854 95.9788 231.898 95.88C232.03 95.5765 232.154 95.2704 232.268 94.9654C232.311 94.8528 232.353 94.7402 232.395 94.6241C232.532 94.2401 232.654 93.8541 232.76 93.4665C232.779 93.3913 232.795 93.3164 232.814 93.2412C232.901 92.9079 232.975 92.576 233.038 92.2384C233.06 92.128 233.079 92.018 233.098 91.908C233.165 91.5108 233.221 91.1114 233.26 90.7068C233.262 90.6648 233.265 90.6228 233.267 90.5773C233.295 90.2087 233.311 89.8416 233.312 89.4725C233.314 89.3644 233.313 89.2566 233.312 89.1523C233.306 88.7423 233.29 88.3335 233.249 87.9238L230.369 58.3977M181.708 66.1908C181.074 66.2543 180.447 66.3239 179.82 66.397C179.615 66.4199 179.413 66.4492 179.211 66.4751C178.791 66.5288 178.37 66.5825 177.95 66.6396C177.711 66.6731 177.473 66.71 177.235 66.7434C176.855 66.7995 176.476 66.8556 176.097 66.9185C175.849 66.96 175.601 67.0014 175.357 67.0425C174.991 67.104 174.627 67.1689 174.262 67.2337C174.014 67.2787 173.77 67.3232 173.526 67.3712C173.158 67.4399 172.795 67.5151 172.431 67.5868C172.197 67.6337 171.966 67.6801 171.736 67.7301C171.34 67.8159 170.946 67.9013 170.554 67.9902C170.36 68.0326 170.167 68.0749 169.974 68.1207C169.398 68.2543 168.827 68.3944 168.259 68.541C168.163 68.5656 168.07 68.5933 167.974 68.6179C167.499 68.7402 167.028 68.8656 166.562 68.9975C166.356 69.0551 166.151 69.1162 165.946 69.1738C165.592 69.2757 165.241 69.3773 164.894 69.482C164.667 69.5525 164.439 69.6231 164.211 69.6936C163.891 69.7953 163.571 69.8935 163.255 69.9983C163.02 70.073 162.79 70.1508 162.556 70.229C162.247 70.333 161.941 70.4366 161.638 70.5433C161.408 70.6245 161.181 70.7054 160.955 70.7862C160.646 70.8971 160.341 71.011 160.039 71.1246C159.823 71.2043 159.61 71.2871 159.397 71.3665C159.066 71.4937 158.739 71.6275 158.412 71.7578C158.232 71.83 158.052 71.9022 157.876 71.974C157.389 72.1742 156.91 72.3806 156.437 72.5897C155.382 73.0549 154.353 73.5416 153.359 74.0452" fill="url(#paint1_linear_7917_17251)"/>
<path d="M230.16 56.3432L101.865 69.179L104.926 100.366C105.061 101.767 105.916 102.936 107.041 103.253L157.614 117.604C165.964 119.889 175.984 120.714 186.615 119.634C187.371 119.557 188.121 119.467 188.865 119.374C189.047 119.353 189.228 119.326 189.413 119.302C190.154 119.206 190.886 119.1 191.614 118.988C191.654 118.984 191.691 118.976 191.731 118.968C192.425 118.86 193.115 118.738 193.801 118.613C193.978 118.579 194.156 118.549 194.333 118.516C195.041 118.381 195.746 118.244 196.443 118.093C196.513 118.078 196.579 118.061 196.649 118.046C197.29 117.909 197.922 117.762 198.55 117.609C198.723 117.568 198.896 117.525 199.069 117.481C199.743 117.316 200.41 117.141 201.073 116.963C201.169 116.938 201.262 116.907 201.358 116.882C201.944 116.72 202.52 116.552 203.095 116.38C203.263 116.33 203.432 116.28 203.6 116.226C204.237 116.03 204.867 115.828 205.489 115.616C205.605 115.579 205.716 115.539 205.828 115.498C206.361 115.317 206.887 115.13 207.408 114.937C207.573 114.877 207.737 114.817 207.9 114.753C208.494 114.531 209.083 114.302 209.662 114.067C209.789 114.014 209.917 113.962 210.044 113.906C210.524 113.707 211 113.504 211.473 113.298C211.633 113.228 211.792 113.158 211.948 113.089C212.499 112.843 213.041 112.592 213.573 112.334C213.713 112.266 213.849 112.199 213.988 112.131C214.419 111.92 214.843 111.706 215.263 111.485C215.415 111.406 215.57 111.326 215.718 111.247C216.222 110.978 216.715 110.708 217.2 110.431C217.341 110.349 217.483 110.268 217.624 110.186C218.009 109.962 218.388 109.736 218.759 109.506C218.903 109.417 219.047 109.332 219.188 109.243C219.641 108.956 220.088 108.666 220.524 108.374C220.664 108.279 220.8 108.183 220.94 108.088C221.28 107.855 221.613 107.616 221.939 107.378C222.069 107.284 222.202 107.189 222.331 107.091C222.735 106.789 223.132 106.48 223.519 106.173C223.651 106.067 223.779 105.959 223.908 105.854C224.206 105.609 224.5 105.361 224.783 105.11C224.896 105.01 225.015 104.914 225.123 104.811C225.478 104.493 225.822 104.17 226.159 103.847C226.277 103.733 226.391 103.619 226.508 103.502C226.767 103.243 227.022 102.982 227.267 102.718C227.362 102.617 227.457 102.519 227.549 102.419C227.561 102.403 227.576 102.391 227.588 102.376C227.882 102.055 228.161 101.731 228.429 101.402C228.532 101.279 228.631 101.153 228.73 101.028C228.941 100.768 229.142 100.505 229.339 100.24C229.425 100.126 229.512 100.008 229.595 99.8945C229.847 99.5428 230.086 99.1891 230.314 98.8332C230.39 98.7168 230.459 98.5978 230.532 98.4818C230.704 98.2018 230.868 97.9225 231.026 97.6405C231.092 97.5252 231.158 97.4066 231.22 97.2917C231.416 96.9219 231.602 96.5533 231.77 96.1796C231.814 96.0808 231.854 95.9788 231.898 95.88C232.03 95.5765 232.154 95.2704 232.268 94.9654C232.311 94.8528 232.353 94.7402 232.395 94.6241C232.532 94.2401 232.654 93.8541 232.76 93.4665C232.779 93.3913 232.795 93.3164 232.814 93.2412C232.901 92.9079 232.975 92.576 233.038 92.2384C233.06 92.128 233.079 92.018 233.098 91.908C233.165 91.5108 233.221 91.1113 233.26 90.7068C233.262 90.6648 233.265 90.6228 233.267 90.5773C233.295 90.2087 233.311 89.8416 233.312 89.4725C233.314 89.3644 233.313 89.2566 233.312 89.1523C233.306 88.7423 233.29 88.3335 233.249 87.9238L230.369 58.3977M181.708 66.1908C181.074 66.2543 180.447 66.3239 179.82 66.397C179.615 66.4199 179.413 66.4492 179.211 66.4751C178.791 66.5288 178.37 66.5825 177.95 66.6396C177.711 66.6731 177.473 66.71 177.235 66.7434C176.855 66.7995 176.476 66.8556 176.097 66.9185C175.849 66.96 175.601 67.0014 175.357 67.0425C174.991 67.104 174.627 67.1689 174.262 67.2337C174.014 67.2787 173.77 67.3232 173.526 67.3712C173.158 67.4399 172.795 67.5151 172.431 67.5868C172.197 67.6337 171.966 67.6801 171.736 67.7301C171.34 67.8159 170.946 67.9013 170.554 67.9902C170.36 68.0326 170.167 68.0749 169.974 68.1207C169.398 68.2543 168.827 68.3944 168.259 68.541C168.163 68.5656 168.07 68.5933 167.974 68.6179C167.499 68.7402 167.028 68.8656 166.562 68.9975C166.356 69.0551 166.151 69.1162 165.946 69.1738C165.592 69.2757 165.241 69.3773 164.894 69.482C164.667 69.5525 164.439 69.6231 164.211 69.6936C163.891 69.7953 163.571 69.8935 163.255 69.9983C163.02 70.073 162.79 70.1508 162.556 70.229C162.247 70.333 161.941 70.4366 161.638 70.5433C161.408 70.6245 161.181 70.7054 160.955 70.7862C160.646 70.8971 160.341 71.011 160.039 71.1246C159.823 71.2043 159.61 71.2871 159.397 71.3665C159.066 71.4937 158.739 71.6275 158.412 71.7578C158.232 71.83 158.052 71.9022 157.876 71.974C157.389 72.1742 156.91 72.3806 156.437 72.5897C155.382 73.0549 154.353 73.5416 153.359 74.0452" stroke="#202124" stroke-width="1.2" stroke-miterlimit="10"/>
<path d="M103.423 84.2125C103.559 85.6138 104.147 86.8083 105.272 87.1288L155.845 101.48C164.196 103.765 174.215 104.59 184.846 103.51C185.602 103.433 186.353 103.343 187.096 103.25C187.278 103.229 187.46 103.202 187.645 103.178C188.385 103.082 189.117 102.976 189.845 102.864C189.886 102.86 189.922 102.852 189.962 102.844C190.657 102.736 191.346 102.614 192.032 102.489C192.209 102.455 192.387 102.425 192.564 102.392C193.273 102.257 193.978 102.12 194.674 101.969C194.744 101.954 194.811 101.937 194.881 101.922C195.521 101.785 196.153 101.638 196.781 101.485C196.954 101.444 197.127 101.401 197.3 101.357C197.974 101.192 198.641 101.017 199.304 100.839C199.401 100.814 199.493 100.783 199.589 100.758C200.175 100.596 200.751 100.428 201.326 100.256C201.495 100.206 201.663 100.156 201.831 100.102C202.469 99.9061 203.099 99.7039 203.721 99.4921C203.836 99.4549 203.948 99.4147 204.059 99.3745C204.592 99.1934 205.118 99.0063 205.64 98.8126C205.804 98.7526 205.968 98.6926 206.132 98.6291C206.725 98.4066 207.315 98.1776 207.893 97.9428C208.021 97.8903 208.148 97.8379 208.275 97.782C208.755 97.5825 209.232 97.3799 209.704 97.1743C209.864 97.1044 210.023 97.0344 210.18 96.9649C210.73 96.7193 211.273 96.4676 211.804 96.2102C211.944 96.1425 212.08 96.0752 212.219 96.0075C212.65 95.796 213.074 95.5819 213.494 95.3612C213.646 95.2817 213.801 95.2018 213.95 95.1227C214.453 94.8545 214.946 94.584 215.431 94.3073C215.573 94.2255 215.714 94.1436 215.855 94.0618C216.241 93.838 216.619 93.6116 216.99 93.3824C217.134 93.2933 217.278 93.2077 217.419 93.119C217.873 92.8319 218.319 92.5422 218.755 92.2501C218.895 92.1545 219.032 92.0593 219.172 91.9638C219.512 91.7311 219.844 91.4923 220.17 91.2542C220.3 91.1598 220.433 91.0649 220.562 90.967C220.967 90.6646 221.363 90.356 221.75 90.0486C221.882 89.9434 222.01 89.8352 222.139 89.7304C222.437 89.4851 222.731 89.2366 223.015 88.9859C223.127 88.8864 223.246 88.7896 223.354 88.6871C223.709 88.3693 224.053 88.0457 224.391 87.7228C224.508 87.6088 224.622 87.4952 224.739 87.3778C224.998 87.1194 225.253 86.8579 225.498 86.594C225.593 86.493 225.688 86.3954 225.78 86.2947C225.792 86.2795 225.808 86.2673 225.82 86.252C226.113 85.9306 226.392 85.6072 226.66 85.2781C226.763 85.1553 226.862 85.0295 226.962 84.9036C227.173 84.6435 227.373 84.3811 227.57 84.1157C227.656 84.0016 227.743 83.8841 227.826 83.7705C228.079 83.4188 228.317 83.0651 228.545 82.7092C228.621 82.5928 228.691 82.4738 228.763 82.3578C228.935 82.0778 229.099 81.7985 229.257 81.5165C229.323 81.4012 229.389 81.2826 229.452 81.1677C229.647 80.7979 229.833 80.4293 230.001 80.0556C230.045 79.9567 230.086 79.8548 230.13 79.756C230.261 79.4525 230.385 79.1464 230.499 78.8414C230.542 78.7288 230.585 78.6162 230.627 78.5001C230.763 78.116 230.886 77.7301 230.991 77.3425C231.01 77.2673 231.026 77.1924 231.045 77.1172C231.133 76.7838 231.206 76.452 231.269 76.1144C231.291 76.004 231.31 75.894 231.329 75.784C231.396 75.3868 231.452 74.9873 231.491 74.5828C231.493 74.5408 231.496 74.4988 231.498 74.4533C231.527 74.0847 231.542 73.7176 231.544 73.3485C231.546 73.2404 231.544 73.1326 231.544 73.0283C231.537 72.6183 231.521 72.2095 231.481 71.7998" stroke="#202124" stroke-width="1.2" stroke-miterlimit="10"/>
<path d="M185.761 87.7884C185.943 87.7681 186.124 87.741 186.309 87.717C187.049 87.6209 187.782 87.5152 188.51 87.403C188.55 87.3985 188.587 87.3909 188.627 87.383C189.321 87.2745 190.011 87.1527 190.697 87.0278C190.874 86.9942 191.051 86.964 191.229 86.9304C191.937 86.796 192.642 86.6585 193.339 86.508C193.409 86.4933 193.475 86.4755 193.545 86.4608C194.186 86.3235 194.818 86.1767 195.446 86.0234C195.619 85.9833 195.792 85.9397 195.965 85.8962C196.639 85.7307 197.306 85.5558 197.969 85.3777C198.065 85.3531 198.158 85.3219 198.254 85.2973C198.84 85.1348 199.416 84.9664 199.991 84.7946C200.159 84.7446 200.328 84.6945 200.496 84.6411C201.133 84.445 201.763 84.2428 202.385 84.031C202.501 83.9938 202.612 83.9535 202.724 83.9133C203.257 83.7323 203.783 83.5451 204.304 83.3514C204.469 83.2914 204.633 83.2314 204.796 83.168C205.39 82.9455 205.979 82.7164 206.558 82.4816C206.685 82.4292 206.813 82.3767 206.94 82.3209C207.42 82.1214 207.896 81.9188 208.369 81.7132C208.528 81.6432 208.688 81.5733 208.844 81.5037C209.395 81.2582 209.937 81.0065 210.469 80.749C210.609 80.6813 210.745 80.614 210.884 80.5463C211.315 80.3349 211.739 80.1207 212.159 79.9001C212.311 79.8206 212.466 79.7407 212.614 79.6615C213.118 79.3933 213.611 79.1228 214.096 78.8461C214.237 78.7643 214.379 78.6825 214.52 78.6007C214.905 78.3769 215.284 78.1504 215.655 77.9212C215.799 77.8322 215.943 77.7465 216.084 77.6578C216.537 77.3708 216.984 77.081 217.42 76.789C217.56 76.6934 217.696 76.5982 217.836 76.5026C218.176 76.2699 218.509 76.0311 218.835 75.7931C218.965 75.6986 219.098 75.6038 219.227 75.5059C219.631 75.2034 220.028 74.8949 220.415 74.5874C220.547 74.4823 220.675 74.3741 220.804 74.2693C221.102 74.0239 221.396 73.7755 221.679 73.5247C221.791 73.4252 221.911 73.3285 222.019 73.2259C222.374 72.9081 222.718 72.5845 223.055 72.2617C223.173 72.1477 223.287 72.0341 223.404 71.9167C223.663 71.6582 223.918 71.3967 224.163 71.1329C224.258 71.0318 224.353 70.9342 224.445 70.8336C224.457 70.8183 224.472 70.8061 224.484 70.7909C224.777 70.4695 225.057 70.1461 225.325 69.817C225.428 69.6942 225.527 69.5683 225.626 69.4425C225.837 69.1824 226.038 68.92 226.234 68.6545C226.321 68.5405 226.408 68.423 226.491 68.3093C226.743 67.9576 226.982 67.604 227.21 67.248C227.286 67.1317 227.355 67.0126 227.428 66.8966C227.6 66.6166 227.764 66.3373 227.922 66.0553C227.988 65.9401 228.054 65.8214 228.116 65.7065C228.312 65.3368 228.498 64.9681 228.666 64.5945C228.71 64.4956 228.75 64.3937 228.794 64.2948C228.926 63.9914 229.05 63.6852 229.164 63.3802C229.207 63.2676 229.249 63.155 229.291 63.0389C229.428 62.6549 229.55 62.2689 229.656 61.8813C229.675 61.8061 229.691 61.7313 229.71 61.656C229.797 61.3227 229.871 60.9908 229.934 60.6532C229.956 60.5429 229.975 60.4329 229.994 60.3229C230.061 59.9257 230.117 59.5262 230.156 59.1217C230.158 59.0797 230.161 59.0376 230.162 58.9922C230.191 58.6235 230.207 58.2564 230.208 57.8873C230.21 57.7792 230.209 57.6715 230.208 57.5672C230.202 57.1572 230.186 56.7483 230.145 56.3387C228.708 41.6171 205.771 31.9427 178.604 34.6091C177.97 34.6726 177.343 34.7422 176.717 34.8153C176.511 34.8381 176.309 34.8675 176.108 34.8934C175.687 34.9471 175.266 35.0008 174.846 35.0579C174.608 35.0913 174.369 35.1282 174.131 35.1617C173.751 35.2178 173.372 35.2738 172.993 35.3368C172.745 35.3783 172.498 35.4197 172.253 35.4608C171.888 35.5223 171.523 35.5872 171.158 35.652C170.911 35.6969 170.666 35.7415 170.422 35.7894C170.055 35.8581 169.691 35.9334 169.327 36.0051C169.093 36.052 168.863 36.0984 168.633 36.1484C168.236 36.2342 167.843 36.3196 167.45 36.4085C167.257 36.4509 167.063 36.4932 166.87 36.539C166.295 36.6726 165.723 36.8127 165.155 36.9592C165.059 36.9838 164.967 37.0115 164.87 37.0361C164.396 37.1585 163.925 37.2839 163.458 37.4158C163.253 37.4734 163.048 37.5344 162.842 37.592C162.488 37.694 162.138 37.7956 161.791 37.9003C161.563 37.9708 161.335 38.0414 161.107 38.1119C160.787 38.2136 160.467 38.3118 160.151 38.4166C159.917 38.4913 159.686 38.5691 159.452 38.6473C159.143 38.7513 158.837 38.8549 158.534 38.9615C158.304 39.0428 158.078 39.1237 157.851 39.2045C157.542 39.3154 157.237 39.4293 156.936 39.5429C156.719 39.6226 156.506 39.7054 156.293 39.7848C155.962 39.912 155.635 40.0458 155.308 40.1761C155.128 40.2483 154.948 40.3205 154.772 40.3923C154.285 40.5925 153.806 40.7989 153.334 41.008C152.278 41.4732 151.249 41.9599 150.256 42.4635L103.984 66.2924C102.277 67.1711 101.743 68.3024 101.847 69.3697C101.95 70.4371 102.695 71.4402 104.538 71.9594L154.503 86.0127C162.853 88.2973 172.872 89.1227 183.503 88.0427C184.259 87.9657 185.01 87.8753 185.754 87.7822L185.761 87.7884Z" fill="#EEEEEE" stroke="#202124" stroke-width="1.2" stroke-miterlimit="10"/>
<path d="M181.334 70.1059C188.929 69.3347 194.723 64.9932 194.276 60.409C193.829 55.8248 187.31 52.7337 179.715 53.505C172.12 54.2762 166.326 58.6176 166.773 63.2018C167.22 67.7861 173.739 70.8771 181.334 70.1059Z" fill="url(#paint2_linear_7917_17251)" stroke="#202124" stroke-width="1.2" stroke-miterlimit="10"/>
<mask id="mask0_7917_17251" style="mask-type:luminance" maskUnits="userSpaceOnUse" x="166" y="53" width="29" height="18">
<path d="M181.332 70.099C188.927 69.3278 194.721 64.9864 194.274 60.4022C193.827 55.8179 187.308 52.7269 179.713 53.4981C172.118 54.2693 166.324 58.6108 166.771 63.195C167.218 67.7792 173.737 70.8703 181.332 70.099Z" fill="white"/>
</mask>
<g mask="url(#mask0_7917_17251)">
<path d="M167.911 74.2455C167.462 69.6597 173.258 65.3199 180.852 64.5459C188.447 63.7753 194.963 66.8657 195.411 71.4515" stroke="#202124" stroke-width="1.2" stroke-miterlimit="10"/>
</g>
<path d="M181.332 70.102C188.927 69.3308 194.721 64.9893 194.274 60.4051C193.827 55.8209 187.308 52.7298 179.713 53.501C172.118 54.2723 166.324 58.6137 166.771 63.1979C167.218 67.7822 173.737 70.8732 181.332 70.102Z" stroke="#202124" stroke-width="1.2" stroke-miterlimit="10"/>
<path d="M112.519 74.2383L115.639 105.944" stroke="#202124" stroke-width="1.2" stroke-miterlimit="10"/>
<path d="M129.006 79.0908L132.086 110.453" stroke="#202124" stroke-width="1.2" stroke-miterlimit="10"/>
<path d="M147.63 83.5918L150.772 115.508" stroke="#202124" stroke-width="1.2" stroke-miterlimit="10"/>
<path d="M167.981 88.5791L170.997 119.312" stroke="#202124" stroke-width="1.2" stroke-miterlimit="10"/>
<path d="M179.752 53.5664L181.374 70.2095" stroke="#202124" stroke-width="1.2" stroke-miterlimit="10"/>
<path d="M188.125 53.8984L189.46 67.6918" stroke="#202124" stroke-width="1.2" stroke-miterlimit="10"/>
<path d="M171.604 55.6104L172.954 69.2628" stroke="#202124" stroke-width="1.2" stroke-miterlimit="10"/>
<path d="M190.331 87.5068L193.343 118.236" stroke="#202124" stroke-width="1.2" stroke-miterlimit="10"/>
<path d="M211.245 80.5176L214.333 112.029" stroke="#202124" stroke-width="1.2" stroke-miterlimit="10"/>
<path d="M225.584 69.4473L228.673 100.955" stroke="#202124" stroke-width="1.2" stroke-miterlimit="10"/>
<path fill-rule="evenodd" clip-rule="evenodd" d="M231.415 69.1157C229.959 68.6308 228.527 68.0484 227.129 67.3786C226.926 67.6904 226.716 68.0005 226.494 68.3091C226.411 68.4228 226.325 68.5402 226.238 68.6543C226.041 68.9197 225.84 69.1821 225.63 69.4422L225.629 69.4429C225.53 69.5685 225.431 69.6942 225.328 69.8168C225.06 70.1459 224.781 70.4692 224.488 70.7906C224.482 70.7983 224.475 70.8051 224.468 70.812L224.468 70.812C224.461 70.8189 224.454 70.8257 224.448 70.8333C224.389 70.8985 224.328 70.9623 224.266 71.0267L224.266 71.0267C224.233 71.0618 224.2 71.097 224.166 71.1326C223.921 71.3965 223.666 71.658 223.407 71.9164C223.29 72.0339 223.176 72.1474 223.059 72.2614C222.721 72.5843 222.377 72.9079 222.022 73.2257C221.954 73.2905 221.881 73.3529 221.809 73.4152C221.766 73.4515 221.724 73.4878 221.683 73.5245C221.399 73.7752 221.105 74.0237 220.807 74.269C220.758 74.3087 220.71 74.3488 220.661 74.389C220.581 74.4552 220.5 74.5218 220.418 74.5872C220.031 74.8946 219.635 75.2032 219.23 75.5057C219.135 75.5777 219.038 75.6481 218.941 75.718L218.941 75.7181L218.838 75.7928C218.512 76.0309 218.18 76.2697 217.84 76.5024C217.77 76.5501 217.701 76.5978 217.631 76.6455L217.631 76.6458C217.562 76.6934 217.493 76.741 217.423 76.7887C216.987 77.0808 216.541 77.3705 216.087 77.6576C216.004 77.7102 215.919 77.7617 215.834 77.8134C215.775 77.849 215.717 77.8847 215.658 77.921C215.287 78.1502 214.909 78.3766 214.523 78.6004L214.099 78.8459C213.614 79.1226 213.121 79.3931 212.618 79.6613C212.519 79.714 212.417 79.767 212.315 79.82L212.162 79.8998C211.899 80.0383 211.634 80.1741 211.366 80.3084C210.274 84.2575 208.485 88.0033 205.878 91.3489C203.497 94.4036 200.461 96.8287 197.1 98.6704C207.395 93.0974 219.17 95.1109 228.646 101.131C228.674 101.096 228.702 101.061 228.73 101.026L228.73 101.025C228.941 100.765 229.142 100.502 229.339 100.237C229.425 100.123 229.512 100.005 229.595 99.8915C229.847 99.5399 230.086 99.1862 230.314 98.8303C230.36 98.7593 230.404 98.6874 230.448 98.6158C230.476 98.5699 230.504 98.5242 230.532 98.4789C230.704 98.1988 230.868 97.9195 231.026 97.6375C231.092 97.5223 231.158 97.4036 231.22 97.2888C231.416 96.919 231.602 96.5503 231.77 96.1767C231.792 96.1273 231.813 96.0771 231.834 96.0269C231.855 95.9767 231.876 95.9265 231.898 95.8771C232.03 95.5736 232.154 95.2675 232.268 94.9625C232.311 94.8498 232.353 94.7372 232.395 94.6212C232.532 94.2371 232.654 93.8511 232.76 93.4636C232.769 93.426 232.778 93.3884 232.787 93.3509C232.796 93.3134 232.804 93.2759 232.814 93.2383C232.901 92.9049 232.975 92.5731 233.038 92.2355C233.06 92.1251 233.079 92.0151 233.098 91.9051C233.165 91.5079 233.221 91.1084 233.26 90.7039C233.262 90.6619 233.265 90.6199 233.267 90.5744C233.295 90.2058 233.311 89.8386 233.312 89.4695C233.314 89.3714 233.313 89.2736 233.313 89.1783L233.312 89.1494C233.306 88.7394 233.29 88.3306 233.249 87.9209L231.415 69.1157Z" fill="#202124"/>
<path d="M227.129 67.3786L227.39 66.837L226.914 66.6093L226.626 67.0531L227.129 67.3786ZM231.415 69.1157L232.012 69.0549L231.974 68.6685L231.606 68.5461L231.415 69.1157ZM226.494 68.3091L226.977 68.663L226.981 68.6579L226.494 68.3091ZM226.238 68.6543L225.761 68.2919L225.757 68.2979L226.238 68.6543ZM225.63 69.4422L225.165 69.065L225.158 69.0729L225.63 69.4422ZM225.629 69.4429L226.099 69.8133L226.1 69.8123L225.629 69.4429ZM225.328 69.8168L224.869 69.4322L224.864 69.4383L225.328 69.8168ZM224.488 70.7906L224.045 70.387L224.031 70.4031L224.017 70.4203L224.488 70.7906ZM224.468 70.812L224.885 71.2414L224.888 71.2383L224.468 70.812ZM224.468 70.812L224.05 70.3826L224.047 70.3858L224.468 70.812ZM224.448 70.8333L224.89 71.2365L224.905 71.2206L224.918 71.2038L224.448 70.8333ZM224.266 71.0267L223.833 70.6134L223.832 70.615L224.266 71.0267ZM224.266 71.0267L224.7 71.4399L224.701 71.4384L224.266 71.0267ZM224.166 71.1326L223.73 70.7223L223.727 70.7252L224.166 71.1326ZM223.407 71.9164L222.985 71.4923L222.984 71.4933L223.407 71.9164ZM223.059 72.2614L223.472 72.6944L223.475 72.6915L223.059 72.2614ZM222.022 73.2257L221.624 72.7791L221.618 72.7846L221.612 72.7902L222.022 73.2257ZM221.809 73.4152L222.198 73.8703L222.198 73.8703L221.809 73.4152ZM221.683 73.5245L222.079 73.9736L222.079 73.973L221.683 73.5245ZM220.807 74.269L221.184 74.734L221.187 74.7319L220.807 74.269ZM220.661 74.389L221.041 74.8515L221.041 74.8515L220.661 74.389ZM220.418 74.5872L220.79 75.0566L220.79 75.0563L220.418 74.5872ZM219.23 75.5057L218.873 75.0254L218.87 75.0274L219.23 75.5057ZM218.941 75.718L218.591 75.2321L218.591 75.2324L218.941 75.718ZM218.941 75.7181L219.292 76.2037L219.292 76.2037L218.941 75.7181ZM218.838 75.7928L218.488 75.3073L218.486 75.3085L218.838 75.7928ZM217.84 76.5024L218.176 76.9977L218.177 76.9975L217.84 76.5024ZM217.631 76.6455L217.292 76.1518L217.292 76.1521L217.631 76.6455ZM217.631 76.6458L217.97 77.1395L217.97 77.1393L217.631 76.6458ZM217.423 76.7887L217.755 77.2872L217.76 77.284L217.423 76.7887ZM216.087 77.6576L216.405 78.165L216.406 78.1646L216.087 77.6576ZM215.834 77.8134L216.144 78.3261L216.144 78.3261L215.834 77.8134ZM215.658 77.921L215.971 78.4315L215.972 78.4312L215.658 77.921ZM214.523 78.6004L214.822 79.1197L214.823 79.1193L214.523 78.6004ZM214.099 78.8459L214.394 79.3673L214.398 79.3652L214.099 78.8459ZM212.618 79.6613L212.337 79.1317L212.337 79.1318L212.618 79.6613ZM212.315 79.82L212.04 79.2877L212.04 79.2879L212.315 79.82ZM212.162 79.8998L211.887 79.3678L211.885 79.3686L212.162 79.8998ZM211.366 80.3084L211.099 79.7721L210.86 79.8923L210.788 80.1506L211.366 80.3084ZM205.878 91.3489L206.35 91.7168L206.35 91.7168L205.878 91.3489ZM197.1 98.6704L196.813 98.1441L197.383 99.1981L197.1 98.6704ZM228.646 101.131L228.323 101.639L228.779 101.928L229.116 101.503L228.646 101.131ZM228.73 101.026L229.2 101.396L229.2 101.396L228.73 101.026ZM228.73 101.025L228.265 100.647L228.26 100.654L228.73 101.025ZM229.339 100.237L228.862 99.8744L228.857 99.8804L229.339 100.237ZM229.595 99.8915L230.078 100.245L230.082 100.24L229.595 99.8915ZM230.314 98.8303L229.813 98.5025L229.81 98.5078L230.314 98.8303ZM230.448 98.6158L229.936 98.3047L229.936 98.3047L230.448 98.6158ZM230.532 98.4789L231.04 98.7969L231.043 98.7908L230.532 98.4789ZM231.026 97.6375L230.506 97.3401L230.502 97.3463L231.026 97.6375ZM231.22 97.2888L231.746 97.5751L231.75 97.5682L231.22 97.2888ZM231.77 96.1767L232.317 96.4213L232.318 96.4191L231.77 96.1767ZM231.898 95.8771L232.446 96.1195L232.449 96.1137L231.898 95.8771ZM232.268 94.9625L231.707 94.7522L231.707 94.754L232.268 94.9625ZM232.395 94.6212L232.959 94.8243L232.96 94.8201L232.395 94.6212ZM232.76 93.4636L233.338 93.6188L233.341 93.6103L232.76 93.4636ZM232.787 93.3509L233.371 93.4856L233.371 93.4856L232.787 93.3509ZM232.814 93.2383L232.234 93.0885L232.233 93.0916L232.814 93.2383ZM233.038 92.2355L232.45 92.1187L232.448 92.1279L233.038 92.2355ZM233.098 91.9051L233.689 92.0047L233.69 92.0023L233.098 91.9051ZM233.26 90.7039L233.857 90.7586L233.858 90.7467L233.859 90.7347L233.26 90.7039ZM233.267 90.5744L232.669 90.53L232.668 90.5404L232.667 90.5509L233.267 90.5744ZM233.312 89.4695L232.713 89.4604L232.713 89.4696L233.312 89.4695ZM233.313 89.1783L232.713 89.1861L232.713 89.1862L233.313 89.1783ZM233.312 89.1494L233.912 89.1416L233.912 89.1377L233.312 89.1494ZM233.249 87.9209L232.653 87.9818L232.653 87.9822L233.249 87.9209ZM226.868 67.9203C228.288 68.6004 229.743 69.1922 231.223 69.6854L231.606 68.5461C230.175 68.0693 228.766 67.4964 227.39 66.837L226.868 67.9203ZM226.981 68.6579C227.208 68.3411 227.424 68.0232 227.631 67.7041L226.626 67.0531C226.429 67.3577 226.223 67.6599 226.008 67.9603L226.981 68.6579ZM226.714 69.0166C226.805 68.8979 226.894 68.7765 226.977 68.663L226.011 67.9552C225.928 68.069 225.844 68.1826 225.761 68.2919L226.714 69.0166ZM226.094 69.8194C226.313 69.5505 226.519 69.2807 226.719 69.0106L225.757 68.2979C225.563 68.5588 225.368 68.8138 225.165 69.0651L226.094 69.8194ZM226.1 69.8123L226.101 69.8116L225.158 69.0729L225.158 69.0736L226.1 69.8123ZM225.787 70.2013C225.897 70.0706 226.001 69.9377 226.099 69.8133L225.159 69.0725C225.059 69.1994 224.965 69.3178 224.87 69.4322L225.787 70.2013ZM224.93 71.1943C225.23 70.865 225.517 70.5332 225.792 70.1952L224.864 69.4383C224.603 69.7586 224.331 70.0735 224.045 70.387L224.93 71.1943ZM224.888 71.2383C224.89 71.236 224.925 71.2031 224.958 71.161L224.017 70.4203C224.029 70.4048 224.04 70.3938 224.045 70.3886C224.049 70.3843 224.052 70.3812 224.047 70.3857L224.888 71.2383ZM224.885 71.2414L224.885 71.2414L224.05 70.3826L224.05 70.3826L224.885 71.2414ZM224.918 71.2038C224.906 71.2192 224.896 71.2302 224.891 71.2353C224.887 71.2397 224.884 71.2428 224.888 71.2383L224.047 70.3858C224.045 70.3881 224.011 70.4209 223.977 70.4629L224.918 71.2038ZM224.7 71.4399C224.76 71.3764 224.826 71.3076 224.89 71.2365L224.005 70.4302C223.951 70.4894 223.895 70.5483 223.833 70.6134L224.7 71.4399ZM224.701 71.4384L224.701 71.4383L223.832 70.615L223.832 70.615L224.701 71.4384ZM224.602 71.5429C224.634 71.509 224.666 71.4752 224.7 71.4399L223.833 70.6135C223.8 70.6483 223.765 70.685 223.73 70.7223L224.602 71.5429ZM223.83 72.3406C224.092 72.0786 224.353 71.8112 224.605 71.54L223.727 70.7252C223.489 70.9817 223.24 71.2374 222.985 71.4923L223.83 72.3406ZM223.475 72.6915C223.596 72.5741 223.713 72.4577 223.831 72.3396L222.984 71.4933C222.867 71.61 222.756 71.7208 222.642 71.8313L223.475 72.6915ZM222.421 73.6723C222.783 73.3482 223.133 73.0195 223.472 72.6944L222.645 71.8284C222.31 72.149 221.971 72.4675 221.624 72.7791L222.421 73.6723ZM222.198 73.8703C222.268 73.8097 222.352 73.7377 222.433 73.6612L221.612 72.7902C221.556 72.8432 221.494 72.8961 221.419 72.9601L222.198 73.8703ZM222.079 73.973C222.116 73.9402 222.155 73.9072 222.198 73.8703L221.419 72.9601C221.378 72.9959 221.332 73.0354 221.286 73.0759L222.079 73.973ZM221.187 74.7319C221.488 74.4835 221.788 74.2303 222.079 73.9736L221.287 73.0753C221.01 73.3201 220.721 73.5639 220.427 73.8062L221.187 74.7319ZM221.041 74.8515C221.09 74.811 221.138 74.7722 221.184 74.734L220.43 73.8041C220.379 73.8451 220.329 73.8865 220.281 73.9266L221.041 74.8515ZM220.79 75.0563C220.877 74.9871 220.962 74.9171 221.041 74.8515L220.281 73.9265C220.2 73.9933 220.123 74.0565 220.046 74.1181L220.79 75.0563ZM219.588 75.9859C219.998 75.6791 220.4 75.3667 220.79 75.0566L220.046 74.1178C219.663 74.4225 219.271 74.7273 218.873 75.0254L219.588 75.9859ZM219.291 76.2039C219.387 76.1347 219.49 76.0605 219.591 75.9839L218.87 75.0274C218.781 75.0949 218.689 75.1616 218.591 75.2321L219.291 76.2039ZM219.292 76.2037L219.292 76.2035L218.591 75.2324L218.591 75.2325L219.292 76.2037ZM219.189 76.2784L219.292 76.2037L218.591 75.2325L218.488 75.3073L219.189 76.2784ZM218.177 76.9975C218.524 76.7599 218.862 76.5171 219.19 76.2772L218.486 75.3085C218.162 75.5447 217.835 75.7795 217.503 76.0072L218.177 76.9975ZM217.971 77.1392C218.04 77.0914 218.108 77.0445 218.176 76.9977L217.503 76.0071C217.432 76.0558 217.361 76.1043 217.292 76.1518L217.971 77.1392ZM217.97 77.1393L217.971 77.1389L217.292 76.1521L217.292 76.1524L217.97 77.1393ZM217.76 77.284C217.831 77.2354 217.901 77.187 217.97 77.1395L217.292 76.1521C217.223 76.1999 217.155 76.2467 217.087 76.2934L217.76 77.284ZM216.406 78.1646C216.863 77.8751 217.314 77.5825 217.755 77.2872L217.091 76.2903C216.66 76.5791 216.218 76.8659 215.768 77.1506L216.406 78.1646ZM216.144 78.3261C216.228 78.2747 216.317 78.2207 216.405 78.165L215.769 77.1501C215.69 77.1997 215.61 77.2486 215.524 77.3008L216.144 78.3261ZM215.972 78.4312C216.028 78.3964 216.085 78.3618 216.144 78.3261L215.524 77.3008C215.466 77.3362 215.405 77.3731 215.344 77.4108L215.972 78.4312ZM214.823 79.1193C215.213 78.8929 215.596 78.6636 215.971 78.4315L215.345 77.4105C214.978 77.6367 214.605 77.8604 214.224 78.0815L214.823 79.1193ZM214.398 79.3652L214.822 79.1197L214.225 78.0811L213.801 78.3266L214.398 79.3652ZM212.898 80.1909C213.405 79.9204 213.903 79.6471 214.394 79.3672L213.804 78.3246C213.324 78.598 212.837 78.8658 212.337 79.1317L212.898 80.1909ZM212.59 80.3523C212.691 80.2995 212.796 80.2452 212.898 80.1909L212.337 79.1318C212.242 79.1828 212.142 79.2345 212.04 79.2877L212.59 80.3523ZM212.437 80.4319L212.59 80.3521L212.04 79.2879L211.887 79.3678L212.437 80.4319ZM211.633 80.8447C211.904 80.7089 212.172 80.5714 212.439 80.431L211.885 79.3686C211.625 79.5052 211.364 79.6393 211.099 79.7721L211.633 80.8447ZM206.35 91.7168C209.01 88.3034 210.833 84.4848 211.944 80.4662L210.788 80.1506C209.716 84.0303 207.959 87.7032 205.405 90.981L206.35 91.7168ZM197.386 99.1967C200.808 97.3217 203.912 94.8461 206.35 91.7168L205.406 90.9809C203.083 93.9612 200.114 96.3356 196.813 98.1441L197.386 99.1967ZM228.969 100.624C219.367 94.5237 207.356 92.4373 196.816 98.1427L197.383 99.1981C207.434 93.7574 218.973 95.6982 228.323 101.639L228.969 100.624ZM229.116 101.503C229.144 101.467 229.172 101.431 229.2 101.396L228.259 100.655C228.231 100.691 228.204 100.725 228.177 100.76L229.116 101.503ZM229.2 101.396L229.201 101.395L228.26 100.654L228.259 100.655L229.2 101.396ZM229.195 101.402C229.413 101.133 229.619 100.863 229.82 100.593L228.857 99.8804C228.664 100.141 228.469 100.396 228.265 100.648L229.195 101.402ZM229.815 100.599C229.905 100.48 229.995 100.359 230.078 100.245L229.112 99.5377C229.029 99.6515 228.945 99.7651 228.862 99.8744L229.815 100.599ZM230.082 100.24C230.341 99.8793 230.585 99.5168 230.818 99.1528L229.81 98.5078C229.587 98.8556 229.354 99.2004 229.108 99.5427L230.082 100.24ZM230.815 99.158C230.868 99.0775 230.917 98.9971 230.96 98.9268L229.936 98.3047C229.892 98.3777 229.853 98.4412 229.813 98.5025L230.815 99.158ZM230.96 98.9269C230.988 98.8804 231.014 98.8381 231.04 98.7969L230.025 98.1608C229.994 98.2102 229.964 98.2594 229.936 98.3047L230.96 98.9269ZM231.043 98.7908C231.218 98.5052 231.387 98.2189 231.549 97.9287L230.502 97.3463C230.35 97.6202 230.189 97.8925 230.021 98.167L231.043 98.7908ZM231.545 97.9349C231.614 97.8147 231.682 97.692 231.746 97.5751L230.695 97.0024C230.633 97.1153 230.569 97.2299 230.506 97.3401L231.545 97.9349ZM231.75 97.5682C231.949 97.1917 232.142 96.8108 232.317 96.4213L231.224 95.9321C231.062 96.2899 230.883 96.6463 230.691 97.0093L231.75 97.5682ZM232.318 96.4191C232.343 96.3628 232.366 96.3066 232.387 96.2574L231.282 95.7963C231.26 95.8475 231.242 95.8917 231.223 95.9342L232.318 96.4191ZM232.387 96.2574C232.409 96.2062 232.427 96.162 232.446 96.1195L231.351 95.6346C231.326 95.691 231.302 95.7471 231.282 95.7963L232.387 96.2574ZM232.449 96.1137C232.584 95.8019 232.712 95.4863 232.83 95.1709L231.707 94.754C231.596 95.0487 231.476 95.3454 231.348 95.6404L232.449 96.1137ZM232.829 95.1727C232.871 95.0606 232.915 94.9445 232.959 94.8243L231.832 94.418C231.791 94.53 231.75 94.6391 231.707 94.7522L232.829 95.1727ZM232.96 94.8201C233.101 94.4234 233.229 94.0227 233.338 93.6188L232.181 93.3083C232.08 93.6795 231.962 94.0509 231.83 94.4223L232.96 94.8201ZM233.341 93.6103C233.352 93.5656 233.362 93.5221 233.371 93.4856L232.203 93.2162C232.194 93.2548 232.187 93.2863 232.179 93.3169L233.341 93.6103ZM233.371 93.4856C233.38 93.4471 233.387 93.4156 233.395 93.385L232.233 93.0916C232.222 93.1362 232.212 93.1798 232.203 93.2163L233.371 93.4856ZM233.394 93.388C233.485 93.0402 233.562 92.6943 233.627 92.3431L232.448 92.1279C232.388 92.4519 232.317 92.7697 232.234 93.0885L233.394 93.388ZM233.626 92.3522C233.65 92.2319 233.67 92.1134 233.689 92.0047L232.507 91.8055C232.488 91.9168 232.47 92.0183 232.45 92.1187L233.626 92.3522ZM233.69 92.0023C233.758 91.5947 233.816 91.1806 233.857 90.7586L232.663 90.6492C232.626 91.0362 232.572 91.4212 232.507 91.808L233.69 92.0023ZM233.859 90.7347C233.861 90.6934 233.864 90.6476 233.866 90.5979L232.667 90.5509C232.666 90.5921 232.663 90.6304 232.661 90.6731L233.859 90.7347ZM233.864 90.6188C233.894 90.2357 233.91 89.8537 233.912 89.4695L232.713 89.4696C232.711 89.8235 232.696 90.1759 232.669 90.53L233.864 90.6188ZM233.912 89.4787C233.914 89.3706 233.913 89.2643 233.912 89.1704L232.713 89.1862C232.714 89.2828 232.714 89.3722 232.713 89.4604L233.912 89.4787ZM233.912 89.1705L233.912 89.1416L232.713 89.1572L232.713 89.1861L233.912 89.1705ZM233.912 89.1377C233.906 88.7185 233.889 88.2917 233.846 87.8596L232.653 87.9822C232.691 88.3694 232.707 88.7603 232.713 89.1611L233.912 89.1377ZM233.846 87.86L232.012 69.0549L230.818 69.1766L232.653 87.9818L233.846 87.86Z" fill="#202124"/>
<path fill-rule="evenodd" clip-rule="evenodd" d="M229.097 52.1054C222.487 57.6188 215.152 61.4552 208.99 63.0451C205.764 63.8766 202.824 64.1202 200.164 63.9479C208.2 64.5161 213.937 69.9468 211.247 80.3681C211.554 80.2148 211.858 80.0595 212.16 79.9009C212.211 79.8743 212.262 79.8476 212.313 79.821C212.415 79.768 212.517 79.715 212.616 79.6623C213.119 79.3941 213.612 79.1236 214.097 78.8469L214.521 78.6015C214.907 78.3777 215.285 78.1512 215.656 77.922C215.715 77.8858 215.774 77.8501 215.832 77.8145C215.917 77.7627 216.002 77.7112 216.085 77.6586C216.539 77.3716 216.985 77.0818 217.421 76.7898C217.491 76.742 217.56 76.6943 217.63 76.6466C217.699 76.5989 217.768 76.5512 217.838 76.5034C218.178 76.2707 218.51 76.0319 218.836 75.7939C218.87 75.769 218.905 75.7441 218.939 75.7192C219.036 75.6493 219.133 75.5788 219.228 75.5067C219.633 75.2042 220.03 74.8957 220.416 74.5882C220.498 74.5228 220.579 74.4563 220.659 74.3901C220.708 74.3498 220.757 74.3097 220.805 74.2701C221.103 74.0247 221.397 73.7763 221.681 73.5255C221.722 73.4889 221.764 73.4526 221.807 73.4162C221.879 73.354 221.952 73.2915 222.021 73.2267C222.375 72.9089 222.72 72.5853 223.057 72.2625C223.174 72.1485 223.288 72.0349 223.405 71.9175C223.664 71.659 223.919 71.3975 224.164 71.1337C224.198 71.098 224.231 71.0628 224.265 71.0277C224.326 70.9634 224.387 70.8995 224.446 70.8344C224.452 70.8267 224.459 70.8199 224.466 70.813C224.473 70.8062 224.48 70.7993 224.486 70.7917C224.779 70.4703 225.058 70.1469 225.327 69.8178C225.429 69.6952 225.528 69.5696 225.627 69.444L225.628 69.4433C225.839 69.1832 226.039 68.9208 226.236 68.6553C226.323 68.5413 226.409 68.4238 226.492 68.3101C226.745 67.9584 226.983 67.6048 227.211 67.2488C227.258 67.1779 227.302 67.106 227.345 67.0344C227.373 66.9885 227.401 66.9427 227.43 66.8974C227.601 66.6174 227.766 66.3381 227.923 66.0561C227.989 65.9409 228.055 65.8222 228.118 65.7073C228.314 65.3376 228.499 64.9689 228.668 64.5953C228.69 64.5458 228.711 64.4956 228.732 64.4454C228.753 64.3952 228.774 64.3451 228.796 64.2956C228.927 63.9922 229.051 63.686 229.166 63.381C229.208 63.2684 229.251 63.1558 229.293 63.0397C229.429 62.6557 229.552 62.2697 229.657 61.8821C229.667 61.8445 229.675 61.807 229.684 61.7695C229.693 61.732 229.702 61.6945 229.711 61.6568C229.799 61.3235 229.872 60.9916 229.935 60.654C229.958 60.5437 229.977 60.4337 229.996 60.3237C230.062 59.9265 230.119 59.527 230.157 59.1225C230.16 59.0805 230.162 59.0384 230.164 58.993C230.193 58.6243 230.208 58.2572 230.21 57.8881C230.212 57.79 230.211 57.6922 230.21 57.597L230.21 57.568C230.203 57.158 230.187 56.7491 230.147 56.3395C230.004 54.8758 229.648 53.4621 229.097 52.1054Z" fill="#202124"/>
<path d="M229.097 52.1054L229.653 51.8773L229.345 51.119L228.715 51.6449L229.097 52.1054ZM208.99 63.0451L209.137 63.6264L209.137 63.6264L208.99 63.0451ZM200.164 63.9479L200.205 63.3488L200.119 64.5466L200.164 63.9479ZM211.247 80.3681L210.667 80.2203L210.339 81.4912L211.513 80.905L211.247 80.3681ZM212.16 79.9009L211.884 79.3692L211.883 79.3696L212.16 79.9009ZM212.313 79.821L212.038 79.2887L212.038 79.2887L212.313 79.821ZM212.616 79.6623L212.336 79.1327L212.335 79.1328L212.616 79.6623ZM214.097 78.8469L214.393 79.3683L214.396 79.3662L214.097 78.8469ZM214.521 78.6015L214.82 79.1208L214.821 79.1204L214.521 78.6015ZM215.656 77.922L215.97 78.4326L215.97 78.4323L215.656 77.922ZM215.832 77.8145L216.142 78.3271L216.142 78.3271L215.832 77.8145ZM216.085 77.6586L216.403 78.1661L216.404 78.1656L216.085 77.6586ZM217.421 76.7898L217.753 77.2883L217.758 77.2851L217.421 76.7898ZM217.63 76.6466L217.29 76.1529L217.29 76.1529L217.63 76.6466ZM217.838 76.5034L218.174 76.9987L218.175 76.9985L217.838 76.5034ZM218.836 75.7939L218.485 75.3089L218.484 75.3095L218.836 75.7939ZM218.939 75.7192L219.289 76.2051L219.289 76.2051L218.939 75.7192ZM219.228 75.5067L218.871 75.0264L218.868 75.0284L219.228 75.5067ZM220.416 74.5882L220.788 75.0576L220.788 75.0573L220.416 74.5882ZM220.659 74.3901L220.279 73.9276L220.279 73.9276L220.659 74.3901ZM220.805 74.2701L221.183 74.7351L221.185 74.7329L220.805 74.2701ZM221.681 73.5255L222.077 73.9747L222.077 73.9741L221.681 73.5255ZM221.807 73.4162L222.196 73.8713L222.196 73.8713L221.807 73.4162ZM222.021 73.2267L221.622 72.7802L221.616 72.7856L221.61 72.7912L222.021 73.2267ZM223.057 72.2625L223.47 72.6955L223.473 72.6926L223.057 72.2625ZM223.405 71.9175L222.983 71.4933L222.982 71.4943L223.405 71.9175ZM224.164 71.1337L223.728 70.7234L223.725 70.7263L224.164 71.1337ZM224.265 71.0277L224.698 71.4409L224.265 71.0277ZM224.446 70.8344L224.889 71.2375L224.903 71.2216L224.916 71.2048L224.446 70.8344ZM224.466 70.813L224.045 70.3867L224.045 70.3868L224.466 70.813ZM224.486 70.7917L224.044 70.388L224.029 70.4042L224.015 70.4213L224.486 70.7917ZM225.327 69.8178L224.868 69.4332L224.863 69.4394L225.327 69.8178ZM225.627 69.444L226.097 69.8144L226.099 69.8128L225.627 69.444ZM225.628 69.4433L225.163 69.066L225.156 69.0745L225.628 69.4433ZM226.236 68.6553L225.759 68.293L225.755 68.299L226.236 68.6553ZM226.492 68.3101L226.975 68.664L226.979 68.6589L226.492 68.3101ZM227.211 67.2488L226.71 66.9211L226.707 66.9263L227.211 67.2488ZM227.345 67.0344L227.857 67.3455L227.857 67.3455L227.345 67.0344ZM227.43 66.8974L227.937 67.2155L227.941 67.2094L227.43 66.8974ZM227.923 66.0561L227.403 65.7587L227.4 65.7649L227.923 66.0561ZM228.118 65.7073L228.644 65.9937L228.647 65.9868L228.118 65.7073ZM228.668 64.5953L229.214 64.8399L229.215 64.8377L228.668 64.5953ZM228.732 64.4454L229.284 64.676L229.284 64.676L228.732 64.4454ZM228.796 64.2956L229.343 64.5381L229.346 64.5323L228.796 64.2956ZM229.166 63.381L228.605 63.1708L228.604 63.1726L229.166 63.381ZM229.293 63.0397L229.856 63.2429L229.858 63.2386L229.293 63.0397ZM229.657 61.8821L230.236 62.0374L230.238 62.0288L229.657 61.8821ZM229.684 61.7695L230.268 61.9041L230.268 61.9041L229.684 61.7695ZM229.711 61.6568L229.131 61.5071L229.131 61.5101L229.711 61.6568ZM229.935 60.654L229.347 60.5373L229.346 60.5464L229.935 60.654ZM229.996 60.3237L230.586 60.4233L230.587 60.4208L229.996 60.3237ZM230.157 59.1225L230.754 59.1772L230.755 59.1653L230.756 59.1533L230.157 59.1225ZM230.164 58.993L229.566 58.9486L229.565 58.959L229.565 58.9695L230.164 58.993ZM230.21 57.8881L229.61 57.879L229.61 57.8881L230.21 57.8881ZM230.21 57.597L229.61 57.6049L229.61 57.6049L230.21 57.597ZM230.21 57.568L230.809 57.5601L230.809 57.5563L230.21 57.568ZM230.147 56.3395L229.55 56.4004L229.55 56.4008L230.147 56.3395ZM228.715 51.6449C222.16 57.1121 214.903 60.9001 208.842 62.4639L209.137 63.6264C215.401 62.0102 222.815 58.1255 229.48 52.5659L228.715 51.6449ZM208.842 62.4639C205.676 63.2802 202.799 63.5169 200.205 63.3488L200.123 64.5469C202.849 64.7235 205.852 64.4731 209.137 63.6264L208.842 62.4639ZM200.119 64.5466C204.022 64.8226 207.283 66.2726 209.252 68.8307C211.212 71.3775 211.979 75.1357 210.667 80.2203L211.828 80.5159C213.205 75.1792 212.448 71.0114 210.203 68.0955C207.968 65.1909 204.342 63.6413 200.209 63.3491L200.119 64.5466ZM211.513 80.905C211.824 80.7501 212.131 80.5929 212.437 80.4321L211.883 79.3696C211.585 79.5261 211.285 79.6795 210.982 79.8311L211.513 80.905ZM212.436 80.4325C212.487 80.4063 212.537 80.38 212.588 80.3533L212.038 79.2887C211.987 79.3153 211.935 79.3423 211.884 79.3692L212.436 80.4325ZM212.588 80.3533C212.69 80.3005 212.794 80.2462 212.896 80.1919L212.335 79.1328C212.24 79.1838 212.141 79.2354 212.038 79.2887L212.588 80.3533ZM212.896 80.192C213.403 79.9214 213.901 79.6482 214.393 79.3683L213.802 78.3256C213.323 78.599 212.835 78.8668 212.336 79.1327L212.896 80.192ZM214.396 79.3662L214.82 79.1208L214.223 78.0822L213.799 78.3276L214.396 79.3662ZM214.821 79.1204C215.211 78.8939 215.594 78.6646 215.97 78.4326L215.343 77.4115C214.977 77.6378 214.603 77.8614 214.222 78.0826L214.821 79.1204ZM215.97 78.4323C216.026 78.3974 216.083 78.3629 216.142 78.3271L215.522 77.3019C215.464 77.3372 215.403 77.3741 215.342 77.4118L215.97 78.4323ZM216.142 78.3271C216.226 78.2758 216.315 78.2217 216.403 78.1661L215.767 77.1512C215.688 77.2007 215.608 77.2497 215.522 77.3019L216.142 78.3271ZM216.404 78.1656C216.862 77.8762 217.313 77.5836 217.753 77.2882L217.089 76.2913C216.658 76.5801 216.216 76.867 215.766 77.1516L216.404 78.1656ZM217.758 77.2851C217.829 77.2363 217.9 77.1878 217.969 77.1403L217.29 76.1529C217.221 76.2007 217.153 76.2476 217.085 76.2945L217.758 77.2851ZM217.969 77.1403C218.038 77.0924 218.106 77.0455 218.174 76.9987L217.501 76.0081C217.43 76.0568 217.359 76.1053 217.29 76.1529L217.969 77.1403ZM218.175 76.9985C218.522 76.7609 218.86 76.5181 219.188 76.2782L218.484 75.3095C218.161 75.5458 217.834 75.7805 217.501 76.0083L218.175 76.9985ZM219.188 76.2788C219.221 76.2545 219.255 76.2301 219.289 76.2051L218.589 75.2333C218.555 75.2582 218.52 75.2835 218.485 75.3089L219.188 76.2788ZM219.289 76.2051C219.385 76.1358 219.488 76.0616 219.589 75.985L218.868 75.0284C218.779 75.096 218.687 75.1628 218.589 75.2333L219.289 76.2051ZM219.586 75.987C219.996 75.6801 220.398 75.3678 220.788 75.0576L220.044 74.1188C219.661 74.4236 219.269 74.7284 218.871 75.0264L219.586 75.987ZM220.788 75.0573C220.875 74.9881 220.96 74.9182 221.04 74.8525L220.279 73.9276C220.198 73.9943 220.121 74.0576 220.044 74.1191L220.788 75.0573ZM221.04 74.8525C221.089 74.8121 221.136 74.7732 221.183 74.7351L220.428 73.8051C220.377 73.8462 220.327 73.8876 220.279 73.9276L221.04 74.8525ZM221.185 74.7329C221.487 74.4845 221.786 74.2314 222.077 73.9747L221.285 73.0764C221.008 73.3212 220.719 73.5649 220.425 73.8073L221.185 74.7329ZM222.077 73.9741C222.114 73.9413 222.153 73.9082 222.196 73.8713L221.418 72.9612C221.376 72.997 221.33 73.0365 221.284 73.0769L222.077 73.9741ZM222.196 73.8713C222.266 73.8107 222.351 73.7388 222.431 73.6623L221.61 72.7912C221.554 72.8442 221.492 72.8972 221.418 72.9612L222.196 73.8713ZM222.419 73.6733C222.781 73.3492 223.131 73.0205 223.47 72.6955L222.643 71.8295C222.308 72.1501 221.97 72.4686 221.622 72.7802L222.419 73.6733ZM223.473 72.6926C223.594 72.5751 223.711 72.4588 223.829 72.3406L222.982 71.4943C222.865 71.611 222.754 71.7218 222.64 71.8324L223.473 72.6926ZM223.828 72.3416C224.09 72.0796 224.351 71.8123 224.603 71.5411L223.725 70.7263C223.488 70.9827 223.238 71.2384 222.983 71.4933L223.828 72.3416ZM224.6 71.544C224.632 71.51 224.664 71.4762 224.698 71.4409L223.831 70.6145C223.798 70.6493 223.763 70.686 223.728 70.7234L224.6 71.544ZM224.698 71.4409C224.758 71.3774 224.824 71.3086 224.889 71.2375L224.003 70.4313C223.949 70.4904 223.893 70.5493 223.831 70.6145L224.698 71.4409ZM224.916 71.2048C224.904 71.2203 224.894 71.2313 224.889 71.2364C224.885 71.2407 224.882 71.2438 224.886 71.2393L224.045 70.3868C224.043 70.389 224.009 70.4219 223.976 70.464L224.916 71.2048ZM224.886 71.2393C224.889 71.237 224.923 71.2042 224.956 71.1621L224.015 70.4213C224.028 70.4058 224.038 70.3948 224.043 70.3897C224.047 70.3853 224.05 70.3822 224.045 70.3867L224.886 71.2393ZM224.928 71.1953C225.228 70.866 225.515 70.5342 225.79 70.1962L224.863 69.4394C224.601 69.7596 224.329 70.0745 224.044 70.388L224.928 71.1953ZM225.785 70.2023C225.895 70.0716 225.999 69.9388 226.097 69.8144L225.157 69.0736C225.057 69.2004 224.963 69.3189 224.868 69.4333L225.785 70.2023ZM226.099 69.8128L226.099 69.8121L225.156 69.0745L225.155 69.0752L226.099 69.8128ZM226.093 69.8205C226.311 69.5515 226.517 69.2817 226.717 69.0116L225.755 68.299C225.561 68.5598 225.366 68.8149 225.163 69.0661L226.093 69.8205ZM226.713 69.0176C226.803 68.8989 226.892 68.7775 226.975 68.664L226.009 67.9562C225.926 68.0701 225.842 68.1836 225.759 68.293L226.713 69.0176ZM226.979 68.6589C227.238 68.2979 227.483 67.9354 227.716 67.5713L226.707 66.9263C226.484 67.2742 226.251 67.619 226.006 67.9613L226.979 68.6589ZM227.712 67.5766C227.765 67.4961 227.814 67.4157 227.857 67.3455L226.834 66.7233C226.789 66.7963 226.75 66.8598 226.71 66.9211L227.712 67.5766ZM227.857 67.3455C227.885 67.299 227.911 67.2567 227.937 67.2155L226.922 66.5794C226.891 66.6288 226.861 66.6781 226.834 66.7234L227.857 67.3455ZM227.941 67.2094C228.115 66.9237 228.284 66.6374 228.446 66.3473L227.4 65.7649C227.247 66.0388 227.086 66.3111 226.919 66.5855L227.941 67.2094ZM228.443 66.3535C228.512 66.2332 228.58 66.1104 228.644 65.9937L227.592 65.421C227.53 65.534 227.467 65.6486 227.403 65.7587L228.443 66.3535ZM228.647 65.9868C228.847 65.6103 229.039 65.2294 229.214 64.8399L228.121 64.3506C227.96 64.7085 227.78 65.0648 227.588 65.4279L228.647 65.9868ZM229.215 64.8377C229.24 64.7814 229.264 64.7252 229.284 64.676L228.179 64.2149C228.157 64.2661 228.139 64.3103 228.12 64.3528L229.215 64.8377ZM229.284 64.676C229.306 64.6248 229.325 64.5806 229.343 64.5381L228.248 64.0532C228.223 64.1095 228.2 64.1657 228.179 64.2149L229.284 64.676ZM229.346 64.5323C229.481 64.2204 229.609 63.9048 229.727 63.5894L228.604 63.1726C228.494 63.4672 228.373 63.7639 228.246 64.059L229.346 64.5323ZM229.726 63.5913C229.769 63.4792 229.813 63.3631 229.856 63.2429L228.729 62.8366C228.689 62.9485 228.647 63.0577 228.605 63.1708L229.726 63.5913ZM229.858 63.2386C229.999 62.8419 230.126 62.4413 230.236 62.0374L229.078 61.7269C228.978 62.0981 228.86 62.4695 228.728 62.8409L229.858 63.2386ZM230.238 62.0288C230.249 61.9842 230.26 61.9407 230.268 61.9041L229.1 61.6349C229.091 61.6734 229.084 61.7048 229.076 61.7355L230.238 62.0288ZM230.268 61.9041C230.277 61.8656 230.284 61.8341 230.292 61.8035L229.131 61.5101C229.119 61.5548 229.109 61.5983 229.1 61.6349L230.268 61.9041ZM230.292 61.8066C230.383 61.4588 230.459 61.1129 230.525 60.7616L229.346 60.5464C229.285 60.8704 229.215 61.1882 229.131 61.5071L230.292 61.8066ZM230.523 60.7708C230.547 60.6505 230.568 60.532 230.586 60.4233L229.405 60.2241C229.385 60.3354 229.368 60.4369 229.347 60.5373L230.523 60.7708ZM230.587 60.4208C230.655 60.0133 230.714 59.5992 230.754 59.1772L229.56 59.0678C229.523 59.4548 229.469 59.8397 229.404 60.2266L230.587 60.4208ZM230.756 59.1533C230.758 59.1119 230.761 59.0662 230.763 59.0164L229.565 58.9695C229.563 59.0106 229.561 59.049 229.558 59.0916L230.756 59.1533ZM230.762 59.0374C230.792 58.6542 230.808 58.2723 230.809 57.8881L229.61 57.8881C229.609 58.2421 229.594 58.5944 229.566 58.9486L230.762 59.0374ZM230.809 57.8973C230.811 57.7892 230.81 57.683 230.81 57.5891L229.61 57.6049C229.611 57.7015 229.612 57.7908 229.61 57.879L230.809 57.8973ZM230.81 57.5892L230.809 57.5601L229.61 57.5758L229.61 57.6049L230.81 57.5892ZM230.809 57.5563C230.803 57.137 230.786 56.7102 230.744 56.2781L229.55 56.4008C229.588 56.788 229.604 57.179 229.61 57.5796L230.809 57.5563ZM230.744 56.2786C230.595 54.7556 230.225 53.2857 229.653 51.8773L228.542 52.3335C229.072 53.6385 229.413 54.996 229.55 56.4004L230.744 56.2786Z" fill="#202124"/>
<path d="M204.388 95.1949C217.37 87.4297 227.062 67.4428 225.096 53.0794C224.602 49.4588 223.136 43.5452 220.952 39.4059L238.232 29.7769L276.693 101.747L259.413 111.376C257.186 107.261 253.108 102.802 250.393 100.416C239.625 90.9529 217.91 88.4389 204.485 95.3736" fill="url(#paint3_linear_7917_17251)"/>
<path d="M204.388 95.1949C217.37 87.4297 227.062 67.4428 225.096 53.0794C224.602 49.4588 223.136 43.5452 220.952 39.4059L238.232 29.7769L276.693 101.747L259.413 111.376C257.186 107.261 253.108 102.802 250.393 100.416C239.625 90.9529 217.91 88.4389 204.485 95.3736" stroke="#202124" stroke-width="1.2" stroke-miterlimit="10"/>
<path d="M213.796 90.1249C227.146 82.6778 247.43 86.1961 258.41 95.8449C261.126 98.2303 265.203 102.69 267.43 106.805L276.492 101.792L238.092 29.941L228.968 34.8367C231.152 38.9759 232.618 44.8896 233.112 48.5102C235.115 63.1554 227.161 82.7058 213.796 90.1249Z" stroke="#202124" stroke-width="1.2" stroke-miterlimit="10"/>
<path d="M285.129 50.6381L285.862 50.2194C272.487 57.5785 256.52 51.9322 246.433 41.3949C243.2 38.0155 240.525 34.1242 238.312 29.9842C245.402 43.3798 247.317 61.6728 237.573 74.3579C235.213 77.4294 232.193 79.8759 228.844 81.7414C242.263 74.3558 258.301 79.9349 268.446 90.5249C271.679 93.9005 274.247 97.5946 276.457 101.733C269.486 88.5648 267.6 70.9571 276.753 58.2371C278.989 55.1299 281.871 52.5744 285.132 50.6399L285.129 50.6381Z" fill="#EEEEEE" stroke="#202124" stroke-width="1.2" stroke-miterlimit="10"/>
<path d="M242.37 41.1889L224.85 50.9399" stroke="#202124" stroke-width="1.2" stroke-miterlimit="10"/>
<path d="M243.937 52.9975L224.721 63.6906" stroke="#202124" stroke-width="1.2" stroke-miterlimit="10"/>
<path d="M242.117 65.3472L219.881 77.7213" stroke="#202124" stroke-width="1.2" stroke-miterlimit="10"/>
<path d="M269.561 92.0627L252.039 101.814" stroke="#202124" stroke-width="1.2" stroke-miterlimit="10"/>
<path d="M260.679 84.3247L241.463 95.0178" stroke="#202124" stroke-width="1.2" stroke-miterlimit="10"/>
<path d="M249.52 79.2L227.284 91.5741" stroke="#202124" stroke-width="1.2" stroke-miterlimit="10"/>
<path d="M230.095 81.0419L204.914 95.0553" stroke="#202124" stroke-width="1.2" stroke-miterlimit="10"/>
<path fill-rule="evenodd" clip-rule="evenodd" d="M179.046 53.5843C183.09 50.3989 185.206 46.9306 184.45 43.9115C182.916 37.7874 170.143 35.8308 155.921 39.5412C141.699 43.2516 131.414 51.2239 132.948 57.3479C134.483 63.4719 147.256 65.4285 161.477 61.7182C163.611 61.1615 165.656 60.509 167.586 59.7811C169.343 56.7531 173.702 54.2838 179.046 53.5843Z" fill="#202124"/>
<path d="M168.392 25.4102C167.871 22.3448 166.87 19.5864 165.387 17.139C162.828 12.9114 158.668 10.8855 154.421 8.89858C150.384 7.01189 146.083 4.8817 141.681 4.09387C139.019 4.22688 121.649 54.3632 121.649 54.3632C121.649 54.3632 126.584 56.4361 130.136 57.7253C132.665 58.6441 134.73 59.5711 137.127 60.6249C139.687 61.7504 141.99 62.5321 144.652 62.3991C147.314 62.266 149.921 61.5212 152.465 60.1665C155.012 58.8098 157.414 56.8863 159.679 54.396C161.944 51.9036 163.854 48.961 165.411 45.5642C166.967 42.1673 167.983 38.7254 168.458 35.2385C168.933 31.7516 168.911 28.4735 168.39 25.4102H168.392Z" fill="url(#paint4_linear_7917_17251)" stroke="#202124" stroke-width="1.2" stroke-miterlimit="10"/>
<path d="M160.529 21.732C160.005 18.666 158.996 15.9069 157.503 13.459C156.012 11.0111 154.079 9.12807 151.708 7.81201C149.335 6.49594 141.715 3.60183 139.033 3.73282C136.352 3.86586 116.664 46.5571 118.157 49.0051C119.65 51.453 121.563 53.8825 123.936 55.1986C126.235 56.3509 127.099 56.4921 129.512 57.5462C132.09 58.6719 133.947 58.8643 136.627 58.7313C139.308 58.5982 141.932 57.8532 144.494 56.4982C147.058 55.1412 149.477 53.2173 151.758 50.7264C154.039 48.2334 155.962 45.2902 157.529 41.8926C159.096 38.495 160.119 35.0523 160.597 31.5646C161.076 28.077 161.054 24.798 160.527 21.732H160.529Z" stroke="#202124" stroke-width="1.2" stroke-miterlimit="10"/>
<path d="M151.957 18.7478C151.434 15.6746 150.426 12.909 148.937 10.4554C147.446 8.00168 145.517 6.11423 143.146 4.79507C140.778 3.47591 138.253 2.88506 135.576 3.01841C132.898 3.15177 130.279 3.89649 127.718 5.25463C125.157 6.61482 122.739 8.54329 120.46 11.0401C118.184 13.5368 116.264 16.489 114.698 19.8926C113.133 23.2982 112.111 26.7489 111.633 30.2448C111.154 33.7407 111.178 37.0273 111.702 40.1026C112.225 43.1759 113.233 45.9414 114.724 48.3951C116.216 50.8487 118.144 52.7362 120.515 54.0554C122.883 55.3745 125.406 55.9674 128.083 55.8341C130.761 55.7007 133.382 54.956 135.941 53.5958C138.502 52.2356 140.919 50.3071 143.197 47.8104C145.475 45.3116 147.395 42.3614 148.961 38.9558C150.526 35.5502 151.548 32.0994 152.026 28.6036C152.503 25.1077 152.481 21.8211 151.955 18.7478H151.957Z" fill="#EEEEEE" stroke="#202124" stroke-width="1.2" stroke-miterlimit="10"/>
<path d="M144.444 23.7404C143.729 27.0227 142.676 30.3948 141.283 33.8649C139.891 37.333 138.344 40.4315 136.612 43.2403C134.879 46.051 133.121 48.3842 131.335 50.2376C129.551 52.091 127.808 53.3995 126.113 54.1608C124.417 54.9202 122.894 54.9426 121.561 54.3037C120.241 53.673 119.269 52.4564 118.626 50.5764C117.983 48.6965 117.683 46.4103 117.723 43.722C117.764 41.0337 118.143 38.0413 118.863 34.7447C119.582 31.4501 120.633 28.0842 122.015 24.6427C123.398 21.2011 124.967 18.0434 126.695 15.2448C128.423 12.4484 130.18 10.1234 131.964 8.26793C133.75 6.41245 135.492 5.10606 137.194 4.34877C138.896 3.59147 140.407 3.52616 141.729 4.16098C143.062 4.79784 144.044 6.05728 144.681 7.93112C145.318 9.80905 145.618 12.0911 145.577 14.7815C145.537 17.4698 145.159 20.4581 144.446 23.7363H144.442L144.444 23.7404Z" stroke="#202124" stroke-width="1.2" stroke-miterlimit="10"/>
<path d="M118.792 13.206L152.011 27.786" stroke="#202124" stroke-width="1.2" stroke-miterlimit="10"/>
<path d="M111.648 29.6076L145.224 44.9166" stroke="#202124" stroke-width="1.2" stroke-miterlimit="10"/>
<path d="M141.652 4.09387L121.649 54.3948" stroke="#202124" stroke-width="1.2" stroke-miterlimit="10"/>
<path d="M152.01 28.1512L168.441 35.0767" stroke="#202124" stroke-width="1.2" stroke-miterlimit="10"/>
<path d="M149.867 11.748L166.298 19.038" stroke="#202124" stroke-width="1.2" stroke-miterlimit="10"/>
<path d="M134.151 54.3938L150.582 61.3193" stroke="#202124" stroke-width="1.2" stroke-miterlimit="10"/>
<path d="M145.223 44.9178L161.654 52.2078" stroke="#202124" stroke-width="1.2" stroke-miterlimit="10"/>
<path d="M0 159L360 159" stroke="#202124" stroke-width="1.2" stroke-miterlimit="10"/>
</g>
<defs>
<linearGradient id="paint0_linear_7917_17251" x1="76.7408" y1="136.701" x2="244.801" y2="136.701" gradientUnits="userSpaceOnUse">
<stop stop-color="#5382EB"/>
<stop offset="0.25" stop-color="#5382EB"/>
<stop offset="0.52" stop-color="#9F6CD4"/>
<stop offset="0.82" stop-color="#EA4335"/>
<stop offset="1" stop-color="#EA4335"/>
</linearGradient>
<linearGradient id="paint1_linear_7917_17251" x1="122.493" y1="69.0809" x2="204.665" y2="116.594" gradientUnits="userSpaceOnUse">
<stop stop-color="#FFCB32"/>
<stop offset="0.18" stop-color="#FFCB32"/>
<stop offset="0.53" stop-color="#F46831"/>
<stop offset="0.79" stop-color="#EA4335"/>
<stop offset="1" stop-color="#EA4335"/>
</linearGradient>
<linearGradient id="paint2_linear_7917_17251" x1="166.731" y1="63.2061" x2="194.244" y2="60.5231" gradientUnits="userSpaceOnUse">
<stop stop-color="#FFCB32"/>
<stop offset="0.18" stop-color="#FFCB32"/>
<stop offset="0.53" stop-color="#F46831"/>
<stop offset="0.79" stop-color="#EA4335"/>
<stop offset="1" stop-color="#EA4335"/>
</linearGradient>
<linearGradient id="paint3_linear_7917_17251" x1="230.312" y1="48.0921" x2="264.885" y2="96.4031" gradientUnits="userSpaceOnUse">
<stop stop-color="#FFCB32"/>
<stop offset="0.24" stop-color="#FFCB32"/>
<stop offset="0.76" stop-color="#34A853"/>
<stop offset="1" stop-color="#34A853"/>
</linearGradient>
<linearGradient id="paint4_linear_7917_17251" x1="134.578" y1="55.7097" x2="160.379" y2="15.7643" gradientUnits="userSpaceOnUse">
<stop stop-color="#4285F4"/>
<stop offset="0.27" stop-color="#4285F4"/>
<stop offset="0.75" stop-color="#34A853"/>
<stop offset="1" stop-color="#34A853"/>
</linearGradient>
<clipPath id="clip0_7917_17251">
<rect width="360" height="159" fill="white"/>
</clipPath>
</defs>
</svg>
