<svg width="860" height="454" viewBox="0 0 860 454" fill="none" xmlns="http://www.w3.org/2000/svg">
<path d="M838.489 452.203H21.0719C9.98689 452.203 1 443.216 1 432.131V404.809H858.561V432.131C858.56 443.216 849.574 452.203 838.489 452.203Z" fill="#EEEEEE" stroke="#202124" stroke-width="2" stroke-miterlimit="10"/>
<path d="M755.764 404.809H103.796V28.1866C103.796 13.1726 115.969 1 130.983 1H728.577C743.591 1 755.764 13.171 755.764 28.1866V404.809Z" fill="#EEEEEE" stroke="#202124" stroke-width="2" stroke-miterlimit="10"/>
<path d="M730.732 28.2236H131.049V372.229H730.732V28.2236Z" fill="#202124" stroke="#202124" stroke-width="1.5" stroke-miterlimit="10"/>
<mask id="mask0_454_479" style="mask-type:alpha" maskUnits="userSpaceOnUse" x="130" y="27" width="602" height="346">
<path d="M730.732 28.2236H131.049V372.229H730.732V28.2236Z" fill="#202124" stroke="#202124" stroke-width="1.5" stroke-miterlimit="10"/>
</mask>
<g mask="url(#mask0_454_479)">
<path d="M794.896 49.4707H66.8965" stroke="#EEEEEE" stroke-width="0.5" stroke-miterlimit="10" stroke-linecap="round" stroke-linejoin="round"/>
<path d="M794.896 92.2949H66.8965" stroke="#EEEEEE" stroke-width="0.5" stroke-miterlimit="10" stroke-linecap="round" stroke-linejoin="round"/>
<path d="M794.896 135.118H66.8965" stroke="#EEEEEE" stroke-width="0.5" stroke-miterlimit="10" stroke-linecap="round" stroke-linejoin="round"/>
<path d="M794.896 177.942H66.8965" stroke="#EEEEEE" stroke-width="0.5" stroke-miterlimit="10" stroke-linecap="round" stroke-linejoin="round"/>
<path d="M794.896 220.765H66.8965" stroke="#EEEEEE" stroke-width="0.5" stroke-miterlimit="10" stroke-linecap="round" stroke-linejoin="round"/>
<path d="M794.896 263.589H66.8965" stroke="#EEEEEE" stroke-width="0.5" stroke-miterlimit="10" stroke-linecap="round" stroke-linejoin="round"/>
<path d="M794.896 306.413H66.8965" stroke="#EEEEEE" stroke-width="0.5" stroke-miterlimit="10" stroke-linecap="round" stroke-linejoin="round"/>
<path d="M794.896 349.235H66.8965" stroke="#EEEEEE" stroke-width="0.5" stroke-miterlimit="10" stroke-linecap="round" stroke-linejoin="round"/>
<path d="M709.251 649V-79" stroke="#EEEEEE" stroke-width="0.5" stroke-miterlimit="10" stroke-linecap="round" stroke-linejoin="round"/>
<path d="M666.426 649V-79" stroke="#EEEEEE" stroke-width="0.5" stroke-miterlimit="10" stroke-linecap="round" stroke-linejoin="round"/>
<path d="M623.602 649V-79" stroke="#EEEEEE" stroke-width="0.5" stroke-miterlimit="10" stroke-linecap="round" stroke-linejoin="round"/>
<path d="M580.78 649V-79" stroke="#EEEEEE" stroke-width="0.5" stroke-miterlimit="10" stroke-linecap="round" stroke-linejoin="round"/>
<path d="M537.956 649V-79" stroke="#EEEEEE" stroke-width="0.5" stroke-miterlimit="10" stroke-linecap="round" stroke-linejoin="round"/>
<path d="M495.131 649V-79" stroke="#EEEEEE" stroke-width="0.5" stroke-miterlimit="10" stroke-linecap="round" stroke-linejoin="round"/>
<path d="M452.31 649V-79" stroke="#EEEEEE" stroke-width="0.5" stroke-miterlimit="10" stroke-linecap="round" stroke-linejoin="round"/>
<path d="M409.486 649V-79" stroke="#EEEEEE" stroke-width="0.5" stroke-miterlimit="10" stroke-linecap="round" stroke-linejoin="round"/>
<path d="M366.662 649V-79" stroke="#EEEEEE" stroke-width="0.5" stroke-miterlimit="10" stroke-linecap="round" stroke-linejoin="round"/>
<path d="M323.839 649V-79" stroke="#EEEEEE" stroke-width="0.5" stroke-miterlimit="10" stroke-linecap="round" stroke-linejoin="round"/>
<path d="M281.015 649V-79" stroke="#EEEEEE" stroke-width="0.5" stroke-miterlimit="10" stroke-linecap="round" stroke-linejoin="round"/>
<path d="M238.19 649V-79" stroke="#EEEEEE" stroke-width="0.5" stroke-miterlimit="10" stroke-linecap="round" stroke-linejoin="round"/>
<path d="M195.366 649V-79" stroke="#EEEEEE" stroke-width="0.5" stroke-miterlimit="10" stroke-linecap="round" stroke-linejoin="round"/>
<path d="M152.545 649V-79" stroke="#EEEEEE" stroke-width="0.5" stroke-miterlimit="10" stroke-linecap="round" stroke-linejoin="round"/>
</g>
<path d="M308.596 298.702H278.51V370.574H308.596V298.702Z" fill="white"/>
<path d="M597.756 307.06H540.927V370.574H597.756V307.06Z" fill="white"/>
<path d="M685.178 354.113H675.106C675.106 354.113 665.686 350.923 665.686 346.112H666.395H693.889H694.598C694.598 350.923 685.178 354.113 685.178 354.113Z" fill="white"/>
<path d="M415.246 211.208H402.81V342.979H415.246V211.208Z" fill="white"/>
<path d="M251.767 352.188H189.924V370.573H251.767V352.188Z" fill="white"/>
<path d="M250.373 330.91H192.522V350.111H250.373V330.91Z" fill="white"/>
<path d="M240.029 318.807H202.867V328.405H240.029V318.807Z" fill="white"/>
<path d="M700.447 334.587H659.837V346.113H700.447V334.587Z" fill="white"/>
<path d="M425.734 170.003H413.298V183.856H425.734V170.003Z" fill="white"/>
<path d="M224.696 296.568H218.171L221.432 292.911L224.696 296.568ZM245.301 300.862C245.301 300.862 245.068 306.749 239.013 306.749C232.957 306.749 221.433 306.749 221.433 306.749C221.433 306.749 209.906 306.749 203.851 306.749C197.798 306.749 197.563 300.862 197.563 300.862C203.839 305.581 218.17 296.568 218.17 296.568H224.695C224.696 296.568 239.027 305.581 245.301 300.862ZM235.903 313.983H206.962V306.748H235.903V313.983ZM202.831 318.805V328.452H240.028V318.805H202.831ZM221.43 326.04C220.104 326.04 219.019 324.962 219.019 323.629C219.019 322.295 220.104 321.217 221.43 321.217C222.764 321.217 223.842 322.295 223.842 323.629C223.842 324.962 222.764 326.04 221.43 326.04ZM192.489 330.864V350.157H197.731V341.27C197.731 339.723 198.98 338.475 200.526 338.475H202.725C204.271 338.475 205.519 339.723 205.519 341.27V350.157H217.535V341.27C217.535 339.723 218.791 338.475 220.33 338.475H222.529C224.075 338.475 225.323 339.723 225.323 341.27V350.157H237.339V341.27C237.339 339.723 238.594 338.475 240.14 338.475H242.332C243.879 338.475 245.135 339.723 245.135 341.27V350.157H250.369V330.864H192.489ZM190.525 352.569V371.862H197.732V362.712C197.732 361.166 198.98 359.917 200.526 359.917H202.725C204.272 359.917 205.52 361.166 205.52 362.712V371.862H217.536V362.712C217.536 361.166 218.791 359.917 220.33 359.917H222.529C224.075 359.917 225.323 361.166 225.323 362.712V371.862H237.339V362.712C237.339 361.166 238.595 359.917 240.141 359.917H242.333C243.879 359.917 245.135 361.166 245.135 362.712V371.862H252.342V352.569H190.525ZM251.579 330.866H191.285V328.454H251.579V330.866ZM253.388 352.572H189.477V350.16H253.388V352.572ZM242.888 318.807H199.977L205.524 313.983H237.341L242.888 318.807ZM191.285 328.454H194.3V325.439H191.285V328.454ZM209.977 328.454H212.992V325.439H209.977V328.454ZM229.873 328.454H232.888V325.439H229.873V328.454ZM248.564 325.439V328.454H251.579V325.439H248.564ZM209.977 350.16H212.992V347.145H209.977V350.16ZM229.873 350.16H232.888V347.145H229.873V350.16ZM189.477 350.16H192.492V347.145H189.477V350.16ZM250.373 347.145V350.16H253.388V347.145H250.373ZM197.731 334.743H205.521ZM217.537 334.743H225.327ZM237.344 334.743H245.134ZM197.746 356.048H205.537ZM217.553 356.048H225.343ZM237.358 356.048H245.149ZM320.923 334.339H267.149V328.844H320.923V334.339ZM267.149 334.339V328.844ZM281.815 328.844V334.339ZM272.038 328.844V334.339ZM276.926 328.844V334.339ZM286.704 328.844V334.339ZM291.592 328.844V334.339ZM296.481 328.844V334.339ZM301.369 328.844V334.339ZM306.258 328.844V334.339ZM311.146 328.844V334.339ZM316.035 328.844V334.339ZM320.923 328.844V334.339ZM265.366 338.997V334.339H322.707V338.997H265.366ZM321.96 286.273C321.96 286.273 321.688 291.52 314.604 291.52C307.52 291.52 294.038 291.52 294.038 291.52C294.038 291.52 280.553 291.52 273.469 291.52C266.387 291.52 266.112 286.273 266.112 286.273C273.455 291.63 279.183 278.815 279.183 278.815H308.891C308.891 278.815 314.62 291.63 321.96 286.273ZM279.096 328.848H273.072V298.967H279.096V328.848ZM315.001 328.848H308.977V298.967H315.001V328.848ZM279.096 371.866H267.15V338.997H279.096V371.866ZM320.923 371.866H308.977V338.997H320.923V371.866ZM327.591 292.285C327.591 292.285 327.264 298.967 318.752 298.967C310.239 298.967 294.038 298.967 294.038 298.967C294.038 298.967 277.834 298.967 269.321 298.967C260.811 298.967 260.481 292.285 260.481 292.285C269.304 297.642 273.319 291.521 273.319 291.521H314.756C314.756 291.52 318.771 297.642 327.591 292.285ZM308.975 298.973H307.216L299.903 306.286H299.896L299.888 306.293C299.591 306.059 299.278 305.839 298.952 305.648C298.839 305.584 298.732 305.52 298.619 305.456C298.605 305.449 298.583 305.435 298.562 305.428C298.477 305.378 298.385 305.328 298.286 305.286C298.08 305.179 297.867 305.087 297.647 304.995C297.569 304.966 297.498 304.938 297.42 304.91C297.328 304.874 297.228 304.838 297.129 304.803C297.009 304.76 296.888 304.725 296.76 304.689C296.682 304.668 296.605 304.647 296.527 304.619C296.222 304.541 295.917 304.477 295.597 304.42C295.491 304.406 295.391 304.392 295.285 304.378V298.965H292.788V304.378C292.277 304.441 291.781 304.548 291.292 304.697C291.178 304.725 291.064 304.768 290.951 304.803C290.852 304.838 290.753 304.874 290.654 304.91C290.576 304.938 290.504 304.966 290.427 304.995C290.384 305.016 290.341 305.03 290.299 305.051C290.15 305.108 290.015 305.179 289.873 305.243C289.731 305.307 289.597 305.378 289.462 305.456C289.348 305.52 289.235 305.584 289.128 305.648C288.802 305.839 288.49 306.052 288.185 306.293L288.178 306.286L280.857 298.973H279.098V300.732L286.418 308.045V308.052C286.355 308.137 286.291 308.215 286.227 308.3C286.17 308.386 286.106 308.478 286.05 308.563C285.993 308.655 285.929 308.74 285.872 308.832C285.766 309.01 285.659 309.194 285.56 309.372C285.51 309.471 285.468 309.563 285.418 309.655C285.184 310.123 284.993 310.613 284.837 311.117C284.801 311.237 284.765 311.365 284.73 311.493C284.638 311.876 284.56 312.266 284.51 312.663H279.099V315.153H284.51C284.56 315.543 284.638 315.933 284.73 316.316C284.765 316.444 284.801 316.571 284.837 316.692C284.992 317.195 285.184 317.685 285.418 318.153C285.695 318.721 286.036 319.253 286.426 319.763H286.418L279.098 327.084V328.85H280.857L288.178 321.523H288.185C288.44 321.721 288.696 321.899 288.965 322.069C289.142 322.175 289.327 322.282 289.511 322.381C289.589 322.424 289.674 322.466 289.759 322.509C289.958 322.608 290.157 322.701 290.362 322.786C290.455 322.829 290.554 322.864 290.653 322.899C290.852 322.977 291.05 323.041 291.249 323.105C291.369 323.14 291.497 323.176 291.625 323.211C292.008 323.304 292.398 323.382 292.788 323.431V328.843H295.285V323.431C295.682 323.382 296.072 323.303 296.455 323.211C296.576 323.176 296.704 323.14 296.832 323.105C296.853 323.098 296.874 323.091 296.895 323.084C297.045 323.041 297.193 322.984 297.342 322.934C297.371 322.92 297.399 322.913 297.427 322.899C297.519 322.864 297.619 322.828 297.718 322.786C297.881 322.715 298.045 322.644 298.208 322.566C298.264 322.538 298.321 322.51 298.378 322.481C298.534 322.403 298.69 322.318 298.846 322.233C298.938 322.176 299.023 322.126 299.116 322.069C299.201 322.013 299.294 321.956 299.378 321.892C299.47 321.836 299.555 321.772 299.64 321.715C299.726 321.651 299.811 321.587 299.889 321.524H299.896L307.217 328.851H308.976V327.084L301.655 319.764V319.757C301.896 319.444 302.116 319.118 302.322 318.778C302.386 318.665 302.449 318.551 302.513 318.438C302.556 318.352 302.599 318.267 302.641 318.189C302.74 317.984 302.833 317.785 302.918 317.579C303.039 317.296 303.145 316.998 303.238 316.693C303.273 316.572 303.308 316.444 303.344 316.316C303.443 315.934 303.514 315.543 303.564 315.153H308.976V312.664H303.564C303.5 312.146 303.393 311.642 303.244 311.153C303.238 311.118 303.223 311.082 303.216 311.047C303.195 310.975 303.166 310.897 303.145 310.82C303.11 310.72 303.074 310.621 303.039 310.522C303.003 310.437 302.968 310.345 302.932 310.252C302.847 310.054 302.755 309.855 302.655 309.656C302.613 309.564 302.563 309.472 302.513 309.379C302.506 309.358 302.499 309.344 302.485 309.323C302.428 309.216 302.364 309.103 302.3 308.989C302.102 308.67 301.889 308.358 301.655 308.053L308.976 300.733L308.975 298.973ZM301.045 315.152C300.868 316.174 300.47 317.131 299.868 317.983C299.633 318.316 299.371 318.635 299.073 318.933C298.768 319.231 298.449 319.508 298.108 319.742C297.264 320.338 296.3 320.735 295.286 320.913C294.874 320.984 294.463 321.019 294.037 321.019C293.618 321.019 293.2 320.984 292.789 320.913C291.775 320.735 290.81 320.338 289.966 319.742C289.675 319.536 289.398 319.309 289.135 319.061L289.008 318.933C288.71 318.636 288.44 318.316 288.206 317.983C287.61 317.132 287.206 316.174 287.036 315.152C286.958 314.741 286.922 314.329 286.922 313.904C286.922 313.485 286.958 313.067 287.029 312.663C287.206 311.641 287.603 310.684 288.207 309.832C288.44 309.499 288.71 309.173 289.008 308.875C289.306 308.577 289.625 308.308 289.966 308.073C290.81 307.477 291.775 307.073 292.789 306.903C293.2 306.825 293.618 306.79 294.037 306.79C294.463 306.79 294.874 306.825 295.286 306.896C296.3 307.073 297.265 307.471 298.116 308.074C298.457 308.308 298.768 308.577 299.074 308.876C299.371 309.173 299.634 309.493 299.875 309.833C300.471 310.677 300.868 311.642 301.046 312.663C301.117 313.067 301.16 313.486 301.16 313.904C301.158 314.329 301.115 314.741 301.045 315.152ZM659.837 320.501V334.588H700.447V320.501H659.837ZM665.154 329.559V334.496H695.138V329.559H665.154ZM665.154 334.496V329.559V320.501M678.004 329.558V334.496ZM669.438 329.558V334.496ZM673.721 329.558V334.496ZM682.286 329.558V334.496ZM686.569 329.558V334.496ZM690.852 329.558V334.496ZM695.138 334.496V329.559V320.501M666.374 346.112H665.159C666.999 350.162 671.165 353.33 675.39 354.823V353.654C671.771 352.271 668.077 349.558 666.374 346.112ZM693.919 346.112C692.215 349.558 688.572 352.271 684.953 353.654V354.823C689.178 353.331 693.293 350.162 695.134 346.112L693.919 346.112ZM692.975 311.45H667.318L680.145 298.763L692.975 311.45ZM655.855 338.432H658.742V334.588H655.855V338.432ZM659.842 334.588V338.432H675.39V334.588H659.842ZM684.952 338.432H700.45V334.588H684.952V338.432ZM701.543 334.588V338.432H704.437V334.588H701.543ZM655.855 346.114H658.742V342.27H655.855V346.114ZM659.842 342.27V346.114H675.39V342.27H659.842ZM684.952 346.114H700.45V342.27H684.952V346.114ZM701.543 342.27V346.114H704.437V342.27H701.543ZM684.953 334.589V372.085H675.339V334.589H684.953ZM713.086 312.38C713.086 312.38 712.764 320.504 704.408 320.504C696.051 320.504 680.147 320.504 680.147 320.504C680.147 320.504 664.24 320.504 655.882 320.504C647.528 320.504 647.204 312.38 647.204 312.38C655.866 318.893 667.318 311.45 667.318 311.45H692.975C692.976 311.45 704.427 318.893 713.086 312.38ZM680.145 298.763L680.146 296.568ZM687.331 309.208H672.963L680.146 302.103L687.331 309.208ZM700.451 320.501V348.49H701.543V320.501H700.451ZM658.742 320.501V348.49H659.842V320.501H658.742ZM679.597 354.342V334.588H680.695V354.342H679.597ZM494.725 349.547V371.863H565.487V361.719H573.602V371.862H644.371V349.547L494.725 349.547ZM602.008 296.799H537.085V292.741H602.008V296.799ZM607.917 306.943H531.175V304.914H607.917V306.943ZM593.892 292.742H545.201V288.684H593.892V292.742ZM555.344 357.662V371.863H565.487V361.719H573.602V371.862H583.746V357.662L555.344 357.662ZM620.267 349.548H518.826V341.433H620.267V349.548ZM610.123 341.433H528.97V335.347H610.123V341.433ZM533.028 335.347H541.143V306.946H533.028V335.347ZM549.492 335.347H553.55V306.946H549.492V335.347ZM561.508 335.347H565.565V306.946H561.508V335.347ZM573.524 335.347H577.582V306.946H573.524V335.347ZM585.547 335.347H589.605V306.946H585.547V335.347ZM597.953 306.946V335.347H606.068V306.946H597.953ZM597.953 306.946V335.347H606.068V306.946H597.953ZM533.028 306.946V335.347H541.143V306.946H533.028ZM549.492 306.946V335.347H553.55V306.946H549.492ZM561.508 306.946V335.347H565.565V306.946H561.508ZM573.524 306.946V335.347H577.582V306.946H573.524ZM585.547 306.946V335.347H589.605V306.946H585.547ZM607.917 304.914H531.175L527.954 296.799H611.137L607.917 304.914ZM436.991 295.784H380.757V290.038H436.991V295.784ZM455.736 322.255H362.013V316.509H455.736V322.255ZM480.553 348.726H337.502V342.979H480.553V348.726ZM483.371 371.772H334.685L337.502 351.286H480.553L483.371 371.772ZM457.613 342.979L455.734 324.813H362.011L360.131 342.979H402.812V334.12C402.812 331.658 404.812 329.658 407.273 329.658H410.777C413.245 329.658 415.246 331.658 415.246 334.12V342.979H457.613ZM438.398 316.507L436.993 298.349H380.758L379.347 316.507H402.812V309.655C402.812 307.193 404.812 305.193 407.273 305.193H410.777C413.245 305.193 415.246 307.193 415.246 309.655V316.507H438.398ZM415.664 211.208H402.081L396.101 290.035H421.651L415.664 211.208ZM408.876 277.608C407.457 277.608 406.315 276.459 406.315 275.047C406.315 273.636 407.457 272.486 408.876 272.486C410.287 272.486 411.437 273.636 411.437 275.047C411.437 276.459 410.287 277.608 408.876 277.608ZM408.876 261.116C407.457 261.116 406.315 259.974 406.315 258.555C406.315 257.144 407.457 255.995 408.876 255.995C410.287 255.995 411.437 257.144 411.437 258.555C411.437 259.974 410.287 261.116 408.876 261.116ZM408.876 244.624C407.457 244.624 406.315 243.482 406.315 242.063C406.315 240.652 407.457 239.503 408.876 239.503C410.287 239.503 411.437 240.652 411.437 242.063C411.437 243.482 410.287 244.624 408.876 244.624ZM408.876 228.132C407.457 228.132 406.315 226.99 406.315 225.572C406.315 224.16 407.457 223.011 408.876 223.011C410.287 223.011 411.437 224.16 411.437 225.572C411.437 226.99 410.287 228.132 408.876 228.132ZM408.876 170.003V183.856H430.156V170.003H408.876ZM421.942 180.665L419.516 179.388L417.09 180.665L417.551 177.962L415.586 176.047L418.303 175.649L419.516 173.195L420.729 175.649L423.439 176.047L421.481 177.962L421.942 180.665ZM400.096 200.812H417.653L415.664 211.209H402.084L400.096 200.812ZM417.653 200.812H400.096L404.647 196.873H413.103L417.653 200.812ZM480.553 351.286H337.502V348.726H480.553V351.286ZM455.736 324.816H362.013V322.255H455.736V324.816ZM436.991 298.345H380.757V295.784H436.991V298.345ZM408.874 196.874V170ZM380.757 290.038V295.784ZM396.094 290.038V295.784ZM385.87 290.038V295.784ZM390.982 290.038V295.784ZM401.206 290.038V295.784ZM406.318 290.038V295.784ZM411.43 290.038V295.784ZM416.543 290.038V295.784ZM421.655 290.038V295.784ZM426.767 290.038V295.784ZM431.879 290.038V295.784ZM436.991 290.038V295.784ZM337.502 342.979V348.725ZM352.829 342.979V348.725ZM342.611 342.979V348.725ZM347.72 342.979V348.725ZM357.938 342.979V348.725ZM363.047 342.979V348.725ZM368.156 342.979V348.725ZM373.264 342.979V348.725ZM378.374 342.979V348.725ZM383.483 342.979V348.725ZM388.592 342.979V348.725ZM393.701 342.979V348.725ZM424.355 342.979V348.725ZM439.681 342.979V348.725ZM429.464 342.979V348.725ZM434.572 342.979V348.725ZM444.791 342.979V348.725ZM449.9 342.979V348.725ZM455.008 342.979V348.725ZM409.028 342.979V348.725ZM398.81 342.979V348.725ZM403.919 342.979V348.725ZM414.136 342.979V348.725ZM419.245 342.979V348.725ZM460.117 342.979V348.725ZM465.227 342.979V348.725ZM470.336 342.979V348.725ZM475.444 342.979V348.725ZM480.553 342.979V348.725ZM362.013 322.255V316.509ZM376.811 316.508V322.254ZM366.946 316.508V322.254ZM371.878 316.508V322.254ZM381.744 316.508V322.254ZM386.677 316.508V322.254ZM391.609 316.508V322.254ZM396.542 316.508V322.254ZM401.475 316.508V322.254ZM406.408 316.508V322.254ZM411.341 316.508V322.254ZM416.274 316.508V322.254ZM421.206 316.508V322.254ZM426.139 316.508V322.254ZM431.072 316.508V322.254ZM436.005 316.508V322.254ZM440.938 316.508V322.254ZM445.87 316.508V322.254ZM450.803 316.508V322.254ZM455.736 316.509V322.255ZM172.501 345.426H159.286V353.25H157.974V354.612H156.009V355.853H154.001V357.265H152.618V358.57H149.972V357.279H148.646V355.952H147.32V353.25H146V361.194H147.277V362.549H148.66V363.897H149.973V365.223H151.306V366.507H152.619V371.862H155.314V370.494H153.973V369.181H155.299V367.855H156.633V366.535H157.974V367.855H159.251V371.87H161.918V370.508H160.627V365.21H161.918V363.869H163.287V361.875H164.585V357.222H165.947V358.513H167.231V355.91H164.6V353.243H169.891V351.909H165.948L165.934 350.455H172.502V345.426H172.501ZM163.273 347.774H161.939V346.448H163.273V347.774ZM176.704 344.205V345.425H154.871V344.205H155.807V343.269H156.743V342.332H157.68V341.396H158.616V340.46H159.552V339.524H160.488V338.581H161.424V337.644H162.368V336.708H163.304V335.772H164.24V334.836H165.176V333.9H166.397V334.836H167.333V335.772H168.269V336.708H169.205V337.644H170.141V338.581H171.085V339.524H172.021V340.46H172.957V341.396H173.893V342.332H174.829V343.269H175.766V344.205H176.704Z" fill="url(#paint0_linear_454_479)"/>
<path d="M189.477 350.16V352.572H253.388V350.16M189.477 350.16H253.388M189.477 350.16H192.492V347.145H189.477V350.16ZM253.388 350.16H250.373V347.145H253.388V350.16ZM197.731 334.743H205.521M217.537 334.743H225.327M237.344 334.743H245.134M197.746 356.048H205.537M217.553 356.048H225.343M237.358 356.048H245.149M281.815 328.844V334.339M272.038 328.844V334.339M276.926 328.844V334.339M286.704 328.844V334.339M291.592 328.844V334.339M296.481 328.844V334.339M301.369 328.844V334.339M306.258 328.844V334.339M311.146 328.844V334.339M316.035 328.844V334.339M665.154 329.559V334.496H695.138V329.559M665.154 329.559H695.138M665.154 329.559V320.501M695.138 329.559V320.501M678.004 329.558V334.496M669.438 329.558V334.496M673.721 329.558V334.496M682.286 329.558V334.496M686.569 329.558V334.496M690.852 329.558V334.496M692.975 311.45H667.318M692.975 311.45L680.145 298.763M692.975 311.45C692.976 311.45 704.427 318.893 713.086 312.38C713.086 312.38 712.764 320.504 704.408 320.504C696.051 320.504 680.147 320.504 680.147 320.504C680.147 320.504 664.24 320.504 655.882 320.504C647.528 320.504 647.204 312.38 647.204 312.38C655.866 318.893 667.318 311.45 667.318 311.45M667.318 311.45L680.145 298.763M680.145 298.763L680.146 296.568M565.487 371.863H494.725V349.547L644.371 349.547V371.862H573.602M565.487 371.863V361.719H573.602V371.862M565.487 371.863H555.344V357.662L583.746 357.662V371.862H573.602M531.175 304.914V306.943H607.917V304.914M531.175 304.914H607.917M531.175 304.914L527.954 296.799H611.137L607.917 304.914M436.991 295.784H380.757M436.991 295.784V290.038M436.991 295.784V298.345H380.757V295.784M380.757 295.784V290.038M380.757 290.038H436.991M380.757 290.038V295.784M436.991 290.038V295.784M455.736 322.255H362.013M455.736 322.255V316.509H362.013V322.255M455.736 322.255V324.816H362.013V322.255M480.553 348.726H337.502M480.553 348.726V342.979M480.553 348.726V351.286M337.502 348.726V342.979M337.502 348.726V351.286M337.502 342.979H480.553M337.502 342.979V348.725M480.553 342.979V348.725M337.502 351.286L334.685 371.772H483.371L480.553 351.286M337.502 351.286H480.553M400.096 200.812H417.653M400.096 200.812L402.084 211.209H415.664L417.653 200.812M400.096 200.812L404.647 196.873H413.103L417.653 200.812M408.874 196.874V170M396.094 290.038V295.784M385.87 290.038V295.784M390.982 290.038V295.784M401.206 290.038V295.784M406.318 290.038V295.784M411.43 290.038V295.784M416.543 290.038V295.784M421.655 290.038V295.784M426.767 290.038V295.784M431.879 290.038V295.784M352.829 342.979V348.725M342.611 342.979V348.725M347.72 342.979V348.725M357.938 342.979V348.725M363.047 342.979V348.725M368.156 342.979V348.725M373.264 342.979V348.725M378.374 342.979V348.725M383.483 342.979V348.725M388.592 342.979V348.725M393.701 342.979V348.725M424.355 342.979V348.725M439.681 342.979V348.725M429.464 342.979V348.725M434.572 342.979V348.725M444.791 342.979V348.725M449.9 342.979V348.725M455.008 342.979V348.725M409.028 342.979V348.725M398.81 342.979V348.725M403.919 342.979V348.725M414.136 342.979V348.725M419.245 342.979V348.725M460.117 342.979V348.725M465.227 342.979V348.725M470.336 342.979V348.725M475.444 342.979V348.725M376.811 316.508V322.254M366.946 316.508V322.254M371.878 316.508V322.254M381.744 316.508V322.254M386.677 316.508V322.254M391.609 316.508V322.254M396.542 316.508V322.254M401.475 316.508V322.254M406.408 316.508V322.254M411.341 316.508V322.254M416.274 316.508V322.254M421.206 316.508V322.254M426.139 316.508V322.254M431.072 316.508V322.254M436.005 316.508V322.254M440.938 316.508V322.254M445.87 316.508V322.254M450.803 316.508V322.254M224.696 296.568H218.171L221.432 292.911L224.696 296.568ZM245.301 300.862C245.301 300.862 245.068 306.749 239.013 306.749C232.957 306.749 221.433 306.749 221.433 306.749C221.433 306.749 209.906 306.749 203.851 306.749C197.798 306.749 197.563 300.862 197.563 300.862C203.839 305.581 218.17 296.568 218.17 296.568H224.695C224.696 296.568 239.027 305.581 245.301 300.862ZM235.903 313.983H206.962V306.748H235.903V313.983ZM202.831 318.805V328.452H240.028V318.805H202.831ZM221.43 326.04C220.104 326.04 219.019 324.962 219.019 323.629C219.019 322.295 220.104 321.217 221.43 321.217C222.764 321.217 223.842 322.295 223.842 323.629C223.842 324.962 222.764 326.04 221.43 326.04ZM192.489 330.864V350.157H197.731V341.27C197.731 339.723 198.98 338.475 200.526 338.475H202.725C204.271 338.475 205.519 339.723 205.519 341.27V350.157H217.535V341.27C217.535 339.723 218.791 338.475 220.33 338.475H222.529C224.075 338.475 225.323 339.723 225.323 341.27V350.157H237.339V341.27C237.339 339.723 238.594 338.475 240.14 338.475H242.332C243.879 338.475 245.135 339.723 245.135 341.27V350.157H250.369V330.864H192.489ZM190.525 352.569V371.862H197.732V362.712C197.732 361.166 198.98 359.917 200.526 359.917H202.725C204.272 359.917 205.52 361.166 205.52 362.712V371.862H217.536V362.712C217.536 361.166 218.791 359.917 220.33 359.917H222.529C224.075 359.917 225.323 361.166 225.323 362.712V371.862H237.339V362.712C237.339 361.166 238.595 359.917 240.141 359.917H242.333C243.879 359.917 245.135 361.166 245.135 362.712V371.862H252.342V352.569H190.525ZM251.579 330.866H191.285V328.454H251.579V330.866ZM242.888 318.807H199.977L205.524 313.983H237.341L242.888 318.807ZM191.285 328.454H194.3V325.439H191.285V328.454ZM209.977 328.454H212.992V325.439H209.977V328.454ZM229.873 328.454H232.888V325.439H229.873V328.454ZM248.564 325.439V328.454H251.579V325.439H248.564ZM209.977 350.16H212.992V347.145H209.977V350.16ZM229.873 350.16H232.888V347.145H229.873V350.16ZM320.923 334.339H267.149V328.844H320.923V334.339ZM265.366 338.997V334.339H322.707V338.997H265.366ZM321.96 286.273C321.96 286.273 321.688 291.52 314.604 291.52C307.52 291.52 294.038 291.52 294.038 291.52C294.038 291.52 280.553 291.52 273.469 291.52C266.387 291.52 266.112 286.273 266.112 286.273C273.455 291.63 279.183 278.815 279.183 278.815H308.891C308.891 278.815 314.62 291.63 321.96 286.273ZM279.096 328.848H273.072V298.967H279.096V328.848ZM315.001 328.848H308.977V298.967H315.001V328.848ZM279.096 371.866H267.15V338.997H279.096V371.866ZM320.923 371.866H308.977V338.997H320.923V371.866ZM327.591 292.285C327.591 292.285 327.264 298.967 318.752 298.967C310.239 298.967 294.038 298.967 294.038 298.967C294.038 298.967 277.834 298.967 269.321 298.967C260.811 298.967 260.481 292.285 260.481 292.285C269.304 297.642 273.319 291.521 273.319 291.521H314.756C314.756 291.52 318.771 297.642 327.591 292.285ZM308.975 298.973H307.216L299.903 306.286H299.896L299.888 306.293C299.591 306.059 299.278 305.839 298.952 305.648C298.839 305.584 298.732 305.52 298.619 305.456C298.605 305.449 298.583 305.435 298.562 305.428C298.477 305.378 298.385 305.328 298.286 305.286C298.08 305.179 297.867 305.087 297.647 304.995C297.569 304.966 297.498 304.938 297.42 304.91C297.328 304.874 297.228 304.838 297.129 304.803C297.009 304.76 296.888 304.725 296.76 304.689C296.682 304.668 296.605 304.647 296.527 304.619C296.222 304.541 295.917 304.477 295.597 304.42C295.491 304.406 295.391 304.392 295.285 304.378V298.965H292.788V304.378C292.277 304.441 291.781 304.548 291.292 304.697C291.178 304.725 291.064 304.768 290.951 304.803C290.852 304.838 290.753 304.874 290.654 304.91C290.576 304.938 290.504 304.966 290.427 304.995C290.384 305.016 290.341 305.03 290.299 305.051C290.15 305.108 290.015 305.179 289.873 305.243C289.731 305.307 289.597 305.378 289.462 305.456C289.348 305.52 289.235 305.584 289.128 305.648C288.802 305.839 288.49 306.052 288.185 306.293L288.178 306.286L280.857 298.973H279.098V300.732L286.418 308.045V308.052C286.355 308.137 286.291 308.215 286.227 308.3C286.17 308.386 286.106 308.478 286.05 308.563C285.993 308.655 285.929 308.74 285.872 308.832C285.766 309.01 285.659 309.194 285.56 309.372C285.51 309.471 285.468 309.563 285.418 309.655C285.184 310.123 284.993 310.613 284.837 311.117C284.801 311.237 284.765 311.365 284.73 311.493C284.638 311.876 284.56 312.266 284.51 312.663H279.099V315.153H284.51C284.56 315.543 284.638 315.933 284.73 316.316C284.765 316.444 284.801 316.571 284.837 316.692C284.992 317.195 285.184 317.685 285.418 318.153C285.695 318.721 286.036 319.253 286.426 319.763H286.418L279.098 327.084V328.85H280.857L288.178 321.523H288.185C288.44 321.721 288.696 321.899 288.965 322.069C289.142 322.175 289.327 322.282 289.511 322.381C289.589 322.424 289.674 322.466 289.759 322.509C289.958 322.608 290.157 322.701 290.362 322.786C290.455 322.829 290.554 322.864 290.653 322.899C290.852 322.977 291.05 323.041 291.249 323.105C291.369 323.14 291.497 323.176 291.625 323.211C292.008 323.304 292.398 323.382 292.788 323.431V328.843H295.285V323.431C295.682 323.382 296.072 323.303 296.455 323.211C296.576 323.176 296.704 323.14 296.832 323.105C296.853 323.098 296.874 323.091 296.895 323.084C297.045 323.041 297.193 322.984 297.342 322.934C297.371 322.92 297.399 322.913 297.427 322.899C297.519 322.864 297.619 322.828 297.718 322.786C297.881 322.715 298.045 322.644 298.208 322.566C298.264 322.538 298.321 322.51 298.378 322.481C298.534 322.403 298.69 322.318 298.846 322.233C298.938 322.176 299.023 322.126 299.116 322.069C299.201 322.013 299.294 321.956 299.378 321.892C299.47 321.836 299.555 321.772 299.64 321.715C299.726 321.651 299.811 321.587 299.889 321.524H299.896L307.217 328.851H308.976V327.084L301.655 319.764V319.757C301.896 319.444 302.116 319.118 302.322 318.778C302.386 318.665 302.449 318.551 302.513 318.438C302.556 318.352 302.599 318.267 302.641 318.189C302.74 317.984 302.833 317.785 302.918 317.579C303.039 317.296 303.145 316.998 303.238 316.693C303.273 316.572 303.308 316.444 303.344 316.316C303.443 315.934 303.514 315.543 303.564 315.153H308.976V312.664H303.564C303.5 312.146 303.393 311.642 303.244 311.153C303.238 311.118 303.223 311.082 303.216 311.047C303.195 310.975 303.166 310.897 303.145 310.82C303.11 310.72 303.074 310.621 303.039 310.522C303.003 310.437 302.968 310.345 302.932 310.252C302.847 310.054 302.755 309.855 302.655 309.656C302.613 309.564 302.563 309.472 302.513 309.379C302.506 309.358 302.499 309.344 302.485 309.323C302.428 309.216 302.364 309.103 302.3 308.989C302.102 308.67 301.889 308.358 301.655 308.053L308.976 300.733L308.975 298.973ZM301.045 315.152C300.868 316.174 300.47 317.131 299.868 317.983C299.633 318.316 299.371 318.635 299.073 318.933C298.768 319.231 298.449 319.508 298.108 319.742C297.264 320.338 296.3 320.735 295.286 320.913C294.874 320.984 294.463 321.019 294.037 321.019C293.618 321.019 293.2 320.984 292.789 320.913C291.775 320.735 290.81 320.338 289.966 319.742C289.675 319.536 289.398 319.309 289.135 319.061L289.008 318.933C288.71 318.636 288.44 318.316 288.206 317.983C287.61 317.132 287.206 316.174 287.036 315.152C286.958 314.741 286.922 314.329 286.922 313.904C286.922 313.485 286.958 313.067 287.029 312.663C287.206 311.641 287.603 310.684 288.207 309.832C288.44 309.499 288.71 309.173 289.008 308.875C289.306 308.577 289.625 308.308 289.966 308.073C290.81 307.477 291.775 307.073 292.789 306.903C293.2 306.825 293.618 306.79 294.037 306.79C294.463 306.79 294.874 306.825 295.286 306.896C296.3 307.073 297.265 307.471 298.116 308.074C298.457 308.308 298.768 308.577 299.074 308.876C299.371 309.173 299.634 309.493 299.875 309.833C300.471 310.677 300.868 311.642 301.046 312.663C301.117 313.067 301.16 313.486 301.16 313.904C301.158 314.329 301.115 314.741 301.045 315.152ZM659.837 320.501V334.588H700.447V320.501H659.837ZM666.374 346.112H665.159C666.999 350.162 671.165 353.33 675.39 354.823V353.654C671.771 352.271 668.077 349.558 666.374 346.112ZM693.919 346.112C692.215 349.558 688.572 352.271 684.953 353.654V354.823C689.178 353.331 693.293 350.162 695.134 346.112L693.919 346.112ZM655.855 338.432H658.742V334.588H655.855V338.432ZM659.842 334.588V338.432H675.39V334.588H659.842ZM684.952 338.432H700.45V334.588H684.952V338.432ZM701.543 334.588V338.432H704.437V334.588H701.543ZM655.855 346.114H658.742V342.27H655.855V346.114ZM659.842 342.27V346.114H675.39V342.27H659.842ZM684.952 346.114H700.45V342.27H684.952V346.114ZM701.543 342.27V346.114H704.437V342.27H701.543ZM684.953 334.589V372.085H675.339V334.589H684.953ZM687.331 309.208H672.963L680.146 302.103L687.331 309.208ZM700.451 320.501V348.49H701.543V320.501H700.451ZM658.742 320.501V348.49H659.842V320.501H658.742ZM679.597 354.342V334.588H680.695V354.342H679.597ZM602.008 296.799H537.085V292.741H602.008V296.799ZM593.892 292.742H545.201V288.684H593.892V292.742ZM620.267 349.548H518.826V341.433H620.267V349.548ZM610.123 341.433H528.97V335.347H610.123V341.433ZM533.028 335.347H541.143V306.946H533.028V335.347ZM549.492 335.347H553.55V306.946H549.492V335.347ZM561.508 335.347H565.565V306.946H561.508V335.347ZM573.524 335.347H577.582V306.946H573.524V335.347ZM585.547 335.347H589.605V306.946H585.547V335.347ZM597.953 306.946V335.347H606.068V306.946H597.953ZM457.613 342.979L455.734 324.813H362.011L360.131 342.979H402.812V334.12C402.812 331.658 404.812 329.658 407.273 329.658H410.777C413.245 329.658 415.246 331.658 415.246 334.12V342.979H457.613ZM438.398 316.507L436.993 298.349H380.758L379.347 316.507H402.812V309.655C402.812 307.193 404.812 305.193 407.273 305.193H410.777C413.245 305.193 415.246 307.193 415.246 309.655V316.507H438.398ZM415.664 211.208H402.081L396.101 290.035H421.651L415.664 211.208ZM408.876 277.608C407.457 277.608 406.315 276.459 406.315 275.047C406.315 273.636 407.457 272.486 408.876 272.486C410.287 272.486 411.437 273.636 411.437 275.047C411.437 276.459 410.287 277.608 408.876 277.608ZM408.876 261.116C407.457 261.116 406.315 259.974 406.315 258.555C406.315 257.144 407.457 255.995 408.876 255.995C410.287 255.995 411.437 257.144 411.437 258.555C411.437 259.974 410.287 261.116 408.876 261.116ZM408.876 244.624C407.457 244.624 406.315 243.482 406.315 242.063C406.315 240.652 407.457 239.503 408.876 239.503C410.287 239.503 411.437 240.652 411.437 242.063C411.437 243.482 410.287 244.624 408.876 244.624ZM408.876 228.132C407.457 228.132 406.315 226.99 406.315 225.572C406.315 224.16 407.457 223.011 408.876 223.011C410.287 223.011 411.437 224.16 411.437 225.572C411.437 226.99 410.287 228.132 408.876 228.132ZM408.876 170.003V183.856H430.156V170.003H408.876ZM421.942 180.665L419.516 179.388L417.09 180.665L417.551 177.962L415.586 176.047L418.303 175.649L419.516 173.195L420.729 175.649L423.439 176.047L421.481 177.962L421.942 180.665ZM172.501 345.426H159.286V353.25H157.974V354.612H156.009V355.853H154.001V357.265H152.618V358.57H149.972V357.279H148.646V355.952H147.32V353.25H146V361.194H147.277V362.549H148.66V363.897H149.973V365.223H151.306V366.507H152.619V371.862H155.314V370.494H153.973V369.181H155.299V367.855H156.633V366.535H157.974V367.855H159.251V371.87H161.918V370.508H160.627V365.21H161.918V363.869H163.287V361.875H164.585V357.222H165.947V358.513H167.231V355.91H164.6V353.243H169.891V351.909H165.948L165.934 350.455H172.502V345.426H172.501ZM163.273 347.774H161.939V346.448H163.273V347.774ZM176.704 344.205V345.425H154.871V344.205H155.807V343.269H156.743V342.332H157.68V341.396H158.616V340.46H159.552V339.524H160.488V338.581H161.424V337.644H162.368V336.708H163.304V335.772H164.24V334.836H165.176V333.9H166.397V334.836H167.333V335.772H168.269V336.708H169.205V337.644H170.141V338.581H171.085V339.524H172.021V340.46H172.957V341.396H173.893V342.332H174.829V343.269H175.766V344.205H176.704Z" stroke="#202124" stroke-miterlimit="10" stroke-linecap="round" stroke-linejoin="round"/>
<path d="M707.861 311.451C707.861 311.451 707.373 316.193 700.997 314.645" stroke="#202124" stroke-miterlimit="10" stroke-linecap="round" stroke-linejoin="round"/>
<path d="M659.295 314.645C652.919 316.193 652.43 311.451 652.43 311.451" stroke="#202124" stroke-miterlimit="10" stroke-linecap="round" stroke-linejoin="round"/>
<mask id="path-40-outside-1_454_479" maskUnits="userSpaceOnUse" x="152" y="93" width="552" height="42" fill="black">
<rect fill="white" x="152" y="93" width="552" height="42"/>
<path d="M158 97.7273H165.002L169.576 116L170.137 119.409H170.51L171.257 116L177.139 97.7273H183.347L189.088 116L189.835 119.318H190.209L190.769 116L195.297 97.7273H202.299L193.663 130.273H186.895L181.2 110.636L180.453 107.136H180.079L179.332 110.636L173.358 130.273H166.869L158 97.7273Z"/>
<path d="M215.203 97.7273H222.439L234.995 130.273H228.04L225.239 122.5H212.449L209.649 130.273H202.693L215.203 97.7273ZM223.186 116.864L220.245 108.682L219.031 104.773H218.658L217.444 108.682L214.457 116.864H223.186Z"/>
<path d="M240.442 97.7273H252.625C254.773 97.7273 256.733 98.1818 258.414 99.0455C260.094 99.9545 261.448 101.182 262.381 102.727C263.315 104.273 263.782 106.045 263.782 108C263.782 110.091 263.082 111.955 261.728 113.591C260.374 115.227 258.694 116.364 256.64 117.091L256.593 117.409L265.556 129.909V130.273H258.32L249.685 118.045H246.744V130.273H240.442V97.7273ZM252.579 112.409C253.979 112.409 255.146 112 256.08 111.136C256.967 110.318 257.433 109.227 257.433 107.909C257.433 106.682 256.967 105.636 256.126 104.727C255.286 103.864 254.119 103.409 252.672 103.409H246.744V112.409H252.579Z"/>
<path d="M270.96 97.7273H283.144C285.291 97.7273 287.252 98.1818 288.932 99.0455C290.613 99.9545 291.966 101.182 292.9 102.727C293.833 104.273 294.3 106.045 294.3 108C294.3 110.091 293.6 111.955 292.246 113.591C290.893 115.227 289.212 116.364 287.158 117.091L287.112 117.409L296.074 129.909V130.273H288.839L280.203 118.045H277.262V130.273H270.96V97.7273ZM283.097 112.409C284.498 112.409 285.665 112 286.598 111.136C287.485 110.318 287.952 109.227 287.952 107.909C287.952 106.682 287.485 105.636 286.645 104.727C285.805 103.864 284.638 103.409 283.191 103.409H277.262V112.409H283.097Z"/>
<path d="M301.479 97.7273H307.781V130.273H301.479V97.7273Z"/>
<path d="M331.638 131C328.37 131 325.383 130.273 322.722 128.773C320.061 127.273 317.961 125.227 316.467 122.591C314.927 120 314.18 117.136 314.18 114C314.18 110.909 314.927 108.045 316.467 105.409C317.961 102.818 320.061 100.773 322.722 99.2727C325.383 97.7727 328.37 97 331.638 97C334.905 97 337.846 97.7727 340.507 99.2727C343.168 100.773 345.268 102.818 346.809 105.409C348.302 108.045 349.096 110.909 349.096 114C349.096 117.136 348.302 120 346.809 122.591C345.268 125.227 343.168 127.273 340.507 128.773C337.846 130.273 334.905 131 331.638 131ZM331.638 125.182C333.692 125.182 335.559 124.727 337.286 123.773C338.967 122.864 340.32 121.545 341.301 119.818C342.281 118.136 342.794 116.182 342.794 114C342.794 111.818 342.281 109.909 341.301 108.182C340.32 106.5 338.967 105.182 337.286 104.227C335.559 103.318 333.692 102.818 331.638 102.818C329.584 102.818 327.67 103.318 325.99 104.227C324.309 105.182 322.956 106.5 321.975 108.182C320.995 109.909 320.528 111.818 320.528 114C320.528 116.182 320.995 118.136 321.975 119.818C322.956 121.545 324.309 122.864 325.99 123.773C327.67 124.727 329.584 125.182 331.638 125.182Z"/>
<path d="M355.997 97.7273H368.181C370.328 97.7273 372.288 98.1818 373.969 99.0455C375.649 99.9545 377.003 101.182 377.937 102.727C378.87 104.273 379.337 106.045 379.337 108C379.337 110.091 378.637 111.955 377.283 113.591C375.929 115.227 374.249 116.364 372.195 117.091L372.148 117.409L381.111 129.909V130.273H373.875L365.24 118.045H362.299V130.273H355.997V97.7273ZM368.134 112.409C369.534 112.409 370.701 112 371.635 111.136C372.522 110.318 372.989 109.227 372.989 107.909C372.989 106.682 372.522 105.636 371.682 104.727C370.841 103.864 369.674 103.409 368.227 103.409H362.299V112.409H368.134Z"/>
<path d="M398.39 97.7273H409.686C413.14 97.7273 416.175 98.4091 418.789 99.7727C421.356 101.136 423.363 103.045 424.764 105.5C426.164 107.955 426.864 110.818 426.864 114C426.864 117.227 426.164 120.045 424.764 122.5C423.363 124.955 421.356 126.864 418.789 128.227C416.175 129.591 413.14 130.273 409.686 130.273H398.39V97.7273ZM409.406 124.455C413 124.455 415.755 123.545 417.668 121.682C419.536 119.818 420.516 117.273 420.516 114C420.516 110.773 419.536 108.227 417.668 106.364C415.755 104.5 413 103.545 409.406 103.545H404.692V124.455H409.406Z"/>
<path d="M433.786 97.7273H454.978V103.545H440.088V111.091H453.485V116.909H440.088V124.455H454.978V130.273H433.786V97.7273Z"/>
<path d="M459.216 97.7273H466.031L472.939 117.364L474.153 121.5H474.526L475.833 117.364L483.022 97.7273H489.837L477.654 130.273H471.025L459.216 97.7273Z"/>
<path d="M495.233 97.7273H516.426V103.545H501.535V111.091H514.932V116.909H501.535V124.455H516.426V130.273H495.233V97.7273Z"/>
<path d="M523.837 97.7273H530.139V124.455H544.283V130.273H523.837V97.7273Z"/>
<path d="M565.575 131C562.307 131 559.32 130.273 556.659 128.773C553.998 127.273 551.898 125.227 550.404 122.591C548.863 120 548.117 117.136 548.117 114C548.117 110.909 548.863 108.045 550.404 105.409C551.898 102.818 553.998 100.773 556.659 99.2727C559.32 97.7727 562.307 97 565.575 97C568.842 97 571.783 97.7727 574.444 99.2727C577.104 100.773 579.205 102.818 580.745 105.409C582.239 108.045 583.033 110.909 583.033 114C583.033 117.136 582.239 120 580.745 122.591C579.205 125.227 577.104 127.273 574.444 128.773C571.783 130.273 568.842 131 565.575 131ZM565.575 125.182C567.629 125.182 569.496 124.727 571.223 123.773C572.903 122.864 574.257 121.545 575.237 119.818C576.218 118.136 576.731 116.182 576.731 114C576.731 111.818 576.218 109.909 575.237 108.182C574.257 106.5 572.903 105.182 571.223 104.227C569.496 103.318 567.629 102.818 565.575 102.818C563.521 102.818 561.607 103.318 559.926 104.227C558.246 105.182 556.892 106.5 555.912 108.182C554.932 109.909 554.465 111.818 554.465 114C554.465 116.182 554.932 118.136 555.912 119.818C556.892 121.545 558.246 122.864 559.926 123.773C561.607 124.727 563.521 125.182 565.575 125.182Z"/>
<path d="M589.934 97.7273H601.697C603.798 97.7273 605.712 98.1818 607.485 99.0455C609.213 99.9091 610.566 101.136 611.593 102.682C612.573 104.227 613.087 106 613.087 108C613.087 110 612.573 111.818 611.593 113.364C610.566 114.955 609.213 116.182 607.485 117.045C605.712 117.909 603.798 118.318 601.697 118.318H596.236V130.273H589.934V97.7273ZM601.884 112.5C603.424 112.5 604.638 112.091 605.525 111.182C606.412 110.318 606.879 109.273 606.879 108C606.879 106.773 606.412 105.727 605.525 104.864C604.638 104 603.424 103.545 601.884 103.545H596.236V112.5H601.884Z"/>
<path d="M619.358 97.7273H640.551V103.545H625.66V111.091H639.057V116.909H625.66V124.455H640.551V130.273H619.358V97.7273Z"/>
<path d="M647.962 97.7273H660.146C662.293 97.7273 664.253 98.1818 665.934 99.0455C667.614 99.9545 668.968 101.182 669.902 102.727C670.835 104.273 671.302 106.045 671.302 108C671.302 110.091 670.602 111.955 669.248 113.591C667.894 115.227 666.214 116.364 664.16 117.091L664.113 117.409L673.076 129.909V130.273H665.841L657.205 118.045H654.264V130.273H647.962V97.7273ZM660.099 112.409C661.499 112.409 662.666 112 663.6 111.136C664.487 110.318 664.954 109.227 664.954 107.909C664.954 106.682 664.487 105.636 663.647 104.727C662.806 103.864 661.639 103.409 660.192 103.409H654.264V112.409H660.099Z"/>
<path d="M688.564 131C685.623 131 683.055 130.227 680.815 128.591C678.574 127 676.987 124.727 676.1 121.773L682.028 119.5C682.495 121.227 683.289 122.636 684.409 123.636C685.529 124.682 686.93 125.182 688.61 125.182C690.011 125.182 691.178 124.864 692.205 124.182C693.185 123.5 693.698 122.545 693.698 121.318C693.698 120.136 693.185 119.136 692.251 118.364C691.318 117.591 689.637 116.773 687.21 115.864L685.156 115.136C683.009 114.409 681.142 113.318 679.648 111.818C678.107 110.318 677.36 108.409 677.36 106.136C677.36 104.455 677.781 102.909 678.714 101.5C679.601 100.136 680.861 99.0455 682.542 98.2273C684.176 97.4091 686.043 97 688.143 97C691.131 97 693.512 97.7273 695.285 99.0909C697.013 100.455 698.226 102.091 698.88 103.909L693.325 106.182C692.951 105.182 692.345 104.364 691.504 103.682C690.664 103 689.544 102.636 688.237 102.636C686.836 102.636 685.716 102.955 684.829 103.591C683.942 104.227 683.522 105 683.522 106C683.522 107 683.942 107.818 684.782 108.5C685.623 109.182 686.976 109.818 688.937 110.455L691.038 111.136C693.932 112.136 696.126 113.409 697.666 115C699.206 116.591 700 118.682 700 121.227C700 123.364 699.44 125.182 698.32 126.636C697.199 128.091 695.752 129.182 693.978 129.909C692.205 130.636 690.431 131 688.564 131Z"/>
</mask>
<path d="M158 97.7273H165.002L169.576 116L170.137 119.409H170.51L171.257 116L177.139 97.7273H183.347L189.088 116L189.835 119.318H190.209L190.769 116L195.297 97.7273H202.299L193.663 130.273H186.895L181.2 110.636L180.453 107.136H180.079L179.332 110.636L173.358 130.273H166.869L158 97.7273Z" fill="url(#paint1_linear_454_479)"/>
<path d="M215.203 97.7273H222.439L234.995 130.273H228.04L225.239 122.5H212.449L209.649 130.273H202.693L215.203 97.7273ZM223.186 116.864L220.245 108.682L219.031 104.773H218.658L217.444 108.682L214.457 116.864H223.186Z" fill="url(#paint2_linear_454_479)"/>
<path d="M240.442 97.7273H252.625C254.773 97.7273 256.733 98.1818 258.414 99.0455C260.094 99.9545 261.448 101.182 262.381 102.727C263.315 104.273 263.782 106.045 263.782 108C263.782 110.091 263.082 111.955 261.728 113.591C260.374 115.227 258.694 116.364 256.64 117.091L256.593 117.409L265.556 129.909V130.273H258.32L249.685 118.045H246.744V130.273H240.442V97.7273ZM252.579 112.409C253.979 112.409 255.146 112 256.08 111.136C256.967 110.318 257.433 109.227 257.433 107.909C257.433 106.682 256.967 105.636 256.126 104.727C255.286 103.864 254.119 103.409 252.672 103.409H246.744V112.409H252.579Z" fill="url(#paint3_linear_454_479)"/>
<path d="M270.96 97.7273H283.144C285.291 97.7273 287.252 98.1818 288.932 99.0455C290.613 99.9545 291.966 101.182 292.9 102.727C293.833 104.273 294.3 106.045 294.3 108C294.3 110.091 293.6 111.955 292.246 113.591C290.893 115.227 289.212 116.364 287.158 117.091L287.112 117.409L296.074 129.909V130.273H288.839L280.203 118.045H277.262V130.273H270.96V97.7273ZM283.097 112.409C284.498 112.409 285.665 112 286.598 111.136C287.485 110.318 287.952 109.227 287.952 107.909C287.952 106.682 287.485 105.636 286.645 104.727C285.805 103.864 284.638 103.409 283.191 103.409H277.262V112.409H283.097Z" fill="url(#paint4_linear_454_479)"/>
<path d="M301.479 97.7273H307.781V130.273H301.479V97.7273Z" fill="url(#paint5_linear_454_479)"/>
<path d="M331.638 131C328.37 131 325.383 130.273 322.722 128.773C320.061 127.273 317.961 125.227 316.467 122.591C314.927 120 314.18 117.136 314.18 114C314.18 110.909 314.927 108.045 316.467 105.409C317.961 102.818 320.061 100.773 322.722 99.2727C325.383 97.7727 328.37 97 331.638 97C334.905 97 337.846 97.7727 340.507 99.2727C343.168 100.773 345.268 102.818 346.809 105.409C348.302 108.045 349.096 110.909 349.096 114C349.096 117.136 348.302 120 346.809 122.591C345.268 125.227 343.168 127.273 340.507 128.773C337.846 130.273 334.905 131 331.638 131ZM331.638 125.182C333.692 125.182 335.559 124.727 337.286 123.773C338.967 122.864 340.32 121.545 341.301 119.818C342.281 118.136 342.794 116.182 342.794 114C342.794 111.818 342.281 109.909 341.301 108.182C340.32 106.5 338.967 105.182 337.286 104.227C335.559 103.318 333.692 102.818 331.638 102.818C329.584 102.818 327.67 103.318 325.99 104.227C324.309 105.182 322.956 106.5 321.975 108.182C320.995 109.909 320.528 111.818 320.528 114C320.528 116.182 320.995 118.136 321.975 119.818C322.956 121.545 324.309 122.864 325.99 123.773C327.67 124.727 329.584 125.182 331.638 125.182Z" fill="url(#paint6_linear_454_479)"/>
<path d="M355.997 97.7273H368.181C370.328 97.7273 372.288 98.1818 373.969 99.0455C375.649 99.9545 377.003 101.182 377.937 102.727C378.87 104.273 379.337 106.045 379.337 108C379.337 110.091 378.637 111.955 377.283 113.591C375.929 115.227 374.249 116.364 372.195 117.091L372.148 117.409L381.111 129.909V130.273H373.875L365.24 118.045H362.299V130.273H355.997V97.7273ZM368.134 112.409C369.534 112.409 370.701 112 371.635 111.136C372.522 110.318 372.989 109.227 372.989 107.909C372.989 106.682 372.522 105.636 371.682 104.727C370.841 103.864 369.674 103.409 368.227 103.409H362.299V112.409H368.134Z" fill="url(#paint7_linear_454_479)"/>
<path d="M398.39 97.7273H409.686C413.14 97.7273 416.175 98.4091 418.789 99.7727C421.356 101.136 423.363 103.045 424.764 105.5C426.164 107.955 426.864 110.818 426.864 114C426.864 117.227 426.164 120.045 424.764 122.5C423.363 124.955 421.356 126.864 418.789 128.227C416.175 129.591 413.14 130.273 409.686 130.273H398.39V97.7273ZM409.406 124.455C413 124.455 415.755 123.545 417.668 121.682C419.536 119.818 420.516 117.273 420.516 114C420.516 110.773 419.536 108.227 417.668 106.364C415.755 104.5 413 103.545 409.406 103.545H404.692V124.455H409.406Z" fill="url(#paint8_linear_454_479)"/>
<path d="M433.786 97.7273H454.978V103.545H440.088V111.091H453.485V116.909H440.088V124.455H454.978V130.273H433.786V97.7273Z" fill="url(#paint9_linear_454_479)"/>
<path d="M459.216 97.7273H466.031L472.939 117.364L474.153 121.5H474.526L475.833 117.364L483.022 97.7273H489.837L477.654 130.273H471.025L459.216 97.7273Z" fill="url(#paint10_linear_454_479)"/>
<path d="M495.233 97.7273H516.426V103.545H501.535V111.091H514.932V116.909H501.535V124.455H516.426V130.273H495.233V97.7273Z" fill="url(#paint11_linear_454_479)"/>
<path d="M523.837 97.7273H530.139V124.455H544.283V130.273H523.837V97.7273Z" fill="url(#paint12_linear_454_479)"/>
<path d="M565.575 131C562.307 131 559.32 130.273 556.659 128.773C553.998 127.273 551.898 125.227 550.404 122.591C548.863 120 548.117 117.136 548.117 114C548.117 110.909 548.863 108.045 550.404 105.409C551.898 102.818 553.998 100.773 556.659 99.2727C559.32 97.7727 562.307 97 565.575 97C568.842 97 571.783 97.7727 574.444 99.2727C577.104 100.773 579.205 102.818 580.745 105.409C582.239 108.045 583.033 110.909 583.033 114C583.033 117.136 582.239 120 580.745 122.591C579.205 125.227 577.104 127.273 574.444 128.773C571.783 130.273 568.842 131 565.575 131ZM565.575 125.182C567.629 125.182 569.496 124.727 571.223 123.773C572.903 122.864 574.257 121.545 575.237 119.818C576.218 118.136 576.731 116.182 576.731 114C576.731 111.818 576.218 109.909 575.237 108.182C574.257 106.5 572.903 105.182 571.223 104.227C569.496 103.318 567.629 102.818 565.575 102.818C563.521 102.818 561.607 103.318 559.926 104.227C558.246 105.182 556.892 106.5 555.912 108.182C554.932 109.909 554.465 111.818 554.465 114C554.465 116.182 554.932 118.136 555.912 119.818C556.892 121.545 558.246 122.864 559.926 123.773C561.607 124.727 563.521 125.182 565.575 125.182Z" fill="url(#paint13_linear_454_479)"/>
<path d="M589.934 97.7273H601.697C603.798 97.7273 605.712 98.1818 607.485 99.0455C609.213 99.9091 610.566 101.136 611.593 102.682C612.573 104.227 613.087 106 613.087 108C613.087 110 612.573 111.818 611.593 113.364C610.566 114.955 609.213 116.182 607.485 117.045C605.712 117.909 603.798 118.318 601.697 118.318H596.236V130.273H589.934V97.7273ZM601.884 112.5C603.424 112.5 604.638 112.091 605.525 111.182C606.412 110.318 606.879 109.273 606.879 108C606.879 106.773 606.412 105.727 605.525 104.864C604.638 104 603.424 103.545 601.884 103.545H596.236V112.5H601.884Z" fill="url(#paint14_linear_454_479)"/>
<path d="M619.358 97.7273H640.551V103.545H625.66V111.091H639.057V116.909H625.66V124.455H640.551V130.273H619.358V97.7273Z" fill="url(#paint15_linear_454_479)"/>
<path d="M647.962 97.7273H660.146C662.293 97.7273 664.253 98.1818 665.934 99.0455C667.614 99.9545 668.968 101.182 669.902 102.727C670.835 104.273 671.302 106.045 671.302 108C671.302 110.091 670.602 111.955 669.248 113.591C667.894 115.227 666.214 116.364 664.16 117.091L664.113 117.409L673.076 129.909V130.273H665.841L657.205 118.045H654.264V130.273H647.962V97.7273ZM660.099 112.409C661.499 112.409 662.666 112 663.6 111.136C664.487 110.318 664.954 109.227 664.954 107.909C664.954 106.682 664.487 105.636 663.647 104.727C662.806 103.864 661.639 103.409 660.192 103.409H654.264V112.409H660.099Z" fill="url(#paint16_linear_454_479)"/>
<path d="M688.564 131C685.623 131 683.055 130.227 680.815 128.591C678.574 127 676.987 124.727 676.1 121.773L682.028 119.5C682.495 121.227 683.289 122.636 684.409 123.636C685.529 124.682 686.93 125.182 688.61 125.182C690.011 125.182 691.178 124.864 692.205 124.182C693.185 123.5 693.698 122.545 693.698 121.318C693.698 120.136 693.185 119.136 692.251 118.364C691.318 117.591 689.637 116.773 687.21 115.864L685.156 115.136C683.009 114.409 681.142 113.318 679.648 111.818C678.107 110.318 677.36 108.409 677.36 106.136C677.36 104.455 677.781 102.909 678.714 101.5C679.601 100.136 680.861 99.0455 682.542 98.2273C684.176 97.4091 686.043 97 688.143 97C691.131 97 693.512 97.7273 695.285 99.0909C697.013 100.455 698.226 102.091 698.88 103.909L693.325 106.182C692.951 105.182 692.345 104.364 691.504 103.682C690.664 103 689.544 102.636 688.237 102.636C686.836 102.636 685.716 102.955 684.829 103.591C683.942 104.227 683.522 105 683.522 106C683.522 107 683.942 107.818 684.782 108.5C685.623 109.182 686.976 109.818 688.937 110.455L691.038 111.136C693.932 112.136 696.126 113.409 697.666 115C699.206 116.591 700 118.682 700 121.227C700 123.364 699.44 125.182 698.32 126.636C697.199 128.091 695.752 129.182 693.978 129.909C692.205 130.636 690.431 131 688.564 131Z" fill="url(#paint17_linear_454_479)"/>
<path d="M158 97.7273H165.002L169.576 116L170.137 119.409H170.51L171.257 116L177.139 97.7273H183.347L189.088 116L189.835 119.318H190.209L190.769 116L195.297 97.7273H202.299L193.663 130.273H186.895L181.2 110.636L180.453 107.136H180.079L179.332 110.636L173.358 130.273H166.869L158 97.7273Z" stroke="#202124" stroke-width="8" mask="url(#path-40-outside-1_454_479)"/>
<path d="M215.203 97.7273H222.439L234.995 130.273H228.04L225.239 122.5H212.449L209.649 130.273H202.693L215.203 97.7273ZM223.186 116.864L220.245 108.682L219.031 104.773H218.658L217.444 108.682L214.457 116.864H223.186Z" stroke="#202124" stroke-width="8" mask="url(#path-40-outside-1_454_479)"/>
<path d="M240.442 97.7273H252.625C254.773 97.7273 256.733 98.1818 258.414 99.0455C260.094 99.9545 261.448 101.182 262.381 102.727C263.315 104.273 263.782 106.045 263.782 108C263.782 110.091 263.082 111.955 261.728 113.591C260.374 115.227 258.694 116.364 256.64 117.091L256.593 117.409L265.556 129.909V130.273H258.32L249.685 118.045H246.744V130.273H240.442V97.7273ZM252.579 112.409C253.979 112.409 255.146 112 256.08 111.136C256.967 110.318 257.433 109.227 257.433 107.909C257.433 106.682 256.967 105.636 256.126 104.727C255.286 103.864 254.119 103.409 252.672 103.409H246.744V112.409H252.579Z" stroke="#202124" stroke-width="8" mask="url(#path-40-outside-1_454_479)"/>
<path d="M270.96 97.7273H283.144C285.291 97.7273 287.252 98.1818 288.932 99.0455C290.613 99.9545 291.966 101.182 292.9 102.727C293.833 104.273 294.3 106.045 294.3 108C294.3 110.091 293.6 111.955 292.246 113.591C290.893 115.227 289.212 116.364 287.158 117.091L287.112 117.409L296.074 129.909V130.273H288.839L280.203 118.045H277.262V130.273H270.96V97.7273ZM283.097 112.409C284.498 112.409 285.665 112 286.598 111.136C287.485 110.318 287.952 109.227 287.952 107.909C287.952 106.682 287.485 105.636 286.645 104.727C285.805 103.864 284.638 103.409 283.191 103.409H277.262V112.409H283.097Z" stroke="#202124" stroke-width="8" mask="url(#path-40-outside-1_454_479)"/>
<path d="M301.479 97.7273H307.781V130.273H301.479V97.7273Z" stroke="#202124" stroke-width="8" mask="url(#path-40-outside-1_454_479)"/>
<path d="M331.638 131C328.37 131 325.383 130.273 322.722 128.773C320.061 127.273 317.961 125.227 316.467 122.591C314.927 120 314.18 117.136 314.18 114C314.18 110.909 314.927 108.045 316.467 105.409C317.961 102.818 320.061 100.773 322.722 99.2727C325.383 97.7727 328.37 97 331.638 97C334.905 97 337.846 97.7727 340.507 99.2727C343.168 100.773 345.268 102.818 346.809 105.409C348.302 108.045 349.096 110.909 349.096 114C349.096 117.136 348.302 120 346.809 122.591C345.268 125.227 343.168 127.273 340.507 128.773C337.846 130.273 334.905 131 331.638 131ZM331.638 125.182C333.692 125.182 335.559 124.727 337.286 123.773C338.967 122.864 340.32 121.545 341.301 119.818C342.281 118.136 342.794 116.182 342.794 114C342.794 111.818 342.281 109.909 341.301 108.182C340.32 106.5 338.967 105.182 337.286 104.227C335.559 103.318 333.692 102.818 331.638 102.818C329.584 102.818 327.67 103.318 325.99 104.227C324.309 105.182 322.956 106.5 321.975 108.182C320.995 109.909 320.528 111.818 320.528 114C320.528 116.182 320.995 118.136 321.975 119.818C322.956 121.545 324.309 122.864 325.99 123.773C327.67 124.727 329.584 125.182 331.638 125.182Z" stroke="#202124" stroke-width="8" mask="url(#path-40-outside-1_454_479)"/>
<path d="M355.997 97.7273H368.181C370.328 97.7273 372.288 98.1818 373.969 99.0455C375.649 99.9545 377.003 101.182 377.937 102.727C378.87 104.273 379.337 106.045 379.337 108C379.337 110.091 378.637 111.955 377.283 113.591C375.929 115.227 374.249 116.364 372.195 117.091L372.148 117.409L381.111 129.909V130.273H373.875L365.24 118.045H362.299V130.273H355.997V97.7273ZM368.134 112.409C369.534 112.409 370.701 112 371.635 111.136C372.522 110.318 372.989 109.227 372.989 107.909C372.989 106.682 372.522 105.636 371.682 104.727C370.841 103.864 369.674 103.409 368.227 103.409H362.299V112.409H368.134Z" stroke="#202124" stroke-width="8" mask="url(#path-40-outside-1_454_479)"/>
<path d="M398.39 97.7273H409.686C413.14 97.7273 416.175 98.4091 418.789 99.7727C421.356 101.136 423.363 103.045 424.764 105.5C426.164 107.955 426.864 110.818 426.864 114C426.864 117.227 426.164 120.045 424.764 122.5C423.363 124.955 421.356 126.864 418.789 128.227C416.175 129.591 413.14 130.273 409.686 130.273H398.39V97.7273ZM409.406 124.455C413 124.455 415.755 123.545 417.668 121.682C419.536 119.818 420.516 117.273 420.516 114C420.516 110.773 419.536 108.227 417.668 106.364C415.755 104.5 413 103.545 409.406 103.545H404.692V124.455H409.406Z" stroke="#202124" stroke-width="8" mask="url(#path-40-outside-1_454_479)"/>
<path d="M433.786 97.7273H454.978V103.545H440.088V111.091H453.485V116.909H440.088V124.455H454.978V130.273H433.786V97.7273Z" stroke="#202124" stroke-width="8" mask="url(#path-40-outside-1_454_479)"/>
<path d="M459.216 97.7273H466.031L472.939 117.364L474.153 121.5H474.526L475.833 117.364L483.022 97.7273H489.837L477.654 130.273H471.025L459.216 97.7273Z" stroke="#202124" stroke-width="8" mask="url(#path-40-outside-1_454_479)"/>
<path d="M495.233 97.7273H516.426V103.545H501.535V111.091H514.932V116.909H501.535V124.455H516.426V130.273H495.233V97.7273Z" stroke="#202124" stroke-width="8" mask="url(#path-40-outside-1_454_479)"/>
<path d="M523.837 97.7273H530.139V124.455H544.283V130.273H523.837V97.7273Z" stroke="#202124" stroke-width="8" mask="url(#path-40-outside-1_454_479)"/>
<path d="M565.575 131C562.307 131 559.32 130.273 556.659 128.773C553.998 127.273 551.898 125.227 550.404 122.591C548.863 120 548.117 117.136 548.117 114C548.117 110.909 548.863 108.045 550.404 105.409C551.898 102.818 553.998 100.773 556.659 99.2727C559.32 97.7727 562.307 97 565.575 97C568.842 97 571.783 97.7727 574.444 99.2727C577.104 100.773 579.205 102.818 580.745 105.409C582.239 108.045 583.033 110.909 583.033 114C583.033 117.136 582.239 120 580.745 122.591C579.205 125.227 577.104 127.273 574.444 128.773C571.783 130.273 568.842 131 565.575 131ZM565.575 125.182C567.629 125.182 569.496 124.727 571.223 123.773C572.903 122.864 574.257 121.545 575.237 119.818C576.218 118.136 576.731 116.182 576.731 114C576.731 111.818 576.218 109.909 575.237 108.182C574.257 106.5 572.903 105.182 571.223 104.227C569.496 103.318 567.629 102.818 565.575 102.818C563.521 102.818 561.607 103.318 559.926 104.227C558.246 105.182 556.892 106.5 555.912 108.182C554.932 109.909 554.465 111.818 554.465 114C554.465 116.182 554.932 118.136 555.912 119.818C556.892 121.545 558.246 122.864 559.926 123.773C561.607 124.727 563.521 125.182 565.575 125.182Z" stroke="#202124" stroke-width="8" mask="url(#path-40-outside-1_454_479)"/>
<path d="M589.934 97.7273H601.697C603.798 97.7273 605.712 98.1818 607.485 99.0455C609.213 99.9091 610.566 101.136 611.593 102.682C612.573 104.227 613.087 106 613.087 108C613.087 110 612.573 111.818 611.593 113.364C610.566 114.955 609.213 116.182 607.485 117.045C605.712 117.909 603.798 118.318 601.697 118.318H596.236V130.273H589.934V97.7273ZM601.884 112.5C603.424 112.5 604.638 112.091 605.525 111.182C606.412 110.318 606.879 109.273 606.879 108C606.879 106.773 606.412 105.727 605.525 104.864C604.638 104 603.424 103.545 601.884 103.545H596.236V112.5H601.884Z" stroke="#202124" stroke-width="8" mask="url(#path-40-outside-1_454_479)"/>
<path d="M619.358 97.7273H640.551V103.545H625.66V111.091H639.057V116.909H625.66V124.455H640.551V130.273H619.358V97.7273Z" stroke="#202124" stroke-width="8" mask="url(#path-40-outside-1_454_479)"/>
<path d="M647.962 97.7273H660.146C662.293 97.7273 664.253 98.1818 665.934 99.0455C667.614 99.9545 668.968 101.182 669.902 102.727C670.835 104.273 671.302 106.045 671.302 108C671.302 110.091 670.602 111.955 669.248 113.591C667.894 115.227 666.214 116.364 664.16 117.091L664.113 117.409L673.076 129.909V130.273H665.841L657.205 118.045H654.264V130.273H647.962V97.7273ZM660.099 112.409C661.499 112.409 662.666 112 663.6 111.136C664.487 110.318 664.954 109.227 664.954 107.909C664.954 106.682 664.487 105.636 663.647 104.727C662.806 103.864 661.639 103.409 660.192 103.409H654.264V112.409H660.099Z" stroke="#202124" stroke-width="8" mask="url(#path-40-outside-1_454_479)"/>
<path d="M688.564 131C685.623 131 683.055 130.227 680.815 128.591C678.574 127 676.987 124.727 676.1 121.773L682.028 119.5C682.495 121.227 683.289 122.636 684.409 123.636C685.529 124.682 686.93 125.182 688.61 125.182C690.011 125.182 691.178 124.864 692.205 124.182C693.185 123.5 693.698 122.545 693.698 121.318C693.698 120.136 693.185 119.136 692.251 118.364C691.318 117.591 689.637 116.773 687.21 115.864L685.156 115.136C683.009 114.409 681.142 113.318 679.648 111.818C678.107 110.318 677.36 108.409 677.36 106.136C677.36 104.455 677.781 102.909 678.714 101.5C679.601 100.136 680.861 99.0455 682.542 98.2273C684.176 97.4091 686.043 97 688.143 97C691.131 97 693.512 97.7273 695.285 99.0909C697.013 100.455 698.226 102.091 698.88 103.909L693.325 106.182C692.951 105.182 692.345 104.364 691.504 103.682C690.664 103 689.544 102.636 688.237 102.636C686.836 102.636 685.716 102.955 684.829 103.591C683.942 104.227 683.522 105 683.522 106C683.522 107 683.942 107.818 684.782 108.5C685.623 109.182 686.976 109.818 688.937 110.455L691.038 111.136C693.932 112.136 696.126 113.409 697.666 115C699.206 116.591 700 118.682 700 121.227C700 123.364 699.44 125.182 698.32 126.636C697.199 128.091 695.752 129.182 693.978 129.909C692.205 130.636 690.431 131 688.564 131Z" stroke="#202124" stroke-width="8" mask="url(#path-40-outside-1_454_479)"/>
<defs>
<linearGradient id="paint0_linear_454_479" x1="146" y1="271.044" x2="713.085" y2="271.044" gradientUnits="userSpaceOnUse">
<stop stop-color="#34A853"/>
<stop offset="0.1296" stop-color="#34A853"/>
<stop offset="0.2654" stop-color="#4285F4"/>
<stop offset="0.3872" stop-color="#4285F4"/>
<stop offset="0.5095" stop-color="#9F6CD4"/>
<stop offset="0.6046" stop-color="#EA4335"/>
<stop offset="0.7016" stop-color="#EA4335"/>
<stop offset="0.8086" stop-color="#F46831"/>
<stop offset="0.8293" stop-color="#F46831"/>
<stop offset="0.9115" stop-color="#FFCB32"/>
<stop offset="1" stop-color="#FFCB32"/>
</linearGradient>
<linearGradient id="paint1_linear_454_479" x1="157.999" y1="114" x2="699.999" y2="114" gradientUnits="userSpaceOnUse">
<stop stop-color="#4285F4"/>
<stop offset="0.1876" stop-color="#4285F4"/>
<stop offset="0.5152" stop-color="#9F6CD4"/>
<stop offset="0.7712" stop-color="#EA4335"/>
<stop offset="0.9988" stop-color="#EA4335"/>
</linearGradient>
<linearGradient id="paint2_linear_454_479" x1="157.999" y1="114" x2="699.999" y2="114" gradientUnits="userSpaceOnUse">
<stop stop-color="#4285F4"/>
<stop offset="0.1876" stop-color="#4285F4"/>
<stop offset="0.5152" stop-color="#9F6CD4"/>
<stop offset="0.7712" stop-color="#EA4335"/>
<stop offset="0.9988" stop-color="#EA4335"/>
</linearGradient>
<linearGradient id="paint3_linear_454_479" x1="157.999" y1="114" x2="699.999" y2="114" gradientUnits="userSpaceOnUse">
<stop stop-color="#4285F4"/>
<stop offset="0.1876" stop-color="#4285F4"/>
<stop offset="0.5152" stop-color="#9F6CD4"/>
<stop offset="0.7712" stop-color="#EA4335"/>
<stop offset="0.9988" stop-color="#EA4335"/>
</linearGradient>
<linearGradient id="paint4_linear_454_479" x1="157.999" y1="114" x2="699.999" y2="114" gradientUnits="userSpaceOnUse">
<stop stop-color="#4285F4"/>
<stop offset="0.1876" stop-color="#4285F4"/>
<stop offset="0.5152" stop-color="#9F6CD4"/>
<stop offset="0.7712" stop-color="#EA4335"/>
<stop offset="0.9988" stop-color="#EA4335"/>
</linearGradient>
<linearGradient id="paint5_linear_454_479" x1="157.999" y1="114" x2="699.999" y2="114" gradientUnits="userSpaceOnUse">
<stop stop-color="#4285F4"/>
<stop offset="0.1876" stop-color="#4285F4"/>
<stop offset="0.5152" stop-color="#9F6CD4"/>
<stop offset="0.7712" stop-color="#EA4335"/>
<stop offset="0.9988" stop-color="#EA4335"/>
</linearGradient>
<linearGradient id="paint6_linear_454_479" x1="157.999" y1="114" x2="699.999" y2="114" gradientUnits="userSpaceOnUse">
<stop stop-color="#4285F4"/>
<stop offset="0.1876" stop-color="#4285F4"/>
<stop offset="0.5152" stop-color="#9F6CD4"/>
<stop offset="0.7712" stop-color="#EA4335"/>
<stop offset="0.9988" stop-color="#EA4335"/>
</linearGradient>
<linearGradient id="paint7_linear_454_479" x1="157.999" y1="114" x2="699.999" y2="114" gradientUnits="userSpaceOnUse">
<stop stop-color="#4285F4"/>
<stop offset="0.1876" stop-color="#4285F4"/>
<stop offset="0.5152" stop-color="#9F6CD4"/>
<stop offset="0.7712" stop-color="#EA4335"/>
<stop offset="0.9988" stop-color="#EA4335"/>
</linearGradient>
<linearGradient id="paint8_linear_454_479" x1="157.999" y1="114" x2="699.999" y2="114" gradientUnits="userSpaceOnUse">
<stop stop-color="#4285F4"/>
<stop offset="0.1876" stop-color="#4285F4"/>
<stop offset="0.5152" stop-color="#9F6CD4"/>
<stop offset="0.7712" stop-color="#EA4335"/>
<stop offset="0.9988" stop-color="#EA4335"/>
</linearGradient>
<linearGradient id="paint9_linear_454_479" x1="157.999" y1="114" x2="699.999" y2="114" gradientUnits="userSpaceOnUse">
<stop stop-color="#4285F4"/>
<stop offset="0.1876" stop-color="#4285F4"/>
<stop offset="0.5152" stop-color="#9F6CD4"/>
<stop offset="0.7712" stop-color="#EA4335"/>
<stop offset="0.9988" stop-color="#EA4335"/>
</linearGradient>
<linearGradient id="paint10_linear_454_479" x1="157.999" y1="114" x2="699.999" y2="114" gradientUnits="userSpaceOnUse">
<stop stop-color="#4285F4"/>
<stop offset="0.1876" stop-color="#4285F4"/>
<stop offset="0.5152" stop-color="#9F6CD4"/>
<stop offset="0.7712" stop-color="#EA4335"/>
<stop offset="0.9988" stop-color="#EA4335"/>
</linearGradient>
<linearGradient id="paint11_linear_454_479" x1="157.999" y1="114" x2="699.999" y2="114" gradientUnits="userSpaceOnUse">
<stop stop-color="#4285F4"/>
<stop offset="0.1876" stop-color="#4285F4"/>
<stop offset="0.5152" stop-color="#9F6CD4"/>
<stop offset="0.7712" stop-color="#EA4335"/>
<stop offset="0.9988" stop-color="#EA4335"/>
</linearGradient>
<linearGradient id="paint12_linear_454_479" x1="157.999" y1="114" x2="699.999" y2="114" gradientUnits="userSpaceOnUse">
<stop stop-color="#4285F4"/>
<stop offset="0.1876" stop-color="#4285F4"/>
<stop offset="0.5152" stop-color="#9F6CD4"/>
<stop offset="0.7712" stop-color="#EA4335"/>
<stop offset="0.9988" stop-color="#EA4335"/>
</linearGradient>
<linearGradient id="paint13_linear_454_479" x1="157.999" y1="114" x2="699.999" y2="114" gradientUnits="userSpaceOnUse">
<stop stop-color="#4285F4"/>
<stop offset="0.1876" stop-color="#4285F4"/>
<stop offset="0.5152" stop-color="#9F6CD4"/>
<stop offset="0.7712" stop-color="#EA4335"/>
<stop offset="0.9988" stop-color="#EA4335"/>
</linearGradient>
<linearGradient id="paint14_linear_454_479" x1="157.999" y1="114" x2="699.999" y2="114" gradientUnits="userSpaceOnUse">
<stop stop-color="#4285F4"/>
<stop offset="0.1876" stop-color="#4285F4"/>
<stop offset="0.5152" stop-color="#9F6CD4"/>
<stop offset="0.7712" stop-color="#EA4335"/>
<stop offset="0.9988" stop-color="#EA4335"/>
</linearGradient>
<linearGradient id="paint15_linear_454_479" x1="157.999" y1="114" x2="699.999" y2="114" gradientUnits="userSpaceOnUse">
<stop stop-color="#4285F4"/>
<stop offset="0.1876" stop-color="#4285F4"/>
<stop offset="0.5152" stop-color="#9F6CD4"/>
<stop offset="0.7712" stop-color="#EA4335"/>
<stop offset="0.9988" stop-color="#EA4335"/>
</linearGradient>
<linearGradient id="paint16_linear_454_479" x1="157.999" y1="114" x2="699.999" y2="114" gradientUnits="userSpaceOnUse">
<stop stop-color="#4285F4"/>
<stop offset="0.1876" stop-color="#4285F4"/>
<stop offset="0.5152" stop-color="#9F6CD4"/>
<stop offset="0.7712" stop-color="#EA4335"/>
<stop offset="0.9988" stop-color="#EA4335"/>
</linearGradient>
<linearGradient id="paint17_linear_454_479" x1="157.999" y1="114" x2="699.999" y2="114" gradientUnits="userSpaceOnUse">
<stop stop-color="#4285F4"/>
<stop offset="0.1876" stop-color="#4285F4"/>
<stop offset="0.5152" stop-color="#9F6CD4"/>
<stop offset="0.7712" stop-color="#EA4335"/>
<stop offset="0.9988" stop-color="#EA4335"/>
</linearGradient>
</defs>
</svg>
