<svg width="644" height="534" viewBox="0 0 644 534" fill="none" xmlns="http://www.w3.org/2000/svg">
<path d="M1 447V620.891C1 651.331 55.3127 676 122.313 676H470.687C537.687 676 592 651.331 592 620.891V447" fill="#EEEEEE"/>
<path d="M1 447V620.891C1 651.331 55.3127 676 122.313 676H470.687C537.687 676 592 651.331 592 620.891V447" stroke="#202124" stroke-width="1.8" stroke-miterlimit="10"/>
<path d="M1.08801 487.626C1.08801 496.299 55.364 503.329 122.319 503.329H470.457C537.412 503.329 591.688 496.299 591.688 487.626" stroke="#202124" stroke-width="1.8" stroke-miterlimit="10"/>
<path d="M1.08801 527.752C1.08801 536.425 55.364 543.455 122.319 543.455H470.457C537.412 543.455 591.688 536.425 591.688 527.752" stroke="#202124" stroke-width="1.8" stroke-miterlimit="10"/>
<path d="M470.386 431.1H122.235C55.2779 431.1 1 438.521 1 447.67C1 456.826 55.2779 464.24 122.235 464.24H470.386C537.343 464.24 591.621 456.819 591.621 447.67C591.621 438.515 537.343 431.1 470.386 431.1Z" fill="#EEEEEE" stroke="#202124" stroke-width="1.8" stroke-miterlimit="10"/>
<path d="M32.0839 459.216V615.966" stroke="#202124" stroke-width="1.8" stroke-miterlimit="10"/>
<path d="M559.009 459.216V615.966" stroke="#202124" stroke-width="1.8" stroke-miterlimit="10"/>
<path d="M81.2102 463.157V622.864" stroke="#202124" stroke-width="1.8" stroke-miterlimit="10"/>
<path d="M152.45 463.157V623.849" stroke="#202124" stroke-width="1.8" stroke-miterlimit="10"/>
<path d="M224.921 463.157V623.849" stroke="#202124" stroke-width="1.8" stroke-miterlimit="10"/>
<path d="M297.385 463.157V623.849" stroke="#202124" stroke-width="1.8" stroke-miterlimit="10"/>
<path d="M369.856 463.157V623.849" stroke="#202124" stroke-width="1.8" stroke-miterlimit="10"/>
<path d="M443.552 463.157V623.849" stroke="#202124" stroke-width="1.8" stroke-miterlimit="10"/>
<path d="M516.02 463.157V620.892" stroke="#202124" stroke-width="1.8" stroke-miterlimit="10"/>
<path d="M425.674 456.259L167.738 431.613L281.668 430.627L425.674 456.259Z" fill="#202124"/>
<path d="M459.7 452.315L532.168 432.598L494.979 431.612C494.979 431.612 488.224 444.228 459.7 452.315Z" fill="#202124"/>
<path d="M52.0174 280.416L42.4913 332.637C37.0507 362.448 77.4694 394.757 132.754 404.81L163.325 410.369L362.782 446.636L393.353 452.195C448.644 462.248 497.871 446.234 503.305 416.423L512.503 366.024" fill="url(#paint0_linear_7904_10798)"/>
<path d="M52.0174 280.416L42.4913 332.637C37.0507 362.448 77.4694 394.757 132.754 404.81L163.325 410.369L362.782 446.636L393.353 452.195C448.644 462.248 497.871 446.234 503.305 416.423L512.503 366.024" stroke="#202124" stroke-width="1.8" stroke-miterlimit="10"/>
<path d="M47.1738 306.972C41.7332 336.783 82.1519 369.092 137.437 379.145L168.007 384.704L367.465 420.972L398.035 426.531C453.327 436.584 502.554 420.57 507.988 390.759" stroke="#202124" stroke-width="1.8" stroke-miterlimit="10"/>
<path d="M420.956 300.914L390.385 295.355L190.928 259.088L160.357 253.529C105.066 243.476 56.2746 257.105 51.3707 283.969C46.4668 310.833 87.3148 340.765 142.606 350.818L173.177 356.377L372.634 392.644L403.205 398.203C458.496 408.256 507.287 394.627 512.191 367.763C517.095 340.899 476.247 310.967 420.956 300.914Z" fill="#EEEEEE" stroke="#202124" stroke-width="1.8" stroke-miterlimit="10"/>
<path d="M64.0005 315.002L54.0005 366.002" stroke="#202124" stroke-width="1.8" stroke-miterlimit="10"/>
<path d="M491 391.002L482 443.002" stroke="#202124" stroke-width="1.8" stroke-miterlimit="10"/>
<path d="M103.496 340.534L93.9901 392.648" stroke="#202124" stroke-width="1.8" stroke-miterlimit="10"/>
<path d="M159.569 353.592L149.66 407.882" stroke="#202124" stroke-width="1.8" stroke-miterlimit="10"/>
<path d="M217.071 363.091L206.995 418.306" stroke="#202124" stroke-width="1.8" stroke-miterlimit="10"/>
<path d="M274.242 374.439L264.333 428.736" stroke="#202124" stroke-width="1.8" stroke-miterlimit="10"/>
<path d="M331.584 384.865L321.676 439.155" stroke="#202124" stroke-width="1.8" stroke-miterlimit="10"/>
<path d="M389.127 395.5L379.01 449.589" stroke="#202124" stroke-width="1.8" stroke-miterlimit="10"/>
<path d="M447.102 401.096L437.254 455.058" stroke="#202124" stroke-width="1.8" stroke-miterlimit="10"/>
<ellipse cx="125.114" cy="291.535" rx="26.5568" ry="18.4716" transform="rotate(11.8792 125.114 291.535)" stroke="#202124" stroke-width="1.8"/>
<line x1="143.477" y1="306.946" x2="165.551" y2="328.45" stroke="#202124" stroke-width="1.8"/>
<path fill-rule="evenodd" clip-rule="evenodd" d="M329.632 334.111C329.314 334.093 328.999 334.075 328.684 334.051L328.667 334.038C326.719 333.909 324.754 333.774 322.781 333.614C295.035 331.355 269.633 326.077 249.109 318.95L126.459 275.651C121.937 274.053 120.43 272.052 120.597 270.188C120.763 268.325 122.594 266.598 127.335 265.756L178.048 256.74L190.934 259.083L390.391 295.35L420.961 300.909C431.403 302.808 441.33 305.415 450.531 308.577C450.44 308.683 450.35 308.786 450.261 308.889C450.197 308.961 450.134 309.033 450.07 309.105C449.654 309.582 449.21 310.057 448.75 310.525C448.673 310.601 448.599 310.679 448.524 310.756C448.45 310.834 448.375 310.911 448.299 310.987C447.715 311.561 447.089 312.119 446.436 312.675C446.228 312.847 446.011 313.024 445.794 313.196C445.275 313.617 444.739 314.03 444.186 314.443C444.094 314.509 444.004 314.577 443.914 314.644C443.772 314.75 443.631 314.856 443.482 314.959C442.752 315.479 441.996 315.991 441.205 316.494C440.945 316.656 440.676 316.824 440.407 316.985C439.794 317.363 439.172 317.734 438.525 318.097L438.523 318.098C438.218 318.274 437.913 318.451 437.599 318.62C436.777 319.079 435.928 319.524 435.045 319.96C435.026 319.97 435.006 319.979 434.985 319.988C434.964 319.997 434.944 320.006 434.925 320.017C434.747 320.106 434.564 320.191 434.381 320.278C434.281 320.325 434.181 320.372 434.08 320.42C433.345 320.776 432.583 321.124 431.813 321.466C431.465 321.621 431.126 321.771 430.778 321.921C429.781 322.342 428.766 322.762 427.725 323.168C427.523 323.252 427.311 323.331 427.099 323.409C426.976 323.455 426.852 323.501 426.731 323.547C425.901 323.866 425.045 324.177 424.18 324.482C424.039 324.531 423.898 324.58 423.756 324.63C423.523 324.712 423.289 324.795 423.052 324.875C421.934 325.251 420.79 325.625 419.629 325.986C419.355 326.072 419.077 326.155 418.801 326.237C418.702 326.266 418.603 326.296 418.505 326.325C417.571 326.606 416.62 326.885 415.652 327.152C415.453 327.206 415.256 327.261 415.059 327.316C414.862 327.371 414.666 327.426 414.467 327.48C413.228 327.811 411.964 328.133 410.682 328.449C410.447 328.506 410.209 328.562 409.969 328.617C409.804 328.655 409.639 328.694 409.473 328.733C408.427 328.981 407.364 329.222 406.283 329.456L405.094 329.712C403.735 329.997 402.359 330.269 400.957 330.533C400.829 330.557 400.7 330.581 400.569 330.605C400.278 330.658 399.982 330.711 399.691 330.764C398.523 330.979 397.347 331.182 396.154 331.376C395.769 331.438 395.392 331.501 395.006 331.563C393.536 331.797 392.04 332.018 390.527 332.225C390.097 332.283 389.659 332.341 389.22 332.399C387.923 332.568 386.617 332.73 385.303 332.886C384.956 332.932 384.609 332.972 384.262 333.012L384.257 333.013C382.676 333.191 381.069 333.354 379.454 333.505C379.008 333.551 378.562 333.59 378.116 333.629C376.697 333.758 375.271 333.875 373.828 333.979C373.525 334.004 373.222 334.03 372.91 334.049C371.227 334.171 369.527 334.273 367.81 334.362C367.358 334.388 366.906 334.409 366.453 334.429L366.45 334.429C364.903 334.501 363.357 334.566 361.785 334.618C361.74 334.619 361.696 334.62 361.652 334.621C361.441 334.628 361.233 334.641 361.021 334.645C359.245 334.693 357.461 334.735 355.661 334.757L355.657 334.757C355.197 334.765 354.737 334.773 354.278 334.774C352.602 334.794 350.918 334.8 349.218 334.788C349.125 334.787 349.034 334.788 348.943 334.788C348.852 334.789 348.762 334.79 348.669 334.789C346.818 334.777 344.951 334.74 343.077 334.696C342.842 334.69 342.608 334.683 342.374 334.676C342.139 334.669 341.905 334.662 341.671 334.657C339.859 334.605 338.038 334.547 336.21 334.465L336.187 334.464C336.09 334.463 335.999 334.461 335.901 334.454C333.985 334.364 332.061 334.262 330.121 334.141C329.957 334.13 329.794 334.121 329.632 334.111Z" fill="#202124"/>
<path d="M328.684 334.051L328.123 334.755L328.34 334.928L328.617 334.948L328.684 334.051ZM329.632 334.111L329.579 335.01L329.632 334.111ZM328.667 334.038L329.228 333.334L329.008 333.158L328.726 333.139L328.667 334.038ZM322.781 333.614L322.708 334.511L322.708 334.511L322.781 333.614ZM249.109 318.95L248.809 319.799L248.814 319.8L249.109 318.95ZM126.459 275.651L126.159 276.5L126.159 276.5L126.459 275.651ZM120.597 270.188L119.7 270.108L120.597 270.188ZM127.335 265.756L127.492 266.642L127.493 266.642L127.335 265.756ZM178.048 256.74L178.209 255.854L178.05 255.825L177.891 255.854L178.048 256.74ZM190.934 259.083L190.772 259.968L190.772 259.968L190.934 259.083ZM390.391 295.35L390.552 294.465L390.391 295.35ZM420.961 300.909L420.8 301.795L420.8 301.795L420.961 300.909ZM450.531 308.577L451.215 309.162L452.074 308.156L450.823 307.726L450.531 308.577ZM450.261 308.889L450.938 309.482L450.938 309.482L450.261 308.889ZM450.07 309.105L449.395 308.51L449.393 308.513L450.07 309.105ZM448.75 310.525L449.384 311.164L449.391 311.156L448.75 310.525ZM448.524 310.756L447.875 310.133L447.875 310.133L448.524 310.756ZM448.299 310.987L448.93 311.629L448.933 311.626L448.299 310.987ZM446.436 312.675L447.01 313.368L447.019 313.36L446.436 312.675ZM445.794 313.196L445.236 312.49L445.227 312.497L445.794 313.196ZM444.186 314.443L444.714 315.171L444.723 315.165L444.186 314.443ZM443.914 314.644L443.375 313.923L443.375 313.923L443.914 314.644ZM443.482 314.959L442.968 314.22L442.96 314.226L443.482 314.959ZM441.205 316.494L441.681 317.259L441.689 317.254L441.205 316.494ZM440.407 316.985L439.944 316.213L439.935 316.219L440.407 316.985ZM438.525 318.097L438.085 317.312L438.076 317.316L438.525 318.097ZM438.523 318.098L438.074 317.317L438.072 317.319L438.523 318.098ZM437.599 318.62L437.171 317.829L437.161 317.834L437.599 318.62ZM435.045 319.96L434.646 319.153L434.62 319.166L434.594 319.181L435.045 319.96ZM434.925 320.017L435.325 320.824L435.351 320.811L435.376 320.796L434.925 320.017ZM434.381 320.278L433.998 319.463L433.998 319.463L434.381 320.278ZM434.08 320.42L433.692 319.607L433.688 319.61L434.08 320.42ZM431.813 321.466L431.448 320.643L431.446 320.644L431.813 321.466ZM430.778 321.921L431.128 322.75L431.133 322.748L430.778 321.921ZM427.725 323.168L427.398 322.33L427.389 322.333L427.379 322.337L427.725 323.168ZM427.099 323.409L426.787 322.565L426.787 322.565L427.099 323.409ZM426.731 323.547L427.054 324.388L427.055 324.387L426.731 323.547ZM424.18 324.482L424.475 325.332L424.479 325.331L424.18 324.482ZM423.756 324.63L423.457 323.782V323.782L423.756 324.63ZM423.052 324.875L423.339 325.728L423.34 325.728L423.052 324.875ZM419.629 325.986L419.362 325.126L419.358 325.127L419.629 325.986ZM418.801 326.237L419.057 327.099L419.057 327.099L418.801 326.237ZM418.505 326.325L418.247 325.463L418.246 325.463L418.505 326.325ZM415.652 327.152L415.891 328.019L415.891 328.019L415.652 327.152ZM415.059 327.316L415.3 328.183L415.3 328.183L415.059 327.316ZM414.467 327.48L414.699 328.35L414.705 328.348L414.467 327.48ZM410.682 328.449L410.896 329.323L410.897 329.323L410.682 328.449ZM409.969 328.617L409.766 327.741L409.969 328.617ZM409.473 328.733L409.681 329.609L409.682 329.609L409.473 328.733ZM406.283 329.456L406.472 330.336L406.473 330.336L406.283 329.456ZM405.094 329.712L405.279 330.592L405.284 330.591L405.094 329.712ZM400.957 330.533L400.791 329.648L400.791 329.648L400.957 330.533ZM400.569 330.605L400.407 329.719V329.72L400.569 330.605ZM399.691 330.764L399.529 329.879L399.528 329.879L399.691 330.764ZM396.154 331.376L396.297 332.265L396.299 332.265L396.154 331.376ZM395.006 331.563L395.148 332.451L395.149 332.451L395.006 331.563ZM390.527 332.225L390.648 333.117L390.649 333.116L390.527 332.225ZM389.22 332.399L389.337 333.291L389.338 333.291L389.22 332.399ZM385.303 332.886L385.198 331.992L385.185 331.993L385.303 332.886ZM384.262 333.012L384.365 333.906L384.366 333.906L384.262 333.012ZM384.257 333.013L384.358 333.907L384.36 333.907L384.257 333.013ZM379.454 333.505L379.37 332.609L379.363 332.61L379.454 333.505ZM378.116 333.629L378.037 332.732L378.034 332.733L378.116 333.629ZM373.828 333.979L373.764 333.081L373.752 333.082L373.828 333.979ZM372.91 334.049L372.856 333.151L372.845 333.151L372.91 334.049ZM367.81 334.362L367.764 333.463L367.758 333.464L367.81 334.362ZM366.453 334.429L366.493 335.328L366.494 335.328L366.453 334.429ZM366.45 334.429L366.41 333.53L366.408 333.53L366.45 334.429ZM361.785 334.618L361.802 335.518L361.814 335.517L361.785 334.618ZM361.652 334.621L361.622 333.722H361.622L361.652 334.621ZM361.021 334.645L361.004 333.745L360.996 333.745L361.021 334.645ZM355.661 334.757L355.65 333.857L355.644 333.857L355.661 334.757ZM355.657 334.757L355.673 335.657L355.674 335.657L355.657 334.757ZM354.278 334.774L354.274 333.874L354.267 333.874L354.278 334.774ZM349.218 334.788L349.209 335.688L349.211 335.688L349.218 334.788ZM348.943 334.788L348.951 335.688H348.951L348.943 334.788ZM348.669 334.789L348.678 333.889L348.674 333.889L348.669 334.789ZM343.077 334.696L343.055 335.596L343.077 334.696ZM342.374 334.676L342.347 335.576H342.347L342.374 334.676ZM341.671 334.657L341.645 335.556L341.65 335.557L341.671 334.657ZM336.21 334.465L336.251 333.566L336.239 333.565L336.226 333.565L336.21 334.465ZM336.187 334.464L336.203 333.564H336.203L336.187 334.464ZM335.901 334.454L335.968 333.556L335.956 333.555L335.943 333.555L335.901 334.454ZM330.121 334.141L330.178 333.242H330.178L330.121 334.141ZM328.617 334.948C328.94 334.973 329.263 334.991 329.579 335.01L329.684 333.213C329.365 333.194 329.057 333.176 328.752 333.153L328.617 334.948ZM328.107 334.741L328.123 334.755L329.245 333.347L329.228 333.334L328.107 334.741ZM322.708 334.511C324.688 334.672 326.658 334.807 328.608 334.936L328.726 333.139C326.78 333.011 324.82 332.876 322.854 332.717L322.708 334.511ZM248.814 319.8C269.419 326.955 294.897 332.247 322.708 334.511L322.854 332.717C295.172 330.463 269.846 325.198 249.404 318.1L248.814 319.8ZM126.159 276.5L248.809 319.799L249.408 318.101L126.759 274.803L126.159 276.5ZM119.7 270.108C119.59 271.345 120.054 272.562 121.129 273.651C122.183 274.719 123.831 275.677 126.159 276.5L126.759 274.803C124.565 274.027 123.199 273.186 122.41 272.387C121.643 271.61 121.437 270.894 121.493 270.268L119.7 270.108ZM127.178 264.87C124.737 265.303 122.948 265.979 121.725 266.858C120.479 267.754 119.811 268.873 119.7 270.108L121.493 270.268C121.549 269.639 121.88 268.964 122.776 268.32C123.695 267.659 125.192 267.051 127.492 266.642L127.178 264.87ZM177.891 255.854L127.177 264.87L127.493 266.642L178.206 257.626L177.891 255.854ZM191.095 258.197L178.209 255.854L177.887 257.625L190.772 259.968L191.095 258.197ZM390.552 294.465L191.095 258.197L190.772 259.968L390.23 296.236L390.552 294.465ZM421.122 300.024L390.552 294.465L390.23 296.236L420.8 301.795L421.122 300.024ZM450.823 307.726C441.578 304.549 431.608 301.93 421.122 300.024L420.8 301.795C431.199 303.685 441.081 306.281 450.238 309.428L450.823 307.726ZM450.938 309.482C451.029 309.377 451.121 309.271 451.215 309.162L449.846 307.992C449.759 308.094 449.672 308.195 449.584 308.296L450.938 309.482ZM450.746 309.7C450.809 309.628 450.873 309.555 450.938 309.482L449.584 308.296C449.521 308.367 449.458 308.438 449.395 308.51L450.746 309.7ZM449.391 311.156C449.863 310.677 450.318 310.189 450.748 309.697L449.393 308.513C448.989 308.975 448.558 309.437 448.109 309.894L449.391 311.156ZM449.173 311.38C449.249 311.3 449.316 311.231 449.384 311.164L448.116 309.886C448.03 309.971 447.948 310.057 447.875 310.133L449.173 311.38ZM448.933 311.626C449.018 311.541 449.1 311.456 449.174 311.38L447.875 310.133C447.799 310.212 447.732 310.282 447.665 310.348L448.933 311.626ZM447.019 313.36C447.681 312.796 448.325 312.223 448.93 311.629L447.668 310.345C447.105 310.899 446.496 311.441 445.852 311.99L447.019 313.36ZM446.353 313.902C446.576 313.725 446.799 313.543 447.009 313.368L445.862 311.982C445.657 312.152 445.445 312.324 445.236 312.49L446.353 313.902ZM444.723 315.165C445.285 314.746 445.831 314.325 446.361 313.895L445.227 312.497C444.72 312.909 444.194 313.315 443.648 313.721L444.723 315.165ZM444.452 315.365C444.544 315.297 444.629 315.233 444.714 315.171L443.657 313.714C443.56 313.785 443.464 313.856 443.375 313.923L444.452 315.365ZM443.997 315.697C444.159 315.584 444.313 315.469 444.452 315.365L443.375 313.923C443.232 314.03 443.102 314.127 442.968 314.22L443.997 315.697ZM441.689 317.254C442.494 316.741 443.263 316.22 444.005 315.692L442.96 314.226C442.242 314.737 441.499 315.241 440.722 315.735L441.689 317.254ZM440.87 317.757C441.146 317.591 441.421 317.42 441.681 317.259L440.73 315.73C440.469 315.893 440.206 316.056 439.944 316.213L440.87 317.757ZM438.965 318.882C439.626 318.511 440.258 318.133 440.879 317.752L439.935 316.219C439.329 316.592 438.718 316.956 438.085 317.312L438.965 318.882ZM438.971 318.878L438.973 318.877L438.076 317.316L438.074 317.317L438.971 318.878ZM438.028 319.412C438.354 319.235 438.67 319.052 438.973 318.877L438.072 317.319C437.766 317.496 437.471 317.666 437.171 317.829L438.028 319.412ZM435.443 320.767C436.339 320.324 437.201 319.873 438.038 319.406L437.161 317.834C436.352 318.285 435.517 318.723 434.646 319.153L435.443 320.767ZM435.346 320.813C435.358 320.808 435.426 320.779 435.495 320.739L434.594 319.181C434.614 319.169 434.629 319.162 434.632 319.16C434.634 319.159 434.635 319.159 434.634 319.16C434.632 319.161 434.629 319.162 434.624 319.164L435.346 320.813ZM435.376 320.796C435.356 320.808 435.341 320.815 435.338 320.816C435.336 320.817 435.335 320.818 435.336 320.817C435.338 320.816 435.341 320.815 435.346 320.813L434.624 319.164C434.612 319.169 434.544 319.198 434.475 319.238L435.376 320.796ZM434.764 321.092C434.946 321.006 435.136 320.917 435.325 320.824L434.526 319.211C434.357 319.294 434.183 319.376 433.998 319.463L434.764 321.092ZM434.468 321.232C434.565 321.185 434.663 321.139 434.764 321.092L433.998 319.463C433.898 319.51 433.796 319.558 433.692 319.607L434.468 321.232ZM432.178 322.289C432.954 321.944 433.725 321.592 434.472 321.23L433.688 319.61C432.964 319.96 432.212 320.304 431.448 320.643L432.178 322.289ZM431.133 322.748C431.487 322.596 431.83 322.444 432.18 322.288L431.446 320.644C431.099 320.799 430.765 320.947 430.423 321.094L431.133 322.748ZM428.052 324.007C429.104 323.596 430.127 323.173 431.128 322.75L430.428 321.092C429.434 321.511 428.428 321.928 427.398 322.33L428.052 324.007ZM427.412 324.253C427.62 324.176 427.85 324.091 428.071 323.999L427.379 322.337C427.197 322.413 427.002 322.486 426.787 322.565L427.412 324.253ZM427.055 324.387C427.169 324.343 427.287 324.299 427.412 324.253L426.787 322.565C426.664 322.611 426.535 322.658 426.407 322.708L427.055 324.387ZM424.479 325.331C425.349 325.024 426.213 324.71 427.054 324.388L426.408 322.707C425.588 323.022 424.741 323.33 423.882 323.633L424.479 325.331ZM424.055 325.479C424.198 325.429 424.337 325.38 424.475 325.332L423.885 323.631C423.742 323.681 423.598 323.732 423.457 323.782L424.055 325.479ZM423.34 325.728C423.584 325.646 423.824 325.561 424.055 325.479L423.457 323.782C423.223 323.864 422.995 323.944 422.765 324.022L423.34 325.728ZM419.896 326.845C421.065 326.482 422.216 326.106 423.339 325.728L422.765 324.022C421.652 324.396 420.515 324.768 419.362 325.126L419.896 326.845ZM419.057 327.099C419.332 327.018 419.617 326.933 419.9 326.844L419.358 325.127C419.093 325.211 418.821 325.292 418.544 325.374L419.057 327.099ZM418.763 327.187C418.86 327.158 418.958 327.129 419.057 327.099L418.544 325.374C418.445 325.403 418.346 325.433 418.247 325.463L418.763 327.187ZM415.891 328.019C416.868 327.75 417.827 327.469 418.764 327.187L418.246 325.463C417.315 325.743 416.372 326.02 415.413 326.284L415.891 328.019ZM415.3 328.183C415.497 328.128 415.693 328.074 415.891 328.019L415.414 326.284C415.213 326.339 415.014 326.394 414.817 326.449L415.3 328.183ZM414.705 328.348C414.906 328.293 415.104 328.238 415.3 328.183L414.817 326.449C414.62 326.504 414.425 326.558 414.228 326.612L414.705 328.348ZM410.897 329.323C412.184 329.006 413.454 328.682 414.699 328.35L414.235 326.611C413.003 326.94 411.744 327.261 410.467 327.575L410.897 329.323ZM410.172 329.494C410.411 329.439 410.655 329.382 410.896 329.323L410.468 327.575C410.239 327.631 410.006 327.685 409.766 327.741L410.172 329.494ZM409.682 329.609C409.844 329.57 410.007 329.532 410.172 329.494L409.766 327.741C409.601 327.779 409.433 327.818 409.265 327.858L409.682 329.609ZM406.473 330.336C407.56 330.101 408.629 329.859 409.681 329.609L409.266 327.858C408.225 328.104 407.168 328.344 406.093 328.576L406.473 330.336ZM405.284 330.591L406.472 330.336L406.094 328.576L404.905 328.832L405.284 330.591ZM401.124 331.417C402.531 331.152 403.913 330.879 405.279 330.592L404.91 328.831C403.557 329.115 402.188 329.385 400.791 329.648L401.124 331.417ZM400.731 331.49C400.863 331.466 400.994 331.442 401.124 331.417L400.791 329.648C400.665 329.672 400.536 329.696 400.407 329.719L400.731 331.49ZM399.853 331.65C400.125 331.6 400.455 331.541 400.731 331.49L400.407 329.72C400.101 329.776 399.839 329.822 399.529 329.879L399.853 331.65ZM396.299 332.265C397.497 332.069 398.679 331.866 399.854 331.65L399.528 329.879C398.367 330.093 397.197 330.294 396.009 330.488L396.299 332.265ZM395.149 332.451C395.343 332.42 395.535 332.389 395.725 332.358C395.916 332.327 396.105 332.296 396.297 332.265L396.012 330.488C395.818 330.519 395.626 330.55 395.435 330.581C395.245 330.612 395.055 330.643 394.864 330.674L395.149 332.451ZM390.649 333.116C392.168 332.908 393.67 332.687 395.148 332.451L394.865 330.674C393.401 330.907 391.912 331.127 390.405 331.333L390.649 333.116ZM389.338 333.291C389.776 333.233 390.217 333.175 390.648 333.117L390.405 331.333C389.978 331.391 389.541 331.449 389.103 331.507L389.338 333.291ZM385.409 333.779C386.727 333.623 388.036 333.461 389.337 333.291L389.104 331.507C387.81 331.675 386.508 331.837 385.198 331.992L385.409 333.779ZM384.366 333.906C384.711 333.866 385.066 333.825 385.422 333.778L385.185 331.993C384.846 332.039 384.507 332.078 384.158 332.118L384.366 333.906ZM384.36 333.907L384.365 333.906L384.159 332.118L384.154 332.119L384.36 333.907ZM379.538 334.402C381.158 334.25 382.77 334.086 384.358 333.907L384.157 332.118C382.581 332.296 380.98 332.459 379.37 332.609L379.538 334.402ZM378.194 334.525C378.639 334.486 379.091 334.447 379.545 334.401L379.363 332.61C378.924 332.655 378.484 332.693 378.037 332.732L378.194 334.525ZM373.893 334.876C375.342 334.773 376.774 334.655 378.198 334.525L378.034 332.733C376.621 332.862 375.201 332.978 373.764 333.081L373.893 334.876ZM372.965 334.947C373.289 334.928 373.602 334.901 373.904 334.876L373.752 333.082C373.448 333.108 373.155 333.132 372.856 333.151L372.965 334.947ZM367.857 335.261C369.578 335.172 371.285 335.069 372.975 334.947L372.845 333.151C371.169 333.273 369.476 333.375 367.764 333.463L367.857 335.261ZM366.494 335.328C366.945 335.308 367.403 335.287 367.863 335.261L367.758 333.464C367.312 333.49 366.866 333.51 366.413 333.53L366.494 335.328ZM366.49 335.328L366.493 335.328L366.414 333.53L366.41 333.53L366.49 335.328ZM361.814 335.517C363.392 335.466 364.942 335.4 366.491 335.328L366.408 333.53C364.864 333.602 363.322 333.667 361.755 333.718L361.814 335.517ZM361.682 335.521C361.722 335.519 361.762 335.518 361.802 335.518L361.767 333.718C361.718 333.719 361.669 333.72 361.622 333.722L361.682 335.521ZM361.038 335.545C361.251 335.541 361.512 335.526 361.682 335.521L361.622 333.722C361.369 333.73 361.216 333.741 361.004 333.745L361.038 335.545ZM355.672 335.657C357.479 335.635 359.267 335.593 361.045 335.545L360.996 333.745C359.223 333.794 357.444 333.835 355.65 333.857L355.672 335.657ZM355.674 335.657L355.678 335.657L355.644 333.857L355.641 333.857L355.674 335.657ZM354.281 335.674C354.748 335.673 355.213 335.665 355.673 335.657L355.642 333.857C355.181 333.865 354.727 333.873 354.274 333.874L354.281 335.674ZM349.211 335.688C350.918 335.7 352.608 335.694 354.288 335.674L354.267 333.874C352.596 333.894 350.918 333.9 349.225 333.888L349.211 335.688ZM348.951 335.688C349.043 335.688 349.126 335.687 349.209 335.688L349.227 333.888C349.125 333.887 349.026 333.888 348.936 333.888L348.951 335.688ZM348.66 335.689C348.762 335.69 348.861 335.689 348.951 335.688L348.936 333.888C348.844 333.889 348.761 333.89 348.678 333.889L348.66 335.689ZM343.055 335.596C344.932 335.64 346.804 335.677 348.663 335.689L348.674 333.889C346.831 333.877 344.971 333.84 343.098 333.796L343.055 335.596ZM342.347 335.576C342.581 335.583 342.818 335.59 343.055 335.596L343.098 333.796C342.867 333.791 342.635 333.784 342.401 333.777L342.347 335.576ZM341.65 335.557C341.881 335.562 342.112 335.569 342.347 335.576L342.401 333.777C342.167 333.77 341.93 333.763 341.692 333.757L341.65 335.557ZM336.169 335.364C338.005 335.447 339.831 335.505 341.645 335.556L341.696 333.757C339.886 333.706 338.071 333.648 336.251 333.566L336.169 335.364ZM336.171 335.364L336.194 335.365L336.226 333.565L336.203 333.564L336.171 335.364ZM335.834 335.351C335.961 335.361 336.077 335.362 336.171 335.364L336.203 333.564C336.102 333.563 336.037 333.561 335.968 333.556L335.834 335.351ZM330.065 335.039C332.011 335.161 333.939 335.263 335.859 335.353L335.943 333.555C334.031 333.465 332.112 333.364 330.178 333.242L330.065 335.039ZM329.579 335.01C329.742 335.019 329.903 335.029 330.065 335.039L330.178 333.242C330.011 333.232 329.846 333.222 329.684 333.213L329.579 335.01Z" fill="#202124"/>
<path d="M470.788 147.345L111.611 182.56L120.181 268.121C120.561 271.966 122.953 275.171 126.103 276.041L267.688 315.413C291.066 321.681 319.115 323.945 348.878 320.982C350.994 320.771 353.096 320.523 355.178 320.268C355.688 320.212 356.195 320.138 356.713 320.072C358.785 319.808 360.835 319.518 362.873 319.21C362.987 319.198 363.089 319.177 363.202 319.156C365.146 318.858 367.076 318.524 368.996 318.181C369.492 318.089 369.989 318.006 370.485 317.914C372.469 317.545 374.443 317.168 376.393 316.755C376.589 316.715 376.775 316.666 376.971 316.625C378.763 316.249 380.534 315.846 382.292 315.426C382.777 315.316 383.26 315.196 383.744 315.077C385.633 314.623 387.5 314.143 389.356 313.654C389.625 313.587 389.883 313.501 390.153 313.434C391.794 312.988 393.405 312.526 395.016 312.055C395.488 311.917 395.96 311.78 396.43 311.633C398.215 311.095 399.978 310.54 401.719 309.959C402.042 309.857 402.355 309.747 402.668 309.637C404.16 309.14 405.632 308.626 407.092 308.095C407.552 307.931 408.011 307.766 408.47 307.592C410.131 306.981 411.781 306.353 413.401 305.709C413.758 305.565 414.115 305.421 414.47 305.268C415.814 304.72 417.148 304.165 418.471 303.601C418.918 303.409 419.365 303.217 419.802 303.026C421.343 302.352 422.862 301.662 424.351 300.955C424.741 300.77 425.122 300.585 425.512 300.399C426.719 299.819 427.906 299.232 429.081 298.626C429.506 298.408 429.941 298.189 430.356 297.972C431.766 297.236 433.146 296.494 434.505 295.735C434.9 295.51 435.296 295.286 435.692 295.061C436.771 294.447 437.83 293.826 438.869 293.197C439.272 292.953 439.676 292.718 440.07 292.475C441.34 291.687 442.59 290.892 443.811 290.091C444.202 289.829 444.584 289.568 444.976 289.305C445.928 288.667 446.859 288.012 447.772 287.359C448.135 287.1 448.508 286.84 448.87 286.571C450.002 285.741 451.112 284.895 452.195 284.051C452.565 283.763 452.924 283.466 453.284 283.178C454.118 282.505 454.941 281.824 455.735 281.136C456.049 280.863 456.383 280.597 456.686 280.316C457.68 279.444 458.643 278.556 459.587 277.67C459.916 277.358 460.236 277.046 460.563 276.724C461.288 276.015 462.002 275.297 462.688 274.574C462.953 274.296 463.22 274.029 463.477 273.753C463.51 273.711 463.554 273.677 463.588 273.635C464.409 272.754 465.19 271.866 465.942 270.964C466.23 270.627 466.507 270.281 466.785 269.936C467.375 269.223 467.937 268.503 468.488 267.774C468.73 267.461 468.972 267.139 469.206 266.827C469.912 265.862 470.58 264.892 471.218 263.916C471.432 263.596 471.625 263.27 471.83 262.952C472.309 262.183 472.77 261.417 473.211 260.643C473.396 260.327 473.58 260.002 473.756 259.687C474.304 258.672 474.824 257.661 475.295 256.636C475.418 256.364 475.531 256.085 475.654 255.814C476.022 254.981 476.37 254.141 476.689 253.304C476.808 252.995 476.928 252.686 477.046 252.368C477.427 251.314 477.771 250.255 478.065 249.192C478.119 248.986 478.164 248.78 478.218 248.574C478.462 247.66 478.668 246.749 478.844 245.823C478.907 245.52 478.96 245.218 479.013 244.917C479.2 243.827 479.357 242.731 479.466 241.621C479.472 241.506 479.479 241.39 479.484 241.266C479.565 240.254 479.608 239.247 479.613 238.235C479.619 237.938 479.615 237.642 479.613 237.356C479.595 236.232 479.549 235.11 479.437 233.986L471.373 152.981M335.141 174.362C333.365 174.536 331.61 174.727 329.856 174.927C329.281 174.99 328.717 175.071 328.151 175.142C326.974 175.289 325.796 175.436 324.62 175.593C323.952 175.685 323.285 175.786 322.617 175.878C321.555 176.032 320.493 176.185 319.433 176.358C318.739 176.472 318.045 176.586 317.36 176.698C316.337 176.867 315.316 177.045 314.295 177.223C313.602 177.346 312.918 177.468 312.235 177.6C311.206 177.788 310.187 177.995 309.168 178.192C308.514 178.32 307.869 178.448 307.225 178.585C306.114 178.82 305.013 179.054 303.913 179.298C303.372 179.415 302.831 179.531 302.291 179.656C300.679 180.023 299.078 180.407 297.49 180.809C297.22 180.877 296.961 180.953 296.691 181.02C295.362 181.356 294.044 181.7 292.737 182.062C292.163 182.22 291.589 182.387 291.014 182.545C290.023 182.825 289.041 183.104 288.07 183.391C287.432 183.585 286.794 183.778 286.157 183.972C285.261 184.251 284.364 184.52 283.479 184.807C282.823 185.012 282.178 185.226 281.524 185.44C280.657 185.726 279.8 186.01 278.954 186.303C278.309 186.525 277.675 186.747 277.04 186.969C276.176 187.273 275.322 187.586 274.477 187.897C273.871 188.116 273.275 188.343 272.678 188.561C271.752 188.91 270.837 189.277 269.921 189.635C269.418 189.833 268.914 190.031 268.42 190.228C267.057 190.777 265.715 191.343 264.393 191.917C261.439 193.193 258.557 194.529 255.777 195.91" fill="url(#paint1_linear_7904_10798)"/>
<path d="M470.788 147.345L111.611 182.56L120.181 268.121C120.561 271.966 122.953 275.171 126.103 276.041L267.688 315.413C291.066 321.681 319.115 323.945 348.878 320.982C350.994 320.771 353.096 320.523 355.178 320.268C355.688 320.212 356.195 320.138 356.713 320.072C358.785 319.808 360.835 319.518 362.873 319.21C362.987 319.198 363.089 319.177 363.202 319.156C365.146 318.858 367.076 318.524 368.996 318.181C369.492 318.089 369.989 318.006 370.485 317.914C372.469 317.545 374.443 317.168 376.393 316.755C376.589 316.715 376.775 316.666 376.971 316.625C378.763 316.249 380.534 315.846 382.292 315.426C382.777 315.316 383.26 315.196 383.744 315.077C385.633 314.623 387.5 314.143 389.356 313.654C389.625 313.587 389.883 313.501 390.153 313.434C391.794 312.988 393.405 312.526 395.016 312.055C395.488 311.917 395.96 311.78 396.43 311.633C398.215 311.095 399.978 310.54 401.719 309.959C402.042 309.857 402.355 309.747 402.668 309.637C404.16 309.14 405.632 308.626 407.092 308.095C407.552 307.931 408.011 307.766 408.47 307.592C410.131 306.981 411.781 306.353 413.401 305.709C413.758 305.565 414.115 305.421 414.47 305.268C415.814 304.72 417.148 304.165 418.471 303.601C418.918 303.409 419.365 303.217 419.802 303.026C421.343 302.352 422.862 301.662 424.351 300.955C424.741 300.77 425.122 300.585 425.512 300.399C426.719 299.819 427.906 299.232 429.081 298.626C429.506 298.408 429.941 298.189 430.356 297.972C431.766 297.236 433.146 296.494 434.505 295.735C434.9 295.51 435.296 295.286 435.692 295.061C436.771 294.447 437.83 293.826 438.869 293.197C439.272 292.953 439.676 292.718 440.07 292.475C441.34 291.687 442.59 290.892 443.811 290.091C444.202 289.829 444.584 289.568 444.976 289.305C445.928 288.667 446.859 288.012 447.772 287.359C448.135 287.1 448.508 286.84 448.87 286.571C450.002 285.741 451.112 284.895 452.195 284.051C452.565 283.763 452.924 283.466 453.284 283.178C454.118 282.505 454.941 281.824 455.735 281.136C456.049 280.863 456.383 280.597 456.686 280.316C457.68 279.444 458.643 278.556 459.587 277.67C459.916 277.358 460.236 277.046 460.563 276.724C461.288 276.015 462.002 275.297 462.688 274.574C462.953 274.296 463.22 274.029 463.477 273.753C463.51 273.711 463.554 273.677 463.588 273.635C464.409 272.754 465.19 271.866 465.942 270.964C466.23 270.627 466.507 270.281 466.785 269.936C467.375 269.222 467.937 268.503 468.488 267.774C468.73 267.461 468.972 267.139 469.206 266.827C469.912 265.862 470.58 264.892 471.218 263.916C471.432 263.596 471.625 263.27 471.83 262.952C472.309 262.183 472.77 261.417 473.211 260.643C473.396 260.327 473.58 260.002 473.756 259.687C474.304 258.672 474.824 257.661 475.295 256.636C475.418 256.364 475.531 256.085 475.654 255.814C476.022 254.981 476.37 254.141 476.689 253.304C476.808 252.995 476.928 252.686 477.046 252.368C477.427 251.314 477.771 250.255 478.065 249.192C478.119 248.986 478.164 248.78 478.218 248.574C478.462 247.66 478.668 246.749 478.844 245.823C478.907 245.52 478.96 245.218 479.013 244.917C479.2 243.827 479.357 242.731 479.466 241.621C479.472 241.506 479.479 241.39 479.484 241.266C479.565 240.254 479.608 239.247 479.613 238.235C479.619 237.938 479.615 237.642 479.613 237.356C479.595 236.232 479.549 235.11 479.437 233.986L471.373 152.981M335.141 174.362C333.365 174.536 331.61 174.727 329.856 174.927C329.281 174.99 328.717 175.071 328.151 175.142C326.974 175.289 325.796 175.436 324.62 175.593C323.952 175.685 323.285 175.786 322.617 175.878C321.555 176.032 320.493 176.185 319.433 176.358C318.739 176.472 318.045 176.586 317.36 176.698C316.337 176.867 315.316 177.045 314.295 177.223C313.602 177.346 312.918 177.468 312.235 177.6C311.206 177.788 310.187 177.995 309.168 178.192C308.514 178.32 307.869 178.448 307.225 178.585C306.114 178.82 305.013 179.054 303.913 179.298C303.372 179.415 302.831 179.531 302.291 179.656C300.679 180.023 299.078 180.407 297.49 180.809C297.22 180.877 296.961 180.953 296.691 181.02C295.362 181.356 294.044 181.7 292.737 182.062C292.163 182.22 291.589 182.387 291.014 182.545C290.023 182.825 289.041 183.104 288.07 183.391C287.432 183.585 286.794 183.778 286.157 183.972C285.261 184.251 284.364 184.52 283.479 184.807C282.823 185.012 282.178 185.226 281.524 185.44C280.657 185.726 279.8 186.01 278.954 186.303C278.309 186.525 277.675 186.747 277.04 186.969C276.176 187.273 275.322 187.586 274.477 187.897C273.871 188.116 273.275 188.343 272.678 188.561C271.752 188.91 270.837 189.277 269.921 189.635C269.418 189.833 268.914 190.031 268.42 190.228C267.057 190.777 265.715 191.343 264.393 191.917C261.439 193.193 258.557 194.529 255.777 195.91" stroke="#202124" stroke-width="1.8" stroke-miterlimit="10"/>
<path d="M115.974 223.808C116.355 227.652 118.001 230.929 121.152 231.809L262.736 271.181C286.114 277.449 314.164 279.713 343.926 276.75C346.042 276.539 348.144 276.291 350.227 276.036C350.736 275.98 351.244 275.906 351.762 275.84C353.833 275.576 355.883 275.286 357.922 274.978C358.035 274.966 358.138 274.945 358.25 274.924C360.194 274.626 362.124 274.292 364.044 273.949C364.54 273.857 365.037 273.774 365.533 273.682C367.517 273.313 369.491 272.936 371.441 272.523C371.638 272.483 371.823 272.434 372.019 272.393C373.812 272.017 375.582 271.614 377.34 271.194C377.825 271.083 378.308 270.964 378.792 270.845C380.681 270.391 382.548 269.911 384.404 269.422C384.674 269.355 384.932 269.269 385.201 269.202C386.843 268.756 388.454 268.294 390.064 267.822C390.536 267.685 391.008 267.548 391.479 267.401C393.263 266.863 395.026 266.308 396.767 265.727C397.09 265.625 397.403 265.515 397.716 265.405C399.208 264.908 400.68 264.394 402.14 263.863C402.6 263.698 403.059 263.534 403.518 263.36C405.179 262.749 406.83 262.121 408.449 261.477C408.806 261.333 409.163 261.189 409.519 261.036C410.862 260.488 412.196 259.933 413.519 259.368C413.966 259.177 414.413 258.985 414.85 258.794C416.391 258.12 417.91 257.43 419.399 256.723C419.789 256.538 420.17 256.353 420.561 256.167C421.767 255.587 422.954 255 424.129 254.394C424.554 254.176 424.989 253.957 425.404 253.74C426.814 253.004 428.194 252.262 429.553 251.503C429.949 251.278 430.344 251.054 430.74 250.829C431.819 250.215 432.878 249.594 433.917 248.965C434.32 248.721 434.724 248.486 435.118 248.243C436.388 247.455 437.638 246.66 438.859 245.859C439.25 245.597 439.632 245.336 440.024 245.073C440.976 244.435 441.907 243.78 442.82 243.127C443.183 242.868 443.556 242.607 443.918 242.339C445.05 241.509 446.161 240.663 447.243 239.819C447.613 239.531 447.972 239.234 448.332 238.946C449.166 238.273 449.989 237.591 450.783 236.904C451.097 236.631 451.431 236.365 451.735 236.084C452.728 235.212 453.691 234.324 454.636 233.438C454.964 233.126 455.284 232.814 455.611 232.492C456.336 231.783 457.051 231.065 457.736 230.342C458.001 230.064 458.268 229.797 458.525 229.52C458.558 229.479 458.602 229.445 458.636 229.403C459.457 228.521 460.238 227.634 460.99 226.731C461.278 226.395 461.555 226.049 461.833 225.704C462.424 224.99 462.985 224.271 463.536 223.542C463.778 223.229 464.02 222.907 464.254 222.595C464.96 221.63 465.628 220.66 466.266 219.684C466.48 219.364 466.674 219.038 466.878 218.72C467.357 217.951 467.818 217.185 468.259 216.411C468.444 216.095 468.628 215.77 468.804 215.454C469.352 214.44 469.872 213.429 470.343 212.403C470.467 212.132 470.579 211.853 470.703 211.581C471.07 210.749 471.418 209.909 471.737 209.072C471.857 208.763 471.976 208.454 472.094 208.136C472.476 207.082 472.819 206.023 473.113 204.96C473.167 204.754 473.212 204.548 473.266 204.342C473.51 203.427 473.716 202.517 473.892 201.591C473.955 201.288 474.008 200.986 474.061 200.685C474.248 199.595 474.406 198.499 474.514 197.389C474.52 197.274 474.527 197.158 474.533 197.034C474.613 196.022 474.656 195.015 474.661 194.003C474.667 193.706 474.663 193.41 474.661 193.124C474.643 191.999 474.598 190.878 474.485 189.754" stroke="#202124" stroke-width="1.8" stroke-miterlimit="10"/>
<path d="M346.489 233.62C346.999 233.564 347.506 233.49 348.024 233.424C350.096 233.16 352.146 232.87 354.184 232.563C354.298 232.55 354.4 232.53 354.513 232.508C356.457 232.21 358.387 231.876 360.307 231.533C360.803 231.441 361.3 231.358 361.796 231.266C363.78 230.897 365.754 230.52 367.704 230.107C367.9 230.067 368.086 230.018 368.282 229.978C370.074 229.601 371.845 229.198 373.603 228.778C374.088 228.668 374.571 228.548 375.055 228.429C376.944 227.975 378.81 227.495 380.667 227.006C380.936 226.939 381.194 226.853 381.464 226.786C383.105 226.34 384.716 225.878 386.326 225.407C386.798 225.269 387.27 225.132 387.741 224.985C389.526 224.447 391.289 223.893 393.03 223.312C393.353 223.21 393.666 223.099 393.978 222.989C395.471 222.492 396.943 221.979 398.403 221.447C398.863 221.283 399.322 221.118 399.781 220.944C401.442 220.334 403.092 219.705 404.712 219.061C405.069 218.917 405.426 218.773 405.781 218.62C407.125 218.073 408.459 217.517 409.782 216.953C410.229 216.761 410.676 216.569 411.113 216.378C412.654 215.704 414.173 215.014 415.662 214.308C416.052 214.122 416.433 213.937 416.823 213.751C418.03 213.171 419.217 212.584 420.392 211.979C420.817 211.76 421.252 211.541 421.667 211.324C423.077 210.588 424.457 209.846 425.816 209.087C426.211 208.863 426.607 208.638 427.003 208.414C428.082 207.8 429.141 207.178 430.18 206.55C430.583 206.305 430.987 206.07 431.381 205.827C432.651 205.039 433.901 204.245 435.122 203.443C435.513 203.181 435.895 202.92 436.287 202.658C437.239 202.019 438.17 201.364 439.082 200.711C439.446 200.452 439.818 200.192 440.181 199.923C441.312 199.093 442.423 198.247 443.506 197.403C443.875 197.115 444.235 196.818 444.595 196.531C445.429 195.857 446.252 195.176 447.046 194.488C447.36 194.215 447.694 193.949 447.997 193.668C448.991 192.796 449.954 191.908 450.898 191.023C451.227 190.71 451.546 190.398 451.874 190.076C452.599 189.367 453.313 188.65 453.998 187.926C454.264 187.649 454.531 187.381 454.787 187.105C454.821 187.063 454.865 187.029 454.899 186.988C455.719 186.106 456.501 185.219 457.253 184.316C457.541 183.979 457.818 183.634 458.096 183.288C458.686 182.575 459.248 181.855 459.799 181.126C460.041 180.814 460.283 180.491 460.517 180.179C461.223 179.215 461.891 178.244 462.529 177.268C462.743 176.949 462.936 176.622 463.14 176.304C463.62 175.535 464.081 174.769 464.522 173.996C464.707 173.679 464.891 173.354 465.067 173.039C465.615 172.024 466.135 171.013 466.606 169.988C466.729 169.717 466.842 169.437 466.965 169.166C467.333 168.333 467.681 167.493 468 166.657C468.119 166.348 468.239 166.039 468.357 165.72C468.738 164.667 469.082 163.608 469.376 162.544C469.43 162.338 469.475 162.133 469.529 161.926C469.773 161.012 469.979 160.101 470.155 159.175C470.218 158.872 470.271 158.571 470.324 158.269C470.511 157.179 470.668 156.083 470.777 154.973C470.783 154.858 470.79 154.743 470.795 154.618C470.876 153.607 470.919 152.599 470.924 151.587C470.93 151.29 470.926 150.995 470.924 150.708C470.906 149.584 470.86 148.462 470.748 147.338C466.723 106.95 402.508 80.4081 326.453 87.7232C324.677 87.8975 322.922 88.0885 321.168 88.289C320.593 88.3517 320.028 88.4322 319.463 88.5033C318.286 88.6506 317.108 88.7978 315.932 88.9545C315.264 89.0463 314.597 89.1476 313.929 89.2394C312.867 89.3932 311.805 89.547 310.745 89.7197C310.051 89.8335 309.356 89.9472 308.672 90.06C307.649 90.2285 306.628 90.4066 305.607 90.5846C304.914 90.7078 304.23 90.8299 303.547 90.9615C302.517 91.15 301.499 91.3564 300.48 91.5533C299.826 91.6818 299.181 91.8093 298.537 91.9462C297.426 92.1817 296.325 92.4161 295.225 92.66C294.684 92.7762 294.143 92.8924 293.603 93.018C291.991 93.3845 290.39 93.7687 288.801 94.1708C288.532 94.2384 288.273 94.3143 288.003 94.3819C286.674 94.7175 285.356 95.0615 284.049 95.4234C283.474 95.5814 282.901 95.7489 282.326 95.907C281.335 96.1867 280.353 96.4654 279.382 96.7526C278.744 96.9461 278.106 97.1397 277.469 97.3333C276.573 97.6122 275.676 97.8817 274.791 98.169C274.135 98.374 273.49 98.5875 272.835 98.802C271.969 99.0873 271.112 99.3715 270.266 99.6641C269.621 99.887 268.987 100.109 268.352 100.331C267.488 100.635 266.634 100.947 265.789 101.259C265.183 101.478 264.587 101.705 263.99 101.923C263.064 102.272 262.149 102.639 261.233 102.996C260.73 103.194 260.226 103.392 259.732 103.589C258.369 104.139 257.027 104.705 255.705 105.278C252.751 106.555 249.869 107.89 247.089 109.272L117.547 174.646C112.768 177.057 111.272 180.16 111.563 183.089C111.853 186.017 113.938 188.769 119.096 190.193L258.978 228.748C282.356 235.016 310.405 237.281 340.168 234.318C342.284 234.106 344.386 233.858 346.468 233.603L346.489 233.62Z" fill="#EEEEEE" stroke="#202124" stroke-width="1.8" stroke-miterlimit="10"/>
<path d="M334.095 185.105C355.357 182.989 371.578 171.078 370.327 158.501C369.075 145.924 350.824 137.444 329.562 139.56C308.3 141.676 292.079 153.587 293.33 166.163C294.582 178.74 312.833 187.22 334.095 185.105Z" fill="url(#paint2_linear_7904_10798)" stroke="#202124" stroke-width="1.8" stroke-miterlimit="10"/>
<mask id="mask0_7904_10798" style="mask-type:luminance" maskUnits="userSpaceOnUse" x="293" y="139" width="78" height="47">
<path d="M334.089 185.102C355.351 182.986 371.573 171.076 370.321 158.499C369.07 145.922 350.819 137.442 329.557 139.558C308.295 141.673 292.073 153.584 293.324 166.161C294.576 178.738 312.827 187.218 334.089 185.102Z" fill="white"/>
</mask>
<g mask="url(#mask0_7904_10798)">
<path d="M296.515 196.473C295.26 183.892 311.484 171.986 332.745 169.862C354.007 167.748 372.25 176.227 373.505 188.808" stroke="#202124" stroke-width="1.8" stroke-miterlimit="10"/>
</g>
<path d="M334.088 185.108C355.351 182.992 371.572 171.081 370.321 158.505C369.069 145.928 350.818 137.448 329.556 139.563C308.294 141.679 292.072 153.59 293.324 166.167C294.576 178.744 312.826 187.224 334.088 185.108Z" stroke="#202124" stroke-width="1.8" stroke-miterlimit="10"/>
<path d="M141.438 196.441L150.172 283.426" stroke="#202124" stroke-width="1.8" stroke-miterlimit="10"/>
<path d="M187.596 209.755L196.218 295.798" stroke="#202124" stroke-width="1.8" stroke-miterlimit="10"/>
<path d="M239.737 222.105L248.534 309.665" stroke="#202124" stroke-width="1.8" stroke-miterlimit="10"/>
<path d="M296.711 235.783L305.154 320.098" stroke="#202124" stroke-width="1.8" stroke-miterlimit="10"/>
<path d="M329.664 139.727L334.205 185.387" stroke="#202124" stroke-width="1.8" stroke-miterlimit="10"/>
<path d="M353.106 140.641L356.844 178.483" stroke="#202124" stroke-width="1.8" stroke-miterlimit="10"/>
<path d="M306.851 145.336L310.633 182.791" stroke="#202124" stroke-width="1.8" stroke-miterlimit="10"/>
<path d="M359.281 232.845L367.714 317.151" stroke="#202124" stroke-width="1.8" stroke-miterlimit="10"/>
<path d="M417.831 213.67L426.478 300.121" stroke="#202124" stroke-width="1.8" stroke-miterlimit="10"/>
<path d="M457.978 183.299L466.624 269.74" stroke="#202124" stroke-width="1.8" stroke-miterlimit="10"/>
<path fill-rule="evenodd" clip-rule="evenodd" d="M474.301 182.393C470.226 181.063 466.217 179.465 462.304 177.628C461.737 178.484 461.147 179.335 460.527 180.181C460.293 180.493 460.052 180.815 459.809 181.128C459.258 181.857 458.697 182.576 458.106 183.29L458.104 183.292C457.827 183.637 457.55 183.981 457.263 184.318C456.511 185.22 455.73 186.108 454.909 186.989C454.892 187.01 454.873 187.029 454.853 187.048L454.853 187.048C454.834 187.067 454.814 187.086 454.798 187.107C454.632 187.285 454.461 187.46 454.29 187.637C454.196 187.733 454.103 187.83 454.009 187.928C453.324 188.651 452.609 189.369 451.884 190.078C451.557 190.4 451.237 190.712 450.909 191.024C449.964 191.91 449.001 192.798 448.008 193.67C447.816 193.848 447.612 194.019 447.409 194.19C447.29 194.29 447.172 194.389 447.056 194.49C446.262 195.178 445.439 195.859 444.605 196.532C444.469 196.641 444.334 196.75 444.197 196.861L444.196 196.862L444.196 196.862C443.972 197.043 443.746 197.226 443.516 197.405C442.434 198.249 441.323 199.095 440.191 199.925C439.924 200.123 439.652 200.316 439.382 200.508L439.381 200.508C439.285 200.576 439.188 200.645 439.093 200.713C438.18 201.366 437.249 202.021 436.297 202.659C436.101 202.791 435.908 202.921 435.714 203.052L435.713 203.053C435.52 203.184 435.327 203.314 435.132 203.445C433.911 204.246 432.661 205.041 431.391 205.829C431.158 205.973 430.92 206.114 430.682 206.256C430.518 206.354 430.354 206.452 430.19 206.551C429.151 207.18 428.092 207.801 427.013 208.415L425.826 209.089C424.467 209.848 423.087 210.59 421.678 211.326C421.401 211.47 421.116 211.616 420.831 211.761L420.831 211.761C420.688 211.834 420.545 211.907 420.402 211.98C419.665 212.36 418.923 212.733 418.174 213.101C415.117 223.936 410.107 234.212 402.809 243.39C396.144 251.771 387.644 258.424 378.233 263.476C407.056 248.187 440.021 253.711 466.55 270.227C466.628 270.13 466.706 270.033 466.784 269.936L466.785 269.934C467.376 269.221 467.937 268.501 468.488 267.772C468.731 267.46 468.973 267.137 469.206 266.825C469.913 265.86 470.581 264.89 471.219 263.914C471.349 263.719 471.472 263.522 471.594 263.325C471.672 263.2 471.75 263.074 471.83 262.95C472.31 262.181 472.771 261.415 473.212 260.641C473.397 260.325 473.581 260 473.757 259.685C474.305 258.67 474.825 257.659 475.296 256.634C475.358 256.498 475.417 256.36 475.476 256.223C475.535 256.085 475.593 255.947 475.655 255.812C476.023 254.979 476.371 254.139 476.69 253.302C476.809 252.993 476.928 252.685 477.046 252.366C477.428 251.313 477.771 250.254 478.066 249.19C478.093 249.087 478.118 248.984 478.142 248.881C478.167 248.778 478.191 248.675 478.218 248.572C478.462 247.658 478.669 246.747 478.845 245.821C478.907 245.518 478.961 245.216 479.014 244.915C479.201 243.825 479.358 242.729 479.466 241.619L479.467 241.606C479.473 241.495 479.48 241.384 479.485 241.264C479.566 240.253 479.609 239.245 479.613 238.233C479.619 237.963 479.616 237.695 479.614 237.433L479.613 237.354C479.596 236.23 479.55 235.108 479.437 233.984L474.301 182.393Z" fill="#202124"/>
<path d="M462.304 177.628L462.686 176.813L461.983 176.483L461.553 177.131L462.304 177.628ZM474.301 182.393L475.197 182.304L475.139 181.72L474.581 181.538L474.301 182.393ZM460.527 180.181L461.247 180.721L461.253 180.713L460.527 180.181ZM459.809 181.128L459.098 180.576L459.091 180.585L459.809 181.128ZM458.106 183.29L457.413 182.716L457.408 182.722L457.404 182.727L458.106 183.29ZM458.104 183.292L458.806 183.856L458.807 183.855L458.104 183.292ZM457.263 184.318L456.579 183.733L456.571 183.742L457.263 184.318ZM454.909 186.989L454.25 186.376L454.228 186.4L454.208 186.426L454.909 186.989ZM454.853 187.048L454.227 186.401L454.209 186.42L454.191 186.439L454.853 187.048ZM454.853 187.048L455.479 187.695L455.498 187.676L455.516 187.657L454.853 187.048ZM454.798 187.107L455.457 187.719L455.479 187.695L455.499 187.67L454.798 187.107ZM454.29 187.637L454.935 188.264L454.935 188.264L454.29 187.637ZM454.009 187.928L453.359 187.305L453.355 187.309L454.009 187.928ZM451.884 190.078L451.255 189.435L451.254 189.436L451.884 190.078ZM450.909 191.024L451.524 191.681L451.529 191.677L450.909 191.024ZM448.008 193.67L447.414 192.994L447.405 193.002L447.396 193.01L448.008 193.67ZM447.409 194.19L446.83 193.501L446.83 193.501L447.409 194.19ZM447.056 194.49L447.645 195.17L447.646 195.169L447.056 194.49ZM444.605 196.532L445.166 197.236L445.17 197.233L444.605 196.532ZM444.197 196.861L443.631 196.161L443.631 196.161L444.197 196.861ZM444.196 196.862L443.63 196.162L443.624 196.166L443.619 196.171L444.196 196.862ZM444.196 196.862L444.762 197.561L444.768 197.557L444.773 197.552L444.196 196.862ZM443.516 197.405L444.069 198.115L444.07 198.115L443.516 197.405ZM440.191 199.925L439.659 199.199L439.655 199.202L440.191 199.925ZM439.382 200.508L439.898 201.245L439.902 201.242L439.382 200.508ZM439.381 200.508L438.865 199.771L438.86 199.774L439.381 200.508ZM439.093 200.713L438.57 199.98L438.569 199.981L439.093 200.713ZM436.297 202.659L436.798 203.407L436.798 203.407L436.297 202.659ZM435.714 203.052L436.216 203.8L436.219 203.798L435.714 203.052ZM435.713 203.053L435.212 202.306L435.209 202.307L435.713 203.053ZM435.132 203.445L435.626 204.198L435.633 204.193L435.132 203.445ZM431.391 205.829L431.864 206.594L431.865 206.594L431.391 205.829ZM430.682 206.256L430.221 205.483L430.682 206.256ZM430.19 206.551L430.656 207.321L430.657 207.321L430.19 206.551ZM427.013 208.415L427.457 209.198L427.458 209.198L427.013 208.415ZM425.826 209.089L426.265 209.875L426.27 209.872L425.826 209.089ZM421.678 211.326L421.261 210.528L421.261 210.528L421.678 211.326ZM420.831 211.761L420.422 210.959L420.418 210.962L420.831 211.761ZM420.831 211.761L421.24 212.563L421.244 212.561L420.831 211.761ZM420.402 211.98L419.992 211.18L419.99 211.18L420.402 211.98ZM418.174 213.101L417.777 212.294L417.417 212.471L417.308 212.857L418.174 213.101ZM402.809 243.39L403.513 243.95L403.513 243.95L402.809 243.39ZM378.233 263.476L377.808 262.684L378.655 264.272L378.233 263.476ZM466.55 270.227L466.074 270.991L466.75 271.412L467.25 270.792L466.55 270.227ZM466.784 269.936L466.082 269.372L466.082 269.372L466.784 269.936ZM466.785 269.934L466.092 269.36L466.084 269.37L466.785 269.934ZM468.488 267.772L467.777 267.221L467.77 267.229L468.488 267.772ZM469.206 266.825L469.927 267.365L469.932 267.357L469.206 266.825ZM471.219 263.914L470.471 263.413L470.466 263.421L471.219 263.914ZM471.594 263.325L470.83 262.85L470.83 262.85L471.594 263.325ZM471.83 262.95L472.588 263.436L472.594 263.426L471.83 262.95ZM473.212 260.641L472.435 260.187L472.43 260.196L473.212 260.641ZM473.757 259.685L474.543 260.123L474.548 260.113L473.757 259.685ZM475.296 256.634L476.114 257.009L476.115 257.006L475.296 256.634ZM475.476 256.223L474.648 255.868L475.476 256.223ZM475.655 255.812L476.475 256.184L476.478 256.175L475.655 255.812ZM476.69 253.302L475.85 252.979L475.849 252.981L476.69 253.302ZM477.046 252.366L477.89 252.679L477.892 252.673L477.046 252.366ZM478.066 249.19L478.933 249.431L478.937 249.418L478.066 249.19ZM478.142 248.881L477.267 248.672L477.267 248.672L478.142 248.881ZM478.218 248.572L477.349 248.34L477.348 248.345L478.218 248.572ZM478.845 245.821L477.964 245.639L477.962 245.646L477.961 245.653L478.845 245.821ZM479.014 244.915L479.9 245.071L479.901 245.067L479.014 244.915ZM479.466 241.619L480.362 241.707L480.364 241.689L480.365 241.671L479.466 241.619ZM479.467 241.606L480.366 241.658L480.366 241.657L479.467 241.606ZM479.485 241.264L478.588 241.192L478.587 241.208L478.586 241.224L479.485 241.264ZM479.613 238.233L478.713 238.215L478.713 238.229L479.613 238.233ZM479.614 237.433L478.714 237.441L478.714 237.441L479.614 237.433ZM479.613 237.354L480.513 237.346L480.513 237.34L479.613 237.354ZM479.437 233.984L478.542 234.073L478.542 234.074L479.437 233.984ZM461.921 178.443C465.867 180.295 469.91 181.906 474.022 183.249L474.581 181.538C470.541 180.219 466.567 178.635 462.686 176.813L461.921 178.443ZM461.253 180.713C461.882 179.854 462.48 178.992 463.054 178.125L461.553 177.131C460.994 177.976 460.412 178.815 459.801 179.65L461.253 180.713ZM460.52 181.68C460.768 181.36 461.014 181.032 461.247 180.721L459.806 179.642C459.573 179.954 459.335 180.271 459.098 180.576L460.52 181.68ZM458.799 183.864C459.401 183.137 459.971 182.406 460.527 181.671L459.091 180.585C458.545 181.307 457.992 182.016 457.413 182.716L458.799 183.864ZM458.807 183.855L458.808 183.853L457.404 182.727L457.402 182.729L458.807 183.855ZM457.947 184.902C458.245 184.554 458.53 184.199 458.806 183.856L457.403 182.728C457.124 183.075 456.856 183.409 456.579 183.733L457.947 184.902ZM455.568 187.603C456.399 186.709 457.192 185.809 457.955 184.893L456.571 183.742C455.831 184.632 455.06 185.506 454.25 186.376L455.568 187.603ZM455.479 187.694C455.492 187.682 455.553 187.625 455.611 187.553L454.208 186.426C454.222 186.407 454.233 186.396 454.236 186.393C454.238 186.391 454.238 186.39 454.237 186.392C454.235 186.394 454.233 186.396 454.227 186.401L455.479 187.694ZM455.516 187.657L455.516 187.657L454.191 186.439L454.191 186.439L455.516 187.657ZM455.499 187.67C455.485 187.689 455.473 187.7 455.47 187.703C455.469 187.705 455.468 187.705 455.47 187.704C455.472 187.702 455.474 187.7 455.479 187.695L454.227 186.402C454.215 186.413 454.154 186.471 454.096 186.543L455.499 187.67ZM454.935 188.264C455.106 188.089 455.283 187.906 455.457 187.719L454.138 186.494C453.98 186.664 453.817 186.832 453.645 187.01L454.935 188.264ZM454.658 188.551C454.75 188.455 454.841 188.361 454.935 188.264L453.645 187.01C453.551 187.106 453.455 187.204 453.359 187.305L454.658 188.551ZM452.514 190.721C453.244 190.007 453.967 189.281 454.662 188.546L453.355 187.309C452.68 188.022 451.975 188.731 451.255 189.435L452.514 190.721ZM451.529 191.677C451.863 191.359 452.186 191.043 452.515 190.72L451.254 189.436C450.927 189.757 450.612 190.065 450.288 190.372L451.529 191.677ZM448.601 194.346C449.605 193.465 450.577 192.57 451.524 191.681L450.293 190.368C449.352 191.25 448.397 192.131 447.414 192.994L448.601 194.346ZM447.988 194.879C448.188 194.71 448.409 194.525 448.619 194.33L447.396 193.01C447.223 193.17 447.036 193.328 446.83 193.501L447.988 194.879ZM447.646 195.169C447.756 195.074 447.868 194.979 447.988 194.879L446.83 193.501C446.712 193.6 446.588 193.704 446.466 193.81L447.646 195.169ZM445.17 197.233C446.01 196.555 446.841 195.867 447.645 195.17L446.467 193.809C445.683 194.489 444.868 195.163 444.04 195.832L445.17 197.233ZM444.763 197.56C444.9 197.45 445.033 197.342 445.166 197.236L444.044 195.829C443.905 195.939 443.767 196.051 443.631 196.161L444.763 197.56ZM444.762 197.561L444.763 197.56L443.631 196.161L443.63 196.162L444.762 197.561ZM444.773 197.552L444.774 197.552L443.619 196.171L443.619 196.171L444.773 197.552ZM444.07 198.115C444.307 197.93 444.539 197.742 444.762 197.561L443.63 196.162C443.405 196.344 443.185 196.522 442.962 196.696L444.07 198.115ZM440.723 200.651C441.864 199.815 442.982 198.962 444.069 198.115L442.963 196.695C441.885 197.535 440.782 198.376 439.659 199.199L440.723 200.651ZM439.902 201.242C440.171 201.051 440.451 200.852 440.727 200.648L439.655 199.202C439.397 199.393 439.132 199.581 438.861 199.773L439.902 201.242ZM439.898 201.245L439.898 201.245L438.865 199.77L438.865 199.771L439.898 201.245ZM439.615 201.446C439.71 201.378 439.805 201.311 439.902 201.242L438.86 199.774C438.764 199.842 438.667 199.911 438.57 199.98L439.615 201.446ZM436.798 203.407C437.761 202.761 438.701 202.1 439.617 201.445L438.569 199.981C437.66 200.632 436.737 201.281 435.796 201.912L436.798 203.407ZM436.219 203.798C436.412 203.667 436.604 203.537 436.798 203.407L435.796 201.912C435.598 202.044 435.403 202.176 435.21 202.307L436.219 203.798ZM436.215 203.8L436.216 203.8L435.213 202.305L435.212 202.306L436.215 203.8ZM435.633 204.193C435.83 204.061 436.025 203.929 436.218 203.798L435.209 202.307C435.016 202.438 434.824 202.568 434.631 202.697L435.633 204.193ZM431.865 206.594C433.141 205.803 434.398 205.004 435.626 204.197L434.638 202.693C433.424 203.489 432.181 204.28 430.917 205.064L431.865 206.594ZM431.143 207.029C431.38 206.888 431.624 206.743 431.864 206.594L430.918 205.063C430.691 205.203 430.461 205.341 430.221 205.483L431.143 207.029ZM430.657 207.321C430.817 207.224 430.979 207.127 431.143 207.029L430.221 205.483C430.058 205.581 429.891 205.68 429.723 205.782L430.657 207.321ZM427.458 209.198C428.544 208.58 429.61 207.954 430.656 207.321L429.724 205.781C428.692 206.406 427.64 207.023 426.568 207.633L427.458 209.198ZM426.27 209.872L427.457 209.198L426.569 207.633L425.382 208.306L426.27 209.872ZM422.094 212.124C423.51 211.385 424.897 210.638 426.265 209.875L425.387 208.303C424.036 209.057 422.664 209.796 421.261 210.528L422.094 212.124ZM421.24 212.563C421.524 212.418 421.813 212.27 422.094 212.124L421.261 210.528C420.989 210.67 420.708 210.814 420.422 210.959L421.24 212.563ZM421.244 212.561L421.244 212.561L420.418 210.962L420.418 210.962L421.244 212.561ZM420.813 212.781C420.954 212.709 421.097 212.636 421.24 212.563L420.422 210.96C420.279 211.033 420.135 211.106 419.992 211.18L420.813 212.781ZM418.572 213.909C419.325 213.538 420.072 213.163 420.815 212.78L419.99 211.18C419.258 211.557 418.521 211.928 417.777 212.294L418.572 213.909ZM403.513 243.95C410.892 234.671 415.954 224.285 419.04 213.346L417.308 212.857C414.281 223.586 409.322 233.752 402.104 242.83L403.513 243.95ZM378.659 264.269C388.159 259.168 396.761 252.441 403.513 243.95L402.104 242.83C395.528 251.1 387.128 257.679 377.808 262.684L378.659 264.269ZM467.025 269.463C440.307 252.829 406.994 247.201 377.812 262.681L378.655 264.272C407.118 249.173 439.735 254.593 466.074 270.991L467.025 269.463ZM467.25 270.792C467.329 270.695 467.408 270.597 467.486 270.5L466.082 269.372C466.004 269.469 465.927 269.566 465.849 269.662L467.25 270.792ZM467.486 270.5L467.487 270.498L466.084 269.37L466.082 269.372L467.486 270.5ZM467.479 270.508C468.08 269.781 468.65 269.051 469.206 268.315L467.77 267.229C467.225 267.951 466.672 268.66 466.092 269.36L467.479 270.508ZM469.199 268.324C469.447 268.004 469.694 267.676 469.927 267.365L468.486 266.286C468.252 266.598 468.015 266.915 467.777 267.221L469.199 268.324ZM469.932 267.357C470.649 266.378 471.326 265.395 471.972 264.406L470.466 263.421C469.835 264.386 469.176 265.343 468.48 266.294L469.932 267.357ZM471.967 264.414C472.107 264.205 472.237 263.995 472.358 263.801L470.83 262.85C470.706 263.049 470.591 263.233 470.471 263.413L471.967 264.414ZM472.358 263.801C472.437 263.674 472.512 263.554 472.588 263.436L471.073 262.464C470.989 262.594 470.908 262.725 470.83 262.85L472.358 263.801ZM472.594 263.426C473.078 262.65 473.546 261.873 473.993 261.087L472.43 260.196C471.996 260.957 471.541 261.713 471.067 262.473L472.594 263.426ZM473.988 261.096C474.178 260.773 474.365 260.441 474.543 260.123L472.971 259.246C472.797 259.558 472.616 259.878 472.435 260.187L473.988 261.096ZM474.548 260.113C475.102 259.088 475.632 258.058 476.114 257.009L474.478 256.258C474.018 257.259 473.508 258.252 472.965 259.257L474.548 260.113ZM476.115 257.006C476.182 256.86 476.244 256.713 476.303 256.577L474.648 255.868C474.589 256.007 474.533 256.136 474.476 256.261L476.115 257.006ZM476.303 256.577C476.362 256.438 476.418 256.309 476.474 256.184L474.836 255.439C474.769 255.585 474.707 255.732 474.648 255.868L476.303 256.577ZM476.478 256.175C476.852 255.33 477.205 254.476 477.531 253.623L475.849 252.981C475.536 253.803 475.194 254.628 474.832 255.448L476.478 256.175ZM477.53 253.626C477.649 253.318 477.77 253.004 477.89 252.679L476.203 252.053C476.087 252.365 475.97 252.669 475.85 252.979L477.53 253.626ZM477.892 252.673C478.281 251.6 478.632 250.519 478.933 249.431L477.199 248.95C476.911 249.988 476.575 251.025 476.2 252.06L477.892 252.673ZM478.937 249.418C478.967 249.304 478.993 249.192 479.017 249.09L477.267 248.672C477.242 248.776 477.219 248.87 477.195 248.963L478.937 249.418ZM479.017 249.091C479.042 248.986 479.065 248.892 479.089 248.8L477.348 248.345C477.318 248.459 477.291 248.571 477.267 248.672L479.017 249.091ZM479.088 248.804C479.338 247.868 479.549 246.936 479.729 245.989L477.961 245.653C477.789 246.558 477.587 247.447 477.349 248.34L479.088 248.804ZM479.726 246.003C479.792 245.685 479.847 245.37 479.9 245.071L478.127 244.759C478.074 245.063 478.023 245.351 477.964 245.639L479.726 246.003ZM479.901 245.067C480.09 243.961 480.251 242.843 480.362 241.707L478.571 241.532C478.465 242.615 478.311 243.689 478.127 244.763L479.901 245.067ZM480.365 241.671L480.366 241.658L478.569 241.555L478.568 241.567L480.365 241.671ZM480.366 241.657C480.372 241.547 480.379 241.43 480.384 241.304L478.586 241.224C478.581 241.338 478.575 241.444 478.569 241.555L480.366 241.657ZM480.382 241.336C480.465 240.302 480.509 239.272 480.513 238.237L478.713 238.229C478.709 239.218 478.667 240.203 478.588 241.192L480.382 241.336ZM480.513 238.251C480.519 237.966 480.516 237.684 480.514 237.425L478.714 237.441C478.716 237.705 478.719 237.961 478.714 238.215L480.513 238.251ZM480.514 237.425L480.513 237.346L478.713 237.362L478.714 237.441L480.514 237.425ZM480.513 237.34C480.495 236.201 480.449 235.052 480.333 233.894L478.542 234.074C478.651 235.163 478.696 236.258 478.713 237.368L480.513 237.34ZM480.333 233.895L475.197 182.304L473.406 182.482L478.542 234.073L480.333 233.895Z" fill="#202124"/>
<path fill-rule="evenodd" clip-rule="evenodd" d="M467.813 135.722C449.306 150.848 428.769 161.374 411.518 165.736C402.488 168.017 394.256 168.685 386.809 168.212C409.307 169.771 425.366 184.67 417.839 213.258C418.699 212.838 419.549 212.412 420.394 211.977C420.537 211.904 420.68 211.831 420.823 211.758C421.108 211.612 421.393 211.467 421.669 211.322C423.079 210.586 424.459 209.844 425.818 209.085L427.005 208.412C428.084 207.798 429.143 207.176 430.182 206.548C430.346 206.448 430.51 206.35 430.674 206.253C430.912 206.111 431.149 205.969 431.383 205.825C432.653 205.038 433.903 204.243 435.124 203.441C435.32 203.31 435.513 203.179 435.706 203.049C435.9 202.918 436.093 202.787 436.289 202.656C437.241 202.017 438.172 201.362 439.085 200.709C439.18 200.641 439.276 200.573 439.373 200.504C439.643 200.313 439.916 200.119 440.183 199.921C441.315 199.092 442.425 198.245 443.508 197.401C443.738 197.222 443.964 197.039 444.188 196.858C444.325 196.747 444.461 196.637 444.597 196.529C445.431 195.855 446.254 195.174 447.048 194.486C447.164 194.385 447.282 194.286 447.401 194.186C447.604 194.015 447.808 193.844 447.999 193.666C448.993 192.794 449.956 191.907 450.901 191.021C451.229 190.708 451.549 190.396 451.876 190.074C452.601 189.365 453.316 188.648 454.001 187.924C454.094 187.826 454.188 187.729 454.282 187.633C454.453 187.457 454.624 187.282 454.79 187.103C454.806 187.082 454.826 187.063 454.845 187.044C454.865 187.025 454.884 187.007 454.901 186.986C455.722 186.104 456.503 185.217 457.255 184.314C457.542 183.978 457.819 183.633 458.096 183.289L458.098 183.286C458.688 182.573 459.25 181.853 459.801 181.125C460.044 180.812 460.285 180.489 460.519 180.178C461.225 179.213 461.893 178.243 462.532 177.266C462.662 177.071 462.784 176.874 462.907 176.678C462.985 176.552 463.063 176.426 463.143 176.302C463.622 175.534 464.083 174.767 464.524 173.994C464.709 173.678 464.893 173.352 465.069 173.037C465.617 172.022 466.138 171.011 466.608 169.986C466.67 169.85 466.729 169.713 466.788 169.575C466.847 169.437 466.906 169.299 466.968 169.164C467.335 168.331 467.683 167.491 468.002 166.655C468.122 166.346 468.241 166.037 468.359 165.718C468.741 164.665 469.084 163.606 469.379 162.542C469.405 162.439 469.43 162.336 469.455 162.233C469.479 162.131 469.504 162.028 469.531 161.924C469.775 161.01 469.981 160.099 470.157 159.173C470.22 158.87 470.273 158.569 470.326 158.267C470.513 157.177 470.671 156.081 470.779 154.971L470.78 154.959C470.786 154.848 470.792 154.736 470.798 154.616C470.878 153.605 470.922 152.598 470.926 151.585C470.931 151.316 470.929 151.048 470.926 150.787L470.926 150.707C470.908 149.582 470.863 148.46 470.75 147.336C470.35 143.321 469.355 139.443 467.813 135.722Z" fill="#202124"/>
<path d="M467.813 135.722L468.644 135.377L468.181 134.258L467.243 135.025L467.813 135.722ZM411.518 165.736L411.738 166.608L411.738 166.608L411.518 165.736ZM386.809 168.212L386.866 167.314L386.746 169.11L386.809 168.212ZM417.839 213.258L416.968 213.029L416.468 214.931L418.234 214.067L417.839 213.258ZM420.394 211.977L419.983 211.176L419.982 211.177L420.394 211.977ZM420.823 211.758L420.414 210.956L420.414 210.956L420.823 211.758ZM421.669 211.322L421.253 210.524L421.253 210.525L421.669 211.322ZM425.818 209.085L426.257 209.871L426.262 209.868L425.818 209.085ZM427.005 208.412L427.449 209.195L427.45 209.194L427.005 208.412ZM430.182 206.548L430.648 207.318L430.649 207.317L430.182 206.548ZM430.674 206.253L430.213 205.48L430.213 205.48L430.674 206.253ZM431.383 205.825L431.856 206.591L431.857 206.59L431.383 205.825ZM435.124 203.441L435.618 204.194L435.625 204.189L435.124 203.441ZM435.706 203.049L435.202 202.303L435.202 202.303L435.706 203.049ZM436.289 202.656L436.79 203.404L436.79 203.403L436.289 202.656ZM439.085 200.709L438.562 199.977L438.561 199.977L439.085 200.709ZM439.373 200.504L438.852 199.77L438.852 199.77L439.373 200.504ZM440.183 199.921L439.651 199.195L439.647 199.198L440.183 199.921ZM443.508 197.401L444.061 198.111L444.062 198.111L443.508 197.401ZM444.188 196.858L444.754 197.558L444.188 196.858ZM444.597 196.529L445.158 197.232L445.162 197.229L444.597 196.529ZM447.048 194.486L447.637 195.166L447.638 195.165L447.048 194.486ZM447.401 194.186L446.821 193.497L446.821 193.497L447.401 194.186ZM447.999 193.666L447.406 192.99L447.397 192.998L447.388 193.006L447.999 193.666ZM450.901 191.021L451.516 191.677L451.521 191.673L450.901 191.021ZM451.876 190.074L451.247 189.431L451.245 189.432L451.876 190.074ZM454.001 187.924L453.351 187.301L453.347 187.305L454.001 187.924ZM454.282 187.633L454.927 188.26L454.282 187.633ZM454.79 187.103L455.449 187.715L455.471 187.692L455.491 187.667L454.79 187.103ZM454.845 187.044L454.219 186.398L454.219 186.398L454.845 187.044ZM454.901 186.986L454.242 186.373L454.22 186.397L454.199 186.422L454.901 186.986ZM457.255 184.314L456.571 183.729L456.563 183.738L457.255 184.314ZM458.096 183.289L458.798 183.852L458.799 183.851L458.096 183.289ZM458.098 183.286L457.405 182.713L457.4 182.718L457.395 182.725L458.098 183.286ZM459.801 181.125L459.09 180.573L459.083 180.582L459.801 181.125ZM460.519 180.178L461.239 180.717L461.245 180.709L460.519 180.178ZM462.532 177.266L461.783 176.766L461.778 176.774L462.532 177.266ZM462.907 176.678L463.671 177.153L463.671 177.153L462.907 176.678ZM463.143 176.302L463.9 176.788L463.906 176.779L463.143 176.302ZM464.524 173.994L463.747 173.539L463.742 173.548L464.524 173.994ZM465.069 173.037L465.855 173.475L465.861 173.465L465.069 173.037ZM466.608 169.986L467.426 170.362L467.428 170.358L466.608 169.986ZM466.968 169.164L467.787 169.536L467.791 169.527L466.968 169.164ZM468.002 166.655L467.163 166.331L467.162 166.334L468.002 166.655ZM468.359 165.718L469.203 166.031L469.205 166.025L468.359 165.718ZM469.379 162.542L470.246 162.783L470.249 162.77L469.379 162.542ZM469.531 161.924L468.661 161.692L468.66 161.697L469.531 161.924ZM470.157 159.173L469.276 158.991L469.275 158.998L469.273 159.005L470.157 159.173ZM470.326 158.267L471.213 158.423L471.213 158.419L470.326 158.267ZM470.779 154.971L471.675 155.059L471.676 155.041L471.677 155.022L470.779 154.971ZM470.78 154.959L471.678 155.01L471.678 155.01L470.78 154.959ZM470.798 154.616L469.9 154.544L469.899 154.56L469.898 154.576L470.798 154.616ZM470.926 151.585L470.026 151.567L470.026 151.581L470.926 151.585ZM470.926 150.787L470.026 150.795L470.026 150.795L470.926 150.787ZM470.926 150.707L471.826 150.699L471.826 150.693L470.926 150.707ZM470.75 147.336L469.854 147.426L469.854 147.426L470.75 147.336ZM467.243 135.025C448.82 150.083 428.399 160.539 411.297 164.863L411.738 166.608C429.139 162.208 449.793 151.613 468.382 136.418L467.243 135.025ZM411.297 164.863C402.354 167.122 394.216 167.781 386.866 167.314L386.752 169.11C394.296 169.59 402.621 168.911 411.738 166.608L411.297 164.863ZM386.746 169.11C397.828 169.878 407.193 173.921 412.875 181.155C418.542 188.368 420.681 198.927 416.968 213.029L418.709 213.488C422.523 199.001 420.397 187.816 414.291 180.043C408.201 172.291 398.288 168.106 386.871 167.314L386.746 169.11ZM418.234 214.067C419.099 213.644 419.955 213.215 420.806 212.777L419.982 211.177C419.143 211.609 418.298 212.032 417.443 212.45L418.234 214.067ZM420.805 212.777C420.946 212.705 421.089 212.632 421.232 212.559L420.414 210.956C420.271 211.029 420.127 211.102 419.983 211.176L420.805 212.777ZM421.232 212.559C421.516 212.414 421.805 212.267 422.086 212.12L421.253 210.525C420.981 210.667 420.7 210.81 420.414 210.956L421.232 212.559ZM422.086 212.12C423.502 211.381 424.889 210.635 426.257 209.871L425.379 208.299C424.028 209.054 422.656 209.792 421.253 210.524L422.086 212.12ZM426.262 209.868L427.449 209.195L426.561 207.629L425.374 208.302L426.262 209.868ZM427.45 209.194C428.536 208.576 429.602 207.951 430.648 207.318L429.716 205.778C428.684 206.402 427.632 207.019 426.56 207.63L427.45 209.194ZM430.649 207.317C430.809 207.22 430.971 207.124 431.135 207.026L430.213 205.48C430.05 205.577 429.883 205.677 429.715 205.778L430.649 207.317ZM431.135 207.026C431.372 206.884 431.615 206.739 431.856 206.591L430.909 205.06C430.683 205.199 430.453 205.337 430.213 205.48L431.135 207.026ZM431.857 206.59C433.133 205.799 434.389 205 435.618 204.194L434.63 202.689C433.416 203.485 432.173 204.276 430.908 205.06L431.857 206.59ZM435.625 204.189C435.822 204.057 436.017 203.925 436.211 203.794L435.202 202.303C435.008 202.434 434.817 202.564 434.623 202.694L435.625 204.189ZM436.211 203.794C436.404 203.663 436.596 203.533 436.79 203.404L435.788 201.908C435.59 202.04 435.395 202.173 435.202 202.303L436.211 203.794ZM436.79 203.403C437.753 202.758 438.693 202.097 439.609 201.441L438.561 199.977C437.652 200.628 436.729 201.277 435.788 201.908L436.79 203.403ZM439.607 201.442C439.702 201.375 439.797 201.307 439.894 201.238L438.852 199.77C438.756 199.839 438.659 199.908 438.562 199.977L439.607 201.442ZM439.894 201.238C440.163 201.048 440.443 200.849 440.719 200.644L439.647 199.198C439.389 199.39 439.124 199.578 438.852 199.77L439.894 201.238ZM440.715 200.647C441.856 199.811 442.974 198.959 444.061 198.111L442.955 196.692C441.877 197.531 440.774 198.372 439.651 199.195L440.715 200.647ZM444.062 198.111C444.299 197.926 444.531 197.738 444.754 197.558L443.622 196.158C443.397 196.34 443.177 196.518 442.954 196.692L444.062 198.111ZM444.754 197.558C444.891 197.447 445.025 197.339 445.158 197.232L444.036 195.825C443.897 195.936 443.758 196.048 443.622 196.158L444.754 197.558ZM445.162 197.229C446.002 196.551 446.833 195.863 447.637 195.166L446.459 193.806C445.675 194.485 444.86 195.16 444.032 195.828L445.162 197.229ZM447.638 195.165C447.748 195.07 447.86 194.976 447.98 194.875L446.821 193.497C446.704 193.596 446.58 193.7 446.458 193.807L447.638 195.165ZM447.98 194.875C448.18 194.707 448.401 194.521 448.611 194.326L447.388 193.006C447.215 193.167 447.028 193.324 446.821 193.497L447.98 194.875ZM448.593 194.343C449.597 193.462 450.568 192.566 451.516 191.677L450.285 190.364C449.344 191.247 448.389 192.127 447.406 192.99L448.593 194.343ZM451.521 191.673C451.855 191.355 452.178 191.039 452.507 190.716L451.245 189.432C450.919 189.753 450.604 190.061 450.28 190.369L451.521 191.673ZM452.506 190.718C453.236 190.003 453.959 189.277 454.654 188.543L453.347 187.305C452.672 188.018 451.966 188.727 451.247 189.431L452.506 190.718ZM454.65 188.547C454.742 188.452 454.833 188.357 454.927 188.26L453.636 187.006C453.543 187.102 453.447 187.201 453.351 187.301L454.65 188.547ZM454.927 188.26C455.098 188.085 455.275 187.903 455.449 187.715L454.13 186.491C453.972 186.66 453.809 186.828 453.636 187.006L454.927 188.26ZM455.491 187.667C455.477 187.685 455.465 187.697 455.462 187.7C455.461 187.701 455.46 187.702 455.462 187.7C455.464 187.698 455.466 187.696 455.471 187.691L454.219 186.398C454.207 186.41 454.146 186.467 454.088 186.539L455.491 187.667ZM455.471 187.691C455.484 187.679 455.545 187.622 455.603 187.549L454.199 186.422C454.214 186.404 454.225 186.392 454.228 186.389C454.23 186.387 454.23 186.387 454.229 186.388C454.227 186.39 454.224 186.393 454.219 186.398L455.471 187.691ZM455.56 187.599C456.391 186.705 457.184 185.806 457.947 184.89L456.563 183.738C455.823 184.628 455.052 185.503 454.242 186.373L455.56 187.599ZM457.939 184.899C458.237 184.55 458.522 184.195 458.798 183.852L457.394 182.725C457.116 183.071 456.848 183.405 456.571 183.729L457.939 184.899ZM458.799 183.851L458.801 183.848L457.395 182.725L457.393 182.727L458.799 183.851ZM458.791 183.86C459.393 183.134 459.962 182.403 460.519 181.668L459.083 180.582C458.537 181.303 457.984 182.012 457.405 182.713L458.791 183.86ZM460.512 181.676C460.76 181.357 461.006 181.028 461.239 180.717L459.798 179.638C459.565 179.95 459.327 180.267 459.09 180.573L460.512 181.676ZM461.245 180.709C461.962 179.731 462.638 178.747 463.285 177.758L461.778 176.774C461.148 177.738 460.489 178.695 459.793 179.646L461.245 180.709ZM463.28 177.766C463.419 177.557 463.55 177.347 463.671 177.153L462.142 176.202C462.019 176.401 461.904 176.585 461.783 176.766L463.28 177.766ZM463.671 177.153C463.75 177.026 463.824 176.906 463.9 176.788L462.385 175.816C462.301 175.946 462.22 176.077 462.142 176.202L463.671 177.153ZM463.906 176.779C464.391 176.002 464.858 175.225 465.306 174.439L463.742 173.548C463.308 174.31 462.854 175.065 462.379 175.825L463.906 176.779ZM465.301 174.449C465.49 174.125 465.678 173.793 465.855 173.475L464.283 172.599C464.109 172.911 463.928 173.23 463.747 173.539L465.301 174.449ZM465.861 173.465C466.415 172.44 466.944 171.41 467.426 170.362L465.79 169.61C465.331 170.612 464.82 171.604 464.277 172.609L465.861 173.465ZM467.428 170.358C467.494 170.212 467.557 170.065 467.615 169.929L465.961 169.22C465.901 169.36 465.846 169.488 465.789 169.614L467.428 170.358ZM467.615 169.929C467.675 169.79 467.73 169.661 467.787 169.536L466.148 168.792C466.082 168.938 466.019 169.084 465.961 169.22L467.615 169.929ZM467.791 169.527C468.164 168.682 468.518 167.828 468.843 166.976L467.162 166.334C466.848 167.155 466.506 167.98 466.144 168.8L467.791 169.527ZM468.842 166.978C468.961 166.67 469.082 166.356 469.203 166.031L467.515 165.405C467.399 165.718 467.282 166.021 467.163 166.331L468.842 166.978ZM469.205 166.025C469.594 164.952 469.944 163.871 470.246 162.783L468.511 162.302C468.223 163.34 467.888 164.377 467.513 165.412L469.205 166.025ZM470.249 162.77C470.279 162.656 470.306 162.544 470.33 162.443L468.579 162.024C468.554 162.129 468.532 162.222 468.508 162.315L470.249 162.77ZM470.33 162.443C470.355 162.338 470.377 162.244 470.402 162.152L468.66 161.697C468.63 161.811 468.604 161.923 468.579 162.024L470.33 162.443ZM470.4 162.157C470.65 161.22 470.862 160.288 471.042 159.341L469.273 159.005C469.101 159.911 468.9 160.8 468.661 161.692L470.4 162.157ZM471.039 159.355C471.104 159.037 471.16 158.723 471.213 158.423L469.44 158.111C469.386 158.415 469.335 158.704 469.276 158.991L471.039 159.355ZM471.213 158.419C471.403 157.314 471.564 156.195 471.675 155.059L469.883 154.884C469.777 155.967 469.623 157.041 469.439 158.115L471.213 158.419ZM471.677 155.022L471.678 155.01L469.881 154.908L469.88 154.92L471.677 155.022ZM471.678 155.01C471.684 154.899 471.691 154.783 471.697 154.656L469.898 154.576C469.893 154.69 469.887 154.796 469.881 154.908L471.678 155.01ZM471.695 154.688C471.777 153.654 471.821 152.624 471.826 151.589L470.026 151.581C470.022 152.571 469.98 153.555 469.9 154.544L471.695 154.688ZM471.826 151.603C471.831 151.319 471.829 151.038 471.826 150.779L470.026 150.795C470.029 151.058 470.031 151.313 470.026 151.567L471.826 151.603ZM471.826 150.779L471.826 150.699L470.026 150.715L470.026 150.795L471.826 150.779ZM471.826 150.693C471.808 149.554 471.761 148.405 471.645 147.246L469.854 147.426C469.964 148.516 470.009 149.61 470.026 150.721L471.826 150.693ZM471.645 147.247C471.236 143.141 470.219 139.177 468.644 135.377L466.981 136.066C468.491 139.709 469.463 143.501 469.854 147.426L471.645 147.247Z" fill="#202124"/>
<path d="M398.636 253.94C434.979 232.636 462.113 177.802 456.611 138.397C455.227 128.464 451.122 112.24 445.009 100.884L493.386 74.4667L601.061 271.916L552.684 298.332C546.448 287.044 535.033 274.81 527.43 268.265C497.286 242.302 436.493 235.405 398.906 254.43" fill="url(#paint3_linear_7904_10798)"/>
<path d="M398.636 253.94C434.979 232.636 462.113 177.802 456.611 138.397C455.227 128.464 451.122 112.24 445.009 100.884L493.386 74.4667L601.061 271.916L552.684 298.332C546.448 287.044 535.033 274.81 527.43 268.265C497.286 242.302 436.493 235.405 398.906 254.43" stroke="#202124" stroke-width="1.8" stroke-miterlimit="10"/>
<path d="M424.975 240.03C462.35 219.599 519.135 229.251 549.875 255.723C557.478 262.267 568.894 274.502 575.129 285.79L600.498 272.037L492.994 74.9159L467.45 88.3472C473.563 99.7031 477.667 115.927 479.052 125.86C484.66 166.039 462.391 219.676 424.975 240.03Z" stroke="#202124" stroke-width="1.8" stroke-miterlimit="10"/>
<path d="M624.68 131.697L626.731 130.548C589.287 150.738 544.586 135.247 516.346 106.338C507.294 97.0668 499.804 86.3912 493.61 75.0333C513.459 111.784 518.819 161.971 491.539 196.772C484.933 205.199 476.479 211.911 467.104 217.028C504.67 196.766 549.572 212.072 577.974 241.126C587.025 250.387 594.212 260.522 600.401 271.875C580.885 235.748 575.605 187.442 601.229 152.545C607.489 144.02 615.559 137.009 624.686 131.702L624.68 131.697Z" fill="#EEEEEE" stroke="#202124" stroke-width="1.8" stroke-miterlimit="10"/>
<path d="M504.969 105.771L455.921 132.523" stroke="#202124" stroke-width="1.8" stroke-miterlimit="10"/>
<path d="M509.356 138.171L455.56 167.507" stroke="#202124" stroke-width="1.8" stroke-miterlimit="10"/>
<path d="M504.262 172.051L442.011 206" stroke="#202124" stroke-width="1.8" stroke-miterlimit="10"/>
<path d="M581.094 245.348L532.04 272.101" stroke="#202124" stroke-width="1.8" stroke-miterlimit="10"/>
<path d="M556.227 224.116L502.432 253.452" stroke="#202124" stroke-width="1.8" stroke-miterlimit="10"/>
<path d="M524.988 210.056L462.736 244.005" stroke="#202124" stroke-width="1.8" stroke-miterlimit="10"/>
<path d="M470.607 215.111L400.109 253.556" stroke="#202124" stroke-width="1.8" stroke-miterlimit="10"/>
<path fill-rule="evenodd" clip-rule="evenodd" d="M327.687 139.777C339.011 131.038 344.936 121.522 342.818 113.239C338.523 96.4379 302.764 91.0699 262.948 101.249C223.133 111.429 194.339 133.301 198.634 150.102C202.93 166.903 238.688 172.271 278.504 162.092C284.476 160.565 290.201 158.775 295.603 156.778C300.524 148.471 312.727 141.696 327.687 139.777Z" fill="#202124"/>
<path d="M297.863 62.481C296.405 54.0712 293.6 46.5036 289.449 39.7892C282.287 28.1907 270.638 22.6329 258.749 17.1817C247.446 12.0056 235.407 6.16139 223.082 4C215.629 4.36491 167 141.913 167 141.913C167 141.913 180.817 147.6 190.761 151.137C197.84 153.658 203.622 156.201 210.332 159.092C217.5 162.18 223.948 164.324 231.401 163.96C238.854 163.595 246.15 161.551 253.274 157.835C260.403 154.113 267.129 148.835 273.47 142.003C279.812 135.165 285.158 127.092 289.516 117.773C293.874 108.454 296.718 99.0113 298.047 89.445C299.377 79.8788 299.316 70.8851 297.857 62.481H297.863Z" fill="url(#paint4_linear_7904_10798)" stroke="#202124" stroke-width="1.8" stroke-miterlimit="10"/>
<path d="M275.85 52.3924C274.382 43.9807 271.558 36.4113 267.378 29.6955C263.204 22.9797 257.792 17.8136 251.154 14.203C244.511 10.5924 223.179 2.65243 215.669 3.0118C208.165 3.37679 153.046 120.5 157.226 127.216C161.406 133.931 166.761 140.597 173.405 144.207C179.84 147.369 182.259 147.756 189.015 150.648C196.233 153.736 201.431 154.264 208.935 153.899C216.44 153.534 223.786 151.49 230.959 147.773C238.137 144.05 244.91 138.772 251.295 131.938C257.68 125.099 263.063 117.024 267.451 107.703C271.839 98.3813 274.703 88.9364 276.041 79.3681C277.38 69.7997 277.318 60.804 275.845 52.3924H275.85Z" stroke="#202124" stroke-width="1.8" stroke-miterlimit="10"/>
<path d="M251.851 44.2039C250.385 35.7725 247.564 28.1853 243.395 21.4537C239.22 14.722 233.82 9.54386 227.184 5.92476C220.554 2.30566 213.485 0.684666 205.989 1.05052C198.494 1.41637 191.161 3.4595 183.991 7.18554C176.821 10.9172 170.05 16.208 163.673 23.0578C157.301 29.9076 151.923 38.007 147.54 47.3446C143.158 56.6879 140.298 66.1549 138.96 75.7458C137.617 85.3367 137.685 94.3535 139.151 102.791C140.618 111.222 143.439 118.809 147.614 125.541C151.788 132.272 157.188 137.451 163.824 141.07C170.455 144.689 177.518 146.315 185.014 145.95C192.509 145.584 199.848 143.541 207.012 139.809C214.182 136.077 220.947 130.787 227.325 123.937C233.702 117.081 239.08 108.988 243.462 99.6443C247.845 90.301 250.705 80.834 252.043 71.2431C253.38 61.6522 253.318 52.6354 251.846 44.2039H251.851Z" fill="#EEEEEE" stroke="#202124" stroke-width="1.8" stroke-miterlimit="10"/>
<path d="M230.817 57.9024C228.815 66.9074 225.867 76.1587 221.968 85.6788C218.07 95.1934 213.738 103.694 208.889 111.4C204.04 119.111 199.118 125.512 194.117 130.597C189.121 135.682 184.244 139.272 179.496 141.36C174.748 143.444 170.484 143.505 166.755 141.752C163.059 140.022 160.336 136.684 158.536 131.527C156.736 126.369 155.897 120.097 156.01 112.722C156.122 105.346 157.186 97.1366 159.2 88.0925C161.214 79.0539 164.156 69.8194 168.026 60.3777C171.896 50.9359 176.29 42.2726 181.128 34.5949C185.966 26.9228 190.882 20.5443 195.878 15.4538C200.879 10.3633 205.756 6.77929 210.521 4.70166C215.285 2.62403 219.516 2.44483 223.217 4.18645C226.947 5.93368 229.698 9.38893 231.481 14.5298C233.264 19.6819 234.103 25.9428 233.99 33.3237C233.878 40.699 232.82 48.8975 230.823 57.8912H230.812L230.817 57.9024Z" stroke="#202124" stroke-width="1.8" stroke-miterlimit="10"/>
<path d="M159 29L252 69" stroke="#202124" stroke-width="1.8" stroke-miterlimit="10"/>
<path d="M139 74L233 116" stroke="#202124" stroke-width="1.8" stroke-miterlimit="10"/>
<path d="M223 4L167 142" stroke="#202124" stroke-width="1.8" stroke-miterlimit="10"/>
<path d="M252 70L298 89" stroke="#202124" stroke-width="1.8" stroke-miterlimit="10"/>
<path d="M246 25L292 45" stroke="#202124" stroke-width="1.8" stroke-miterlimit="10"/>
<path d="M202 142L248 161" stroke="#202124" stroke-width="1.8" stroke-miterlimit="10"/>
<path d="M233 116L279 136" stroke="#202124" stroke-width="1.8" stroke-miterlimit="10"/>
<defs>
<linearGradient id="paint0_linear_7904_10798" x1="41.275" y1="367.807" x2="511.777" y2="367.807" gradientUnits="userSpaceOnUse">
<stop stop-color="#5382EB"/>
<stop offset="0.25" stop-color="#5382EB"/>
<stop offset="0.52" stop-color="#9F6CD4"/>
<stop offset="0.82" stop-color="#EA4335"/>
<stop offset="1" stop-color="#EA4335"/>
</linearGradient>
<linearGradient id="paint1_linear_7904_10798" x1="169.363" y1="182.291" x2="397.053" y2="316.637" gradientUnits="userSpaceOnUse">
<stop stop-color="#FFCB32"/>
<stop offset="0.18" stop-color="#FFCB32"/>
<stop offset="0.53" stop-color="#F46831"/>
<stop offset="0.79" stop-color="#EA4335"/>
<stop offset="1" stop-color="#EA4335"/>
</linearGradient>
<linearGradient id="paint2_linear_7904_10798" x1="293.211" y1="166.175" x2="370.208" y2="158.513" gradientUnits="userSpaceOnUse">
<stop stop-color="#FFCB32"/>
<stop offset="0.18" stop-color="#FFCB32"/>
<stop offset="0.53" stop-color="#F46831"/>
<stop offset="0.79" stop-color="#EA4335"/>
<stop offset="1" stop-color="#EA4335"/>
</linearGradient>
<linearGradient id="paint3_linear_7904_10798" x1="471.212" y1="124.714" x2="565.429" y2="259.061" gradientUnits="userSpaceOnUse">
<stop stop-color="#FFCB32"/>
<stop offset="0.24" stop-color="#FFCB32"/>
<stop offset="0.76" stop-color="#34A853"/>
<stop offset="1" stop-color="#34A853"/>
</linearGradient>
<linearGradient id="paint4_linear_7904_10798" x1="203.198" y1="145.607" x2="273.384" y2="34.7224" gradientUnits="userSpaceOnUse">
<stop stop-color="#4285F4"/>
<stop offset="0.27" stop-color="#4285F4"/>
<stop offset="0.75" stop-color="#34A853"/>
<stop offset="1" stop-color="#34A853"/>
</linearGradient>
</defs>
</svg>
