<svg width="360" height="159" viewBox="0 0 360 159" fill="none" xmlns="http://www.w3.org/2000/svg">
<g clip-path="url(#clip0_7920_3448)">
<path d="M149.607 123.926V186.998" stroke="#EEEEEE" stroke-width="1.2" stroke-miterlimit="10"/>
<path d="M119.069 118.549V187" stroke="#EEEEEE" stroke-width="1.2" stroke-miterlimit="10"/>
<path d="M88.5286 109.059L88.3159 187" stroke="#EEEEEE" stroke-width="1.2" stroke-miterlimit="10"/>
<path d="M57.9883 94.7617V187" stroke="#EEEEEE" stroke-width="1.2" stroke-miterlimit="10"/>
<path d="M27.4492 187V75.2227" stroke="#EEEEEE" stroke-width="1.2" stroke-miterlimit="10"/>
<path d="M180.222 186.999V125.809" stroke="#EEEEEE" stroke-width="1.2" stroke-miterlimit="10"/>
<path d="M210.761 123.926V186.998" stroke="#EEEEEE" stroke-width="1.2" stroke-miterlimit="10"/>
<path d="M241.301 118.549V187" stroke="#EEEEEE" stroke-width="1.2" stroke-miterlimit="10"/>
<path d="M271.839 109.059L272.054 187" stroke="#EEEEEE" stroke-width="1.2" stroke-miterlimit="10"/>
<path d="M302.38 94.4982V187" stroke="#EEEEEE" stroke-width="1.2" stroke-miterlimit="10"/>
<path d="M332.921 187V75.2227" stroke="#EEEEEE" stroke-width="1.2" stroke-miterlimit="10"/>
<path d="M394 99.2154C345.348 127.218 267.713 150.605 180.248 150.605C92.7834 150.605 15.0909 127.202 -33.5566 99.1838" stroke="#EEEEEE" stroke-width="1.2" stroke-miterlimit="10"/>
<path d="M393.557 133.898C337.503 146.927 262.377 162.804 179.805 162.804C97.2329 162.804 22.0578 146.935 -34 133.898" stroke="#EEEEEE" stroke-width="1.2" stroke-miterlimit="10"/>
<path d="M393.805 59.7461C348.123 103.973 269.535 138.43 180.248 138.43C90.9618 138.43 12.0882 103.867 -33.5566 59.5039" stroke="#EEEEEE" stroke-width="1.2" stroke-miterlimit="10"/>
<path d="M393.805 5.26367C353.839 77.0211 273.209 126.065 180.248 126.065C87.2873 126.065 6.65867 77.0211 -33.3066 5.26367" stroke="#EEEEEE" stroke-width="1.2" stroke-miterlimit="10"/>
<path d="M204.075 135.772C204.502 135.772 204.502 134.982 204.075 134.982C203.647 134.982 203.647 135.772 204.075 135.772Z" fill="#EEEEEE"/>
<path d="M80.5779 104.846L77.1753 123.88C75.232 134.746 89.6693 146.523 109.417 150.187L120.336 152.214L191.581 165.433L202.501 167.459C222.251 171.124 239.834 165.286 241.775 154.42L245.06 136.05" fill="url(#paint0_linear_7920_3448)"/>
<path d="M80.5779 104.846L77.1753 123.88C75.2319 134.746 89.6693 146.523 109.417 150.187L120.336 152.214L191.581 165.433L202.501 167.459C222.251 171.124 239.834 165.286 241.775 154.42L245.06 136.05" stroke="#EEEEEE" stroke-width="1.2" stroke-miterlimit="10"/>
<path d="M78.8477 114.525C76.9043 125.391 91.3416 137.168 111.089 140.832L122.009 142.859L193.254 156.078L204.173 158.104C223.923 161.769 241.507 155.932 243.448 145.066" stroke="#EEEEEE" stroke-width="1.2" stroke-miterlimit="10"/>
<path d="M212.36 112.318L201.44 110.291L130.196 97.0719L119.276 95.0457C99.5262 91.3814 82.0983 96.3493 80.3467 106.141C78.595 115.933 93.1857 126.843 112.935 130.507L123.855 132.534L195.1 145.753L206.02 147.779C225.769 151.444 243.197 146.476 244.949 136.684C246.701 126.892 232.11 115.982 212.36 112.318Z" fill="#202124" stroke="#EEEEEE" stroke-width="1.2" stroke-miterlimit="10"/>
<path d="M84.8581 117.453L81.2861 136.043" stroke="#EEEEEE" stroke-width="1.2" stroke-miterlimit="10"/>
<path d="M237.38 145.154L234.166 164.108" stroke="#EEEEEE" stroke-width="1.2" stroke-miterlimit="10"/>
<path d="M98.9658 126.758L95.5703 145.753" stroke="#EEEEEE" stroke-width="1.2" stroke-miterlimit="10"/>
<path d="M118.995 131.518L115.456 151.307" stroke="#EEEEEE" stroke-width="1.2" stroke-miterlimit="10"/>
<path d="M139.534 134.982L135.935 155.108" stroke="#EEEEEE" stroke-width="1.2" stroke-miterlimit="10"/>
<path d="M159.955 139.117L156.416 158.908" stroke="#EEEEEE" stroke-width="1.2" stroke-miterlimit="10"/>
<path d="M180.438 142.918L176.898 162.707" stroke="#EEEEEE" stroke-width="1.2" stroke-miterlimit="10"/>
<path d="M200.991 146.795L197.378 166.51" stroke="#EEEEEE" stroke-width="1.2" stroke-miterlimit="10"/>
<path d="M221.7 148.832L218.182 168.501" stroke="#EEEEEE" stroke-width="1.2" stroke-miterlimit="10"/>
<ellipse cx="9.49423" cy="6.72724" rx="9.49423" ry="6.72724" transform="matrix(0.977728 0.209876 -0.201893 0.979407 98.7627 100.318)" stroke="#EEEEEE" stroke-width="1.2"/>
<line y1="-0.6" x2="11.1181" y2="-0.6" transform="matrix(0.709204 0.705003 -0.690506 0.723327 113.022 114.754)" stroke="#EEEEEE" stroke-width="1.2"/>
<path d="M230.16 56.3432L101.865 69.179L104.926 100.366C105.061 101.767 105.916 102.936 107.041 103.253L157.614 117.604C165.964 119.889 175.984 120.714 186.615 119.634C187.371 119.557 188.121 119.467 188.865 119.374C189.047 119.353 189.228 119.326 189.413 119.302C190.154 119.206 190.886 119.1 191.614 118.988C191.654 118.984 191.691 118.976 191.731 118.968C192.425 118.86 193.115 118.738 193.801 118.613C193.978 118.579 194.156 118.549 194.333 118.516C195.041 118.381 195.746 118.244 196.443 118.093C196.513 118.078 196.579 118.061 196.649 118.046C197.29 117.909 197.922 117.762 198.55 117.609C198.723 117.568 198.896 117.525 199.069 117.481C199.743 117.316 200.41 117.141 201.073 116.963C201.169 116.938 201.262 116.907 201.358 116.882C201.944 116.72 202.52 116.552 203.095 116.38C203.263 116.33 203.432 116.28 203.6 116.226C204.237 116.03 204.867 115.828 205.489 115.616C205.605 115.579 205.716 115.539 205.828 115.498C206.361 115.317 206.887 115.13 207.408 114.937C207.573 114.877 207.737 114.817 207.9 114.753C208.494 114.531 209.083 114.302 209.662 114.067C209.789 114.014 209.917 113.962 210.044 113.906C210.524 113.707 211 113.504 211.473 113.298C211.633 113.228 211.792 113.158 211.948 113.089C212.499 112.843 213.041 112.592 213.573 112.334C213.713 112.266 213.849 112.199 213.988 112.131C214.419 111.92 214.843 111.706 215.263 111.485C215.415 111.406 215.57 111.326 215.718 111.247C216.222 110.978 216.715 110.708 217.2 110.431C217.341 110.349 217.483 110.268 217.624 110.186C218.009 109.962 218.388 109.736 218.759 109.506C218.903 109.417 219.047 109.332 219.188 109.243C219.641 108.956 220.088 108.666 220.524 108.374C220.664 108.279 220.8 108.183 220.94 108.088C221.28 107.855 221.613 107.616 221.939 107.378C222.069 107.284 222.202 107.189 222.331 107.091C222.735 106.789 223.132 106.48 223.519 106.173C223.651 106.067 223.779 105.959 223.908 105.854C224.206 105.609 224.5 105.361 224.783 105.11C224.896 105.01 225.015 104.914 225.123 104.811C225.478 104.493 225.822 104.17 226.159 103.847C226.277 103.733 226.391 103.619 226.508 103.502C226.767 103.243 227.022 102.982 227.267 102.718C227.362 102.617 227.457 102.519 227.549 102.419C227.561 102.403 227.576 102.391 227.588 102.376C227.882 102.055 228.161 101.731 228.429 101.402C228.532 101.279 228.631 101.153 228.73 101.028C228.941 100.768 229.142 100.505 229.339 100.24C229.425 100.126 229.512 100.008 229.595 99.8945C229.847 99.5428 230.086 99.1891 230.314 98.8332C230.39 98.7168 230.459 98.5978 230.532 98.4818C230.704 98.2018 230.868 97.9225 231.026 97.6405C231.092 97.5252 231.158 97.4066 231.22 97.2917C231.416 96.9219 231.602 96.5533 231.77 96.1796C231.814 96.0808 231.854 95.9788 231.898 95.88C232.03 95.5765 232.154 95.2704 232.268 94.9654C232.311 94.8528 232.353 94.7402 232.395 94.6241C232.532 94.2401 232.654 93.8541 232.76 93.4665C232.779 93.3913 232.795 93.3164 232.814 93.2412C232.901 92.9079 232.975 92.576 233.038 92.2384C233.06 92.128 233.079 92.018 233.098 91.908C233.165 91.5108 233.221 91.1114 233.26 90.7068C233.262 90.6648 233.265 90.6228 233.267 90.5773C233.295 90.2087 233.311 89.8416 233.312 89.4725C233.314 89.3644 233.313 89.2566 233.312 89.1523C233.306 88.7423 233.29 88.3335 233.249 87.9238L230.369 58.3977M181.708 66.1908C181.074 66.2543 180.447 66.3239 179.82 66.397C179.615 66.4199 179.413 66.4492 179.211 66.4751C178.791 66.5288 178.37 66.5825 177.95 66.6396C177.711 66.6731 177.473 66.71 177.235 66.7434C176.855 66.7995 176.476 66.8556 176.097 66.9185C175.849 66.96 175.601 67.0014 175.357 67.0425C174.991 67.104 174.627 67.1689 174.262 67.2337C174.014 67.2787 173.77 67.3232 173.526 67.3712C173.158 67.4399 172.795 67.5151 172.431 67.5868C172.197 67.6337 171.966 67.6801 171.736 67.7301C171.34 67.8159 170.946 67.9013 170.554 67.9902C170.36 68.0326 170.167 68.0749 169.974 68.1207C169.398 68.2543 168.827 68.3944 168.259 68.541C168.163 68.5656 168.07 68.5933 167.974 68.6179C167.499 68.7402 167.028 68.8656 166.562 68.9975C166.356 69.0551 166.151 69.1162 165.946 69.1738C165.592 69.2757 165.241 69.3773 164.894 69.482C164.667 69.5525 164.439 69.6231 164.211 69.6936C163.891 69.7953 163.571 69.8935 163.255 69.9983C163.02 70.073 162.79 70.1508 162.556 70.229C162.247 70.333 161.941 70.4366 161.638 70.5433C161.408 70.6245 161.181 70.7054 160.955 70.7862C160.646 70.8971 160.341 71.011 160.039 71.1246C159.823 71.2043 159.61 71.2871 159.397 71.3665C159.066 71.4937 158.739 71.6275 158.412 71.7578C158.232 71.83 158.052 71.9022 157.876 71.974C157.389 72.1742 156.91 72.3806 156.437 72.5897C155.382 73.0549 154.353 73.5416 153.359 74.0452" fill="url(#paint1_linear_7920_3448)"/>
<path d="M230.16 56.3432L101.865 69.179L104.926 100.366C105.061 101.767 105.916 102.936 107.041 103.253L157.614 117.604C165.964 119.889 175.984 120.714 186.615 119.634C187.371 119.557 188.121 119.467 188.865 119.374C189.047 119.353 189.228 119.326 189.413 119.302C190.154 119.206 190.886 119.1 191.614 118.988C191.654 118.984 191.691 118.976 191.731 118.968C192.425 118.86 193.115 118.738 193.801 118.613C193.978 118.579 194.156 118.549 194.333 118.516C195.041 118.381 195.746 118.244 196.443 118.093C196.513 118.078 196.579 118.061 196.649 118.046C197.29 117.909 197.922 117.762 198.55 117.609C198.723 117.568 198.896 117.525 199.069 117.481C199.743 117.316 200.41 117.141 201.073 116.963C201.169 116.938 201.262 116.907 201.358 116.882C201.944 116.72 202.52 116.552 203.095 116.38C203.263 116.33 203.432 116.28 203.6 116.226C204.237 116.03 204.867 115.828 205.489 115.616C205.605 115.579 205.716 115.539 205.828 115.498C206.361 115.317 206.887 115.13 207.408 114.937C207.573 114.877 207.737 114.817 207.9 114.753C208.494 114.531 209.083 114.302 209.662 114.067C209.789 114.014 209.917 113.962 210.044 113.906C210.524 113.707 211 113.504 211.473 113.298C211.633 113.228 211.792 113.158 211.948 113.089C212.499 112.843 213.041 112.592 213.573 112.334C213.713 112.266 213.849 112.199 213.988 112.131C214.419 111.92 214.843 111.706 215.263 111.485C215.415 111.406 215.57 111.326 215.718 111.247C216.222 110.978 216.715 110.708 217.2 110.431C217.341 110.349 217.483 110.268 217.624 110.186C218.009 109.962 218.388 109.736 218.759 109.506C218.903 109.417 219.047 109.332 219.188 109.243C219.641 108.956 220.088 108.666 220.524 108.374C220.664 108.279 220.8 108.183 220.94 108.088C221.28 107.855 221.613 107.616 221.939 107.378C222.069 107.284 222.202 107.189 222.331 107.091C222.735 106.789 223.132 106.48 223.519 106.173C223.651 106.067 223.779 105.959 223.908 105.854C224.206 105.609 224.5 105.361 224.783 105.11C224.896 105.01 225.015 104.914 225.123 104.811C225.478 104.493 225.822 104.17 226.159 103.847C226.277 103.733 226.391 103.619 226.508 103.502C226.767 103.243 227.022 102.982 227.267 102.718C227.362 102.617 227.457 102.519 227.549 102.419C227.561 102.403 227.576 102.391 227.588 102.376C227.882 102.055 228.161 101.731 228.429 101.402C228.532 101.279 228.631 101.153 228.73 101.028C228.941 100.768 229.142 100.505 229.339 100.24C229.425 100.126 229.512 100.008 229.595 99.8945C229.847 99.5428 230.086 99.1891 230.314 98.8332C230.39 98.7168 230.459 98.5978 230.532 98.4818C230.704 98.2018 230.868 97.9225 231.026 97.6405C231.092 97.5252 231.158 97.4066 231.22 97.2917C231.416 96.9219 231.602 96.5533 231.77 96.1796C231.814 96.0808 231.854 95.9788 231.898 95.88C232.03 95.5765 232.154 95.2704 232.268 94.9654C232.311 94.8528 232.353 94.7402 232.395 94.6241C232.532 94.2401 232.654 93.8541 232.76 93.4665C232.779 93.3913 232.795 93.3164 232.814 93.2412C232.901 92.9079 232.975 92.576 233.038 92.2384C233.06 92.128 233.079 92.018 233.098 91.908C233.165 91.5108 233.221 91.1113 233.26 90.7068C233.262 90.6648 233.265 90.6228 233.267 90.5773C233.295 90.2087 233.311 89.8416 233.312 89.4725C233.314 89.3644 233.313 89.2566 233.312 89.1523C233.306 88.7423 233.29 88.3335 233.249 87.9238L230.369 58.3977M181.708 66.1908C181.074 66.2543 180.447 66.3239 179.82 66.397C179.615 66.4199 179.413 66.4492 179.211 66.4751C178.791 66.5288 178.37 66.5825 177.95 66.6396C177.711 66.6731 177.473 66.71 177.235 66.7434C176.855 66.7995 176.476 66.8556 176.097 66.9185C175.849 66.96 175.601 67.0014 175.357 67.0425C174.991 67.104 174.627 67.1689 174.262 67.2337C174.014 67.2787 173.77 67.3232 173.526 67.3712C173.158 67.4399 172.795 67.5151 172.431 67.5868C172.197 67.6337 171.966 67.6801 171.736 67.7301C171.34 67.8159 170.946 67.9013 170.554 67.9902C170.36 68.0326 170.167 68.0749 169.974 68.1207C169.398 68.2543 168.827 68.3944 168.259 68.541C168.163 68.5656 168.07 68.5933 167.974 68.6179C167.499 68.7402 167.028 68.8656 166.562 68.9975C166.356 69.0551 166.151 69.1162 165.946 69.1738C165.592 69.2757 165.241 69.3773 164.894 69.482C164.667 69.5525 164.439 69.6231 164.211 69.6936C163.891 69.7953 163.571 69.8935 163.255 69.9983C163.02 70.073 162.79 70.1508 162.556 70.229C162.247 70.333 161.941 70.4366 161.638 70.5433C161.408 70.6245 161.181 70.7054 160.955 70.7862C160.646 70.8971 160.341 71.011 160.039 71.1246C159.823 71.2043 159.61 71.2871 159.397 71.3665C159.066 71.4937 158.739 71.6275 158.412 71.7578C158.232 71.83 158.052 71.9022 157.876 71.974C157.389 72.1742 156.91 72.3806 156.437 72.5897C155.382 73.0549 154.353 73.5416 153.359 74.0452" stroke="#EEEEEE" stroke-width="1.2" stroke-miterlimit="10"/>
<path d="M103.423 84.2125C103.559 85.6138 104.147 86.8083 105.272 87.1288L155.845 101.48C164.196 103.765 174.215 104.59 184.846 103.51C185.602 103.433 186.353 103.343 187.096 103.25C187.278 103.229 187.46 103.202 187.645 103.178C188.385 103.082 189.117 102.976 189.845 102.864C189.886 102.86 189.922 102.852 189.962 102.844C190.657 102.736 191.346 102.614 192.032 102.489C192.209 102.455 192.387 102.425 192.564 102.392C193.273 102.257 193.978 102.12 194.674 101.969C194.744 101.954 194.811 101.937 194.881 101.922C195.521 101.785 196.153 101.638 196.781 101.485C196.954 101.444 197.127 101.401 197.3 101.357C197.974 101.192 198.641 101.017 199.304 100.839C199.401 100.814 199.493 100.783 199.589 100.758C200.175 100.596 200.751 100.428 201.326 100.256C201.495 100.206 201.663 100.156 201.831 100.102C202.469 99.9061 203.099 99.7039 203.721 99.4921C203.836 99.4549 203.948 99.4147 204.059 99.3745C204.592 99.1934 205.118 99.0063 205.64 98.8126C205.804 98.7526 205.968 98.6926 206.132 98.6291C206.725 98.4066 207.315 98.1776 207.893 97.9428C208.021 97.8903 208.148 97.8379 208.275 97.782C208.755 97.5825 209.232 97.3799 209.704 97.1743C209.864 97.1044 210.023 97.0344 210.18 96.9649C210.73 96.7193 211.273 96.4676 211.804 96.2102C211.944 96.1425 212.08 96.0752 212.219 96.0075C212.65 95.796 213.074 95.5819 213.494 95.3612C213.646 95.2817 213.801 95.2018 213.95 95.1227C214.453 94.8545 214.946 94.584 215.431 94.3073C215.573 94.2255 215.714 94.1436 215.855 94.0618C216.241 93.838 216.619 93.6116 216.99 93.3824C217.134 93.2933 217.278 93.2077 217.419 93.119C217.873 92.8319 218.319 92.5422 218.755 92.2501C218.895 92.1545 219.032 92.0593 219.172 91.9638C219.512 91.7311 219.844 91.4923 220.17 91.2542C220.3 91.1598 220.433 91.0649 220.562 90.967C220.967 90.6646 221.363 90.356 221.75 90.0486C221.882 89.9434 222.01 89.8352 222.139 89.7304C222.437 89.4851 222.731 89.2366 223.015 88.9859C223.127 88.8864 223.246 88.7896 223.354 88.6871C223.709 88.3693 224.053 88.0457 224.391 87.7228C224.508 87.6088 224.622 87.4952 224.739 87.3778C224.998 87.1194 225.253 86.8579 225.498 86.594C225.593 86.493 225.688 86.3954 225.78 86.2947C225.792 86.2795 225.808 86.2673 225.82 86.252C226.113 85.9306 226.392 85.6072 226.66 85.2781C226.763 85.1553 226.862 85.0295 226.962 84.9036C227.173 84.6435 227.373 84.3811 227.57 84.1157C227.656 84.0016 227.743 83.8841 227.826 83.7705C228.079 83.4188 228.317 83.0651 228.545 82.7092C228.621 82.5928 228.691 82.4738 228.763 82.3578C228.935 82.0778 229.099 81.7985 229.257 81.5165C229.323 81.4012 229.389 81.2826 229.452 81.1677C229.647 80.7979 229.833 80.4293 230.001 80.0556C230.045 79.9567 230.086 79.8548 230.13 79.756C230.261 79.4525 230.385 79.1464 230.499 78.8414C230.542 78.7288 230.585 78.6162 230.627 78.5001C230.763 78.116 230.886 77.7301 230.991 77.3425C231.01 77.2673 231.026 77.1924 231.045 77.1172C231.133 76.7838 231.206 76.452 231.269 76.1144C231.291 76.004 231.31 75.894 231.329 75.784C231.396 75.3868 231.452 74.9873 231.491 74.5828C231.493 74.5408 231.496 74.4988 231.498 74.4533C231.527 74.0847 231.542 73.7176 231.544 73.3485C231.546 73.2404 231.544 73.1326 231.544 73.0283C231.537 72.6183 231.521 72.2095 231.481 71.7998" stroke="#EEEEEE" stroke-width="1.2" stroke-miterlimit="10"/>
<path d="M185.761 87.7884C185.943 87.7681 186.124 87.741 186.309 87.717C187.049 87.6209 187.781 87.5152 188.51 87.403C188.55 87.3985 188.587 87.3909 188.627 87.383C189.321 87.2745 190.011 87.1527 190.697 87.0278C190.874 86.9942 191.051 86.964 191.228 86.9304C191.937 86.796 192.642 86.6585 193.339 86.508C193.409 86.4933 193.475 86.4755 193.545 86.4608C194.185 86.3235 194.818 86.1767 195.446 86.0234C195.619 85.9833 195.792 85.9397 195.964 85.8962C196.639 85.7307 197.306 85.5558 197.969 85.3777C198.065 85.3531 198.157 85.3219 198.254 85.2973C198.84 85.1348 199.415 84.9664 199.99 84.7946C200.159 84.7446 200.328 84.6945 200.496 84.6411C201.133 84.445 201.763 84.2428 202.385 84.031C202.5 83.9938 202.612 83.9535 202.724 83.9133C203.257 83.7323 203.783 83.5451 204.304 83.3514C204.468 83.2914 204.632 83.2314 204.796 83.168C205.39 82.9455 205.979 82.7164 206.558 82.4816C206.685 82.4292 206.813 82.3767 206.94 82.3209C207.42 82.1214 207.896 81.9188 208.369 81.7132C208.528 81.6432 208.688 81.5733 208.844 81.5037C209.394 81.2582 209.937 81.0065 210.469 80.749C210.608 80.6813 210.744 80.614 210.884 80.5463C211.315 80.3349 211.739 80.1207 212.159 79.9001C212.31 79.8206 212.466 79.7407 212.614 79.6615C213.117 79.3933 213.61 79.1228 214.096 78.8461C214.237 78.7643 214.378 78.6825 214.52 78.6007C214.905 78.3769 215.283 78.1504 215.655 77.9212C215.799 77.8322 215.943 77.7465 216.084 77.6578C216.537 77.3708 216.984 77.081 217.42 76.789C217.56 76.6934 217.696 76.5982 217.836 76.5026C218.176 76.2699 218.509 76.0311 218.835 75.7931C218.964 75.6986 219.097 75.6038 219.227 75.5059C219.631 75.2034 220.028 74.8949 220.415 74.5874C220.547 74.4823 220.675 74.3741 220.804 74.2693C221.101 74.0239 221.395 73.7755 221.679 73.5247C221.791 73.4252 221.91 73.3285 222.019 73.2259C222.374 72.9081 222.718 72.5845 223.055 72.2617C223.173 72.1477 223.287 72.0341 223.404 71.9167C223.663 71.6582 223.918 71.3967 224.162 71.1329C224.257 71.0318 224.353 70.9342 224.444 70.8336C224.456 70.8183 224.472 70.8061 224.484 70.7909C224.777 70.4695 225.056 70.1461 225.325 69.817C225.428 69.6942 225.527 69.5683 225.626 69.4425C225.837 69.1824 226.037 68.92 226.234 68.6545C226.321 68.5405 226.407 68.423 226.491 68.3093C226.743 67.9576 226.982 67.604 227.21 67.248C227.286 67.1317 227.355 67.0126 227.428 66.8966C227.599 66.6166 227.764 66.3373 227.921 66.0553C227.988 65.9401 228.053 65.8214 228.116 65.7065C228.312 65.3368 228.498 64.9681 228.666 64.5945C228.71 64.4956 228.75 64.3937 228.794 64.2948C228.926 63.9914 229.05 63.6852 229.164 63.3802C229.206 63.2676 229.249 63.155 229.291 63.0389C229.428 62.6549 229.55 62.2689 229.655 61.8813C229.675 61.8061 229.69 61.7313 229.71 61.656C229.797 61.3227 229.871 60.9908 229.934 60.6532C229.956 60.5429 229.975 60.4329 229.994 60.3229C230.061 59.9257 230.117 59.5262 230.156 59.1217C230.158 59.0797 230.16 59.0376 230.162 58.9922C230.191 58.6235 230.207 58.2564 230.208 57.8873C230.21 57.7792 230.209 57.6715 230.208 57.5672C230.202 57.1572 230.185 56.7483 230.145 56.3387C228.708 41.6171 205.77 31.9427 178.604 34.6091C177.97 34.6726 177.343 34.7422 176.716 34.8153C176.511 34.8381 176.309 34.8675 176.107 34.8934C175.687 34.9471 175.266 35.0008 174.846 35.0579C174.607 35.0913 174.369 35.1282 174.131 35.1617C173.751 35.2178 173.372 35.2738 172.993 35.3368C172.745 35.3783 172.497 35.4197 172.253 35.4608C171.887 35.5223 171.523 35.5872 171.158 35.652C170.91 35.6969 170.666 35.7415 170.422 35.7894C170.054 35.8581 169.691 35.9334 169.327 36.0051C169.093 36.052 168.863 36.0984 168.633 36.1484C168.236 36.2342 167.843 36.3196 167.45 36.4085C167.256 36.4509 167.063 36.4932 166.87 36.539C166.294 36.6726 165.723 36.8127 165.155 36.9592C165.059 36.9838 164.966 37.0115 164.87 37.0361C164.395 37.1585 163.924 37.2839 163.458 37.4158C163.252 37.4734 163.047 37.5344 162.842 37.592C162.488 37.694 162.137 37.7956 161.791 37.9003C161.563 37.9708 161.335 38.0414 161.107 38.1119C160.787 38.2136 160.467 38.3118 160.151 38.4166C159.916 38.4913 159.686 38.5691 159.452 38.6473C159.143 38.7513 158.837 38.8549 158.534 38.9615C158.304 39.0428 158.077 39.1237 157.851 39.2045C157.542 39.3154 157.237 39.4293 156.935 39.5429C156.719 39.6226 156.506 39.7054 156.293 39.7848C155.962 39.912 155.635 40.0458 155.308 40.1761C155.128 40.2483 154.948 40.3205 154.772 40.3923C154.285 40.5925 153.806 40.7989 153.333 41.008C152.278 41.4732 151.249 41.9599 150.256 42.4635L103.984 66.2924C102.277 67.1711 101.743 68.3024 101.847 69.3697C101.95 70.4371 102.695 71.4402 104.537 71.9594L154.502 86.0127C162.853 88.2973 172.872 89.1227 183.503 88.0427C184.259 87.9657 185.01 87.8753 185.753 87.7822L185.761 87.7884Z" fill="#202124" stroke="#EEEEEE" stroke-width="1.2" stroke-miterlimit="10"/>
<path d="M181.334 70.1049C188.928 69.3337 194.723 64.9922 194.276 60.408C193.829 55.8238 187.309 52.7328 179.715 53.504C172.12 54.2752 166.326 58.6166 166.773 63.2009C167.22 67.7851 173.739 70.8761 181.334 70.1049Z" fill="url(#paint2_linear_7920_3448)" stroke="#EEEEEE" stroke-width="1.2" stroke-miterlimit="10"/>
<mask id="mask0_7920_3448" style="mask-type:luminance" maskUnits="userSpaceOnUse" x="166" y="53" width="29" height="18">
<path d="M181.332 70.0992C188.927 69.3279 194.721 64.9865 194.274 60.4023C193.827 55.8181 187.308 52.727 179.713 53.4982C172.119 54.2695 166.324 58.6109 166.771 63.1951C167.218 67.7793 173.738 70.8704 181.332 70.0992Z" fill="white"/>
</mask>
<g mask="url(#mask0_7920_3448)">
<path d="M167.911 74.2456C167.462 69.6598 173.258 65.32 180.852 64.546C188.447 63.7754 194.963 66.8658 195.411 71.4516" stroke="#EEEEEE" stroke-width="1.2" stroke-miterlimit="10"/>
</g>
<path d="M181.332 70.1011C188.927 69.3299 194.721 64.9885 194.274 60.4042C193.827 55.82 187.308 52.729 179.713 53.5002C172.119 54.2714 166.324 58.6128 166.771 63.1971C167.218 67.7813 173.738 70.8723 181.332 70.1011Z" stroke="#EEEEEE" stroke-width="1.2" stroke-miterlimit="10"/>
<path d="M112.519 74.2383L115.638 105.944" stroke="#EEEEEE" stroke-width="1.2" stroke-miterlimit="10"/>
<path d="M129.006 79.0898L132.086 110.452" stroke="#EEEEEE" stroke-width="1.2" stroke-miterlimit="10"/>
<path d="M147.63 83.5918L150.772 115.508" stroke="#EEEEEE" stroke-width="1.2" stroke-miterlimit="10"/>
<path d="M167.981 88.5782L170.997 119.311" stroke="#EEEEEE" stroke-width="1.2" stroke-miterlimit="10"/>
<path d="M179.751 53.5664L181.373 70.2095" stroke="#EEEEEE" stroke-width="1.2" stroke-miterlimit="10"/>
<path d="M188.125 53.8984L189.46 67.6918" stroke="#EEEEEE" stroke-width="1.2" stroke-miterlimit="10"/>
<path d="M171.604 55.6094L172.954 69.2618" stroke="#EEEEEE" stroke-width="1.2" stroke-miterlimit="10"/>
<path d="M190.331 87.5059L193.343 118.235" stroke="#EEEEEE" stroke-width="1.2" stroke-miterlimit="10"/>
<path d="M211.245 80.5176L214.333 112.029" stroke="#EEEEEE" stroke-width="1.2" stroke-miterlimit="10"/>
<path d="M225.584 69.4473L228.673 100.955" stroke="#EEEEEE" stroke-width="1.2" stroke-miterlimit="10"/>
<path d="M204.388 95.1939C217.37 87.4287 227.062 67.4418 225.097 53.0784C224.602 49.4579 223.136 43.5442 220.953 39.405L238.233 29.7759L276.693 101.746L259.413 111.375C257.186 107.26 253.108 102.801 250.393 100.415C239.626 90.952 217.911 88.4379 204.485 95.3726" fill="url(#paint3_linear_7920_3448)"/>
<path d="M204.388 95.1939C217.37 87.4287 227.062 67.4418 225.097 53.0784C224.602 49.4579 223.136 43.5442 220.953 39.405L238.233 29.7759L276.693 101.746L259.413 111.375C257.186 107.26 253.108 102.801 250.393 100.415C239.626 90.952 217.911 88.4379 204.485 95.3726" stroke="#EEEEEE" stroke-width="1.2" stroke-miterlimit="10"/>
<path d="M213.797 90.124C227.146 82.6769 247.43 86.1951 258.41 95.844C261.126 98.2294 265.203 102.689 267.431 106.804L276.492 101.791L238.092 29.94L228.968 34.8357C231.152 38.975 232.618 44.8886 233.112 48.5092C235.116 63.1544 227.161 82.7048 213.797 90.124Z" stroke="#EEEEEE" stroke-width="1.2" stroke-miterlimit="10"/>
<path d="M285.13 50.6371L285.862 50.2184C272.487 57.5775 256.521 51.9312 246.434 41.3939C243.2 38.0145 240.525 34.1232 238.312 29.9833C245.402 43.3788 247.317 61.6719 237.573 74.3569C235.213 77.4285 232.193 79.875 228.844 81.7404C242.263 74.3548 258.302 79.9339 268.447 90.5239C271.68 93.8995 274.247 97.5936 276.457 101.732C269.486 88.5638 267.6 70.9561 276.753 58.2361C278.989 55.129 281.872 52.5735 285.132 50.6389L285.13 50.6371Z" fill="#202124" stroke="#EEEEEE" stroke-width="1.2" stroke-miterlimit="10"/>
<path d="M242.37 41.1889L224.85 50.9399" stroke="#EEEEEE" stroke-width="1.2" stroke-miterlimit="10"/>
<path d="M243.937 52.9956L224.722 63.6887" stroke="#EEEEEE" stroke-width="1.2" stroke-miterlimit="10"/>
<path d="M242.117 65.3455L219.881 77.7196" stroke="#EEEEEE" stroke-width="1.2" stroke-miterlimit="10"/>
<path d="M269.561 92.0618L252.039 101.813" stroke="#EEEEEE" stroke-width="1.2" stroke-miterlimit="10"/>
<path d="M260.679 84.3237L241.464 95.0168" stroke="#EEEEEE" stroke-width="1.2" stroke-miterlimit="10"/>
<path d="M249.52 79.199L227.284 91.5731" stroke="#EEEEEE" stroke-width="1.2" stroke-miterlimit="10"/>
<path d="M230.096 81.04L204.914 95.0533" stroke="#EEEEEE" stroke-width="1.2" stroke-miterlimit="10"/>
<path d="M168.392 25.4102C167.872 22.3448 166.87 19.5864 165.387 17.139C162.829 12.9114 158.668 10.8855 154.421 8.89858C150.384 7.01189 146.083 4.8817 141.681 4.09387C139.019 4.22688 121.649 54.3632 121.649 54.3632C121.649 54.3632 126.584 56.4361 130.136 57.7253C132.665 58.6441 134.73 59.5711 137.127 60.6249C139.687 61.7504 141.99 62.5321 144.652 62.3991C147.315 62.266 149.921 61.5212 152.465 60.1665C155.012 58.8098 157.414 56.8863 159.679 54.396C161.945 51.9036 163.854 48.961 165.411 45.5642C166.968 42.1673 167.983 38.7254 168.458 35.2385C168.933 31.7516 168.911 28.4735 168.39 25.4102H168.392Z" fill="url(#paint4_linear_7920_3448)" stroke="#EEEEEE" stroke-width="1.2" stroke-miterlimit="10"/>
<path d="M160.529 21.732C160.005 18.666 158.996 15.9069 157.503 13.459C156.012 11.0111 154.079 9.12807 151.708 7.81201C149.335 6.49594 141.715 3.60183 139.033 3.73282C136.352 3.86586 116.664 46.5571 118.157 49.0051C119.65 51.453 121.563 53.8825 123.936 55.1986C126.235 56.3509 127.099 56.4921 129.512 57.5462C132.09 58.6719 133.947 58.8643 136.628 58.7313C139.308 58.5982 141.932 57.8532 144.494 56.4982C147.058 55.1412 149.478 53.2173 151.758 50.7264C154.039 48.2334 155.962 45.2902 157.529 41.8926C159.097 38.495 160.119 35.0523 160.598 31.5646C161.076 28.077 161.054 24.798 160.527 21.732H160.529Z" stroke="#EEEEEE" stroke-width="1.2" stroke-miterlimit="10"/>
<path d="M151.958 18.7478C151.434 15.6746 150.426 12.909 148.937 10.4554C147.446 8.00168 145.517 6.11423 143.147 4.79507C140.778 3.47591 138.253 2.88506 135.576 3.01841C132.898 3.15177 130.279 3.89649 127.718 5.25463C125.157 6.61482 122.739 8.54329 120.461 11.0401C118.185 13.5368 116.264 16.489 114.698 19.8926C113.133 23.2982 112.111 26.7489 111.634 30.2448C111.154 33.7407 111.178 37.0273 111.702 40.1026C112.226 43.1759 113.233 45.9414 114.724 48.3951C116.216 50.8487 118.144 52.7362 120.515 54.0554C122.883 55.3745 125.406 55.9674 128.083 55.8341C130.761 55.7007 133.382 54.956 135.941 53.5958C138.502 52.2356 140.919 50.3071 143.197 47.8104C145.475 45.3116 147.396 42.3614 148.961 38.9558C150.527 35.5502 151.548 32.0994 152.026 28.6036C152.503 25.1077 152.481 21.8211 151.956 18.7478H151.958Z" fill="#202124" stroke="#EEEEEE" stroke-width="1.2" stroke-miterlimit="10"/>
<path d="M144.444 23.7404C143.729 27.0227 142.676 30.3948 141.283 33.8649C139.891 37.333 138.344 40.4315 136.611 43.2403C134.879 46.051 133.121 48.3842 131.335 50.2376C129.55 52.091 127.808 53.3995 126.112 54.1608C124.417 54.9202 122.893 54.9426 121.561 54.3037C120.241 53.673 119.269 52.4564 118.626 50.5764C117.983 48.6965 117.683 46.4103 117.723 43.722C117.763 41.0337 118.143 38.0413 118.863 34.7447C119.582 31.4501 120.633 28.0842 122.015 24.6427C123.398 21.2011 124.967 18.0434 126.695 15.2448C128.423 12.4484 130.179 10.1234 131.964 8.26793C133.75 6.41245 135.492 5.10606 137.194 4.34877C138.896 3.59147 140.407 3.52616 141.729 4.16098C143.062 4.79784 144.044 6.05728 144.681 7.93112C145.318 9.80905 145.617 12.0911 145.577 14.7815C145.537 17.4698 145.159 20.4581 144.446 23.7363H144.442L144.444 23.7404Z" stroke="#EEEEEE" stroke-width="1.2" stroke-miterlimit="10"/>
<path d="M118.792 13.2051L152.011 27.7851" stroke="#EEEEEE" stroke-width="1.2" stroke-miterlimit="10"/>
<path d="M111.648 29.6076L145.224 44.9166" stroke="#EEEEEE" stroke-width="1.2" stroke-miterlimit="10"/>
<path d="M141.652 4.09387L121.649 54.3948" stroke="#EEEEEE" stroke-width="1.2" stroke-miterlimit="10"/>
<path d="M152.011 28.1504L168.442 35.0759" stroke="#EEEEEE" stroke-width="1.2" stroke-miterlimit="10"/>
<path d="M149.867 11.748L166.298 19.038" stroke="#EEEEEE" stroke-width="1.2" stroke-miterlimit="10"/>
<path d="M134.151 54.3945L150.582 61.32" stroke="#EEEEEE" stroke-width="1.2" stroke-miterlimit="10"/>
<path d="M145.224 44.9178L161.655 52.2078" stroke="#EEEEEE" stroke-width="1.2" stroke-miterlimit="10"/>
<path d="M0 159L360 159" stroke="white" stroke-width="1.2" stroke-miterlimit="10"/>
</g>
<defs>
<linearGradient id="paint0_linear_7920_3448" x1="76.7408" y1="136.7" x2="244.801" y2="136.7" gradientUnits="userSpaceOnUse">
<stop stop-color="#5382EB"/>
<stop offset="0.25" stop-color="#5382EB"/>
<stop offset="0.52" stop-color="#9F6CD4"/>
<stop offset="0.82" stop-color="#EA4335"/>
<stop offset="1" stop-color="#EA4335"/>
</linearGradient>
<linearGradient id="paint1_linear_7920_3448" x1="122.493" y1="69.0809" x2="204.665" y2="116.594" gradientUnits="userSpaceOnUse">
<stop stop-color="#FFCB32"/>
<stop offset="0.18" stop-color="#FFCB32"/>
<stop offset="0.53" stop-color="#F46831"/>
<stop offset="0.79" stop-color="#EA4335"/>
<stop offset="1" stop-color="#EA4335"/>
</linearGradient>
<linearGradient id="paint2_linear_7920_3448" x1="166.73" y1="63.2052" x2="194.244" y2="60.5221" gradientUnits="userSpaceOnUse">
<stop stop-color="#FFCB32"/>
<stop offset="0.18" stop-color="#FFCB32"/>
<stop offset="0.53" stop-color="#F46831"/>
<stop offset="0.79" stop-color="#EA4335"/>
<stop offset="1" stop-color="#EA4335"/>
</linearGradient>
<linearGradient id="paint3_linear_7920_3448" x1="230.312" y1="48.0912" x2="264.885" y2="96.4022" gradientUnits="userSpaceOnUse">
<stop stop-color="#FFCB32"/>
<stop offset="0.24" stop-color="#FFCB32"/>
<stop offset="0.76" stop-color="#34A853"/>
<stop offset="1" stop-color="#34A853"/>
</linearGradient>
<linearGradient id="paint4_linear_7920_3448" x1="134.579" y1="55.7097" x2="160.38" y2="15.7643" gradientUnits="userSpaceOnUse">
<stop stop-color="#4285F4"/>
<stop offset="0.27" stop-color="#4285F4"/>
<stop offset="0.75" stop-color="#34A853"/>
<stop offset="1" stop-color="#34A853"/>
</linearGradient>
<clipPath id="clip0_7920_3448">
<rect width="360" height="159" fill="white"/>
</clipPath>
</defs>
</svg>
