<svg width="644" height="532" viewBox="0 0 644 532" fill="none" xmlns="http://www.w3.org/2000/svg">
<path d="M1 447V620.891C1 651.331 55.3127 676 122.313 676H470.687C537.687 676 592 651.331 592 620.891V447" fill="#202124"/>
<path d="M1 447V620.891C1 651.331 55.3127 676 122.313 676H470.687C537.687 676 592 651.331 592 620.891V447" stroke="#EEEEEE" stroke-width="1.8" stroke-miterlimit="10"/>
<path d="M1.08789 487.625C1.08789 496.298 55.3639 503.328 122.319 503.328H470.457C537.412 503.328 591.688 496.298 591.688 487.625" stroke="#EEEEEE" stroke-width="1.8" stroke-miterlimit="10"/>
<path d="M1.08789 527.752C1.08789 536.426 55.3639 543.455 122.319 543.455H470.457C537.412 543.455 591.688 536.426 591.688 527.752" stroke="#EEEEEE" stroke-width="1.8" stroke-miterlimit="10"/>
<path d="M470.386 431.1H122.235C55.2779 431.1 1 438.521 1 447.669C1 456.825 55.2779 464.239 122.235 464.239H470.386C537.343 464.239 591.621 456.818 591.621 447.669C591.621 438.514 537.343 431.1 470.386 431.1Z" fill="#202124" stroke="#EEEEEE" stroke-width="1.8" stroke-miterlimit="10"/>
<path d="M32.084 459.215V615.964" stroke="#EEEEEE" stroke-width="1.8" stroke-miterlimit="10"/>
<path d="M559.009 459.215V615.964" stroke="#EEEEEE" stroke-width="1.8" stroke-miterlimit="10"/>
<path d="M81.21 463.156V622.863" stroke="#EEEEEE" stroke-width="1.8" stroke-miterlimit="10"/>
<path d="M152.449 463.156V623.849" stroke="#EEEEEE" stroke-width="1.8" stroke-miterlimit="10"/>
<path d="M224.921 463.156V623.849" stroke="#EEEEEE" stroke-width="1.8" stroke-miterlimit="10"/>
<path d="M297.385 463.156V623.849" stroke="#EEEEEE" stroke-width="1.8" stroke-miterlimit="10"/>
<path d="M369.856 463.156V623.849" stroke="#EEEEEE" stroke-width="1.8" stroke-miterlimit="10"/>
<path d="M443.553 463.156V623.849" stroke="#EEEEEE" stroke-width="1.8" stroke-miterlimit="10"/>
<path d="M516.02 463.156V620.891" stroke="#EEEEEE" stroke-width="1.8" stroke-miterlimit="10"/>
<path d="M52.0178 280.416L42.4917 332.637C37.0511 362.448 77.4699 394.757 132.755 404.81L163.325 410.369L362.783 446.636L393.353 452.195C448.645 462.248 497.872 446.234 503.306 416.423L512.503 366.024" fill="url(#paint0_linear_7920_444)"/>
<path d="M52.0178 280.416L42.4917 332.637C37.0511 362.448 77.4699 394.757 132.755 404.81L163.325 410.369L362.783 446.636L393.353 452.195C448.645 462.248 497.872 446.234 503.306 416.423L512.503 366.024" stroke="#EEEEEE" stroke-width="1.8" stroke-miterlimit="10"/>
<path d="M47.1744 306.973C41.7338 336.783 82.1525 369.093 137.437 379.146L168.008 384.705L367.465 420.972L398.036 426.531C453.327 436.584 502.554 420.57 507.988 390.759" stroke="#EEEEEE" stroke-width="1.8" stroke-miterlimit="10"/>
<path d="M420.956 300.914L390.385 295.355L190.928 259.088L160.357 253.529C105.066 243.476 56.2748 257.105 51.3709 283.969C46.4669 310.833 87.315 340.765 142.607 350.818L173.177 356.377L372.634 392.644L403.205 398.203C458.497 408.256 507.288 394.627 512.191 367.763C517.095 340.899 476.247 310.967 420.956 300.914Z" fill="#202124" stroke="#EEEEEE" stroke-width="1.8" stroke-miterlimit="10"/>
<path d="M64.001 315.002L54.001 366.002" stroke="#EEEEEE" stroke-width="1.8" stroke-miterlimit="10"/>
<path d="M491.001 391.002L482.001 443.002" stroke="#EEEEEE" stroke-width="1.8" stroke-miterlimit="10"/>
<path d="M103.496 340.533L93.9902 392.647" stroke="#EEEEEE" stroke-width="1.8" stroke-miterlimit="10"/>
<path d="M159.569 353.592L149.66 407.882" stroke="#EEEEEE" stroke-width="1.8" stroke-miterlimit="10"/>
<path d="M217.071 363.092L206.995 418.307" stroke="#EEEEEE" stroke-width="1.8" stroke-miterlimit="10"/>
<path d="M274.242 374.439L264.334 428.737" stroke="#EEEEEE" stroke-width="1.8" stroke-miterlimit="10"/>
<path d="M331.584 384.865L321.676 439.156" stroke="#EEEEEE" stroke-width="1.8" stroke-miterlimit="10"/>
<path d="M389.127 395.5L379.011 449.59" stroke="#EEEEEE" stroke-width="1.8" stroke-miterlimit="10"/>
<path d="M447.103 401.096L437.255 455.058" stroke="#EEEEEE" stroke-width="1.8" stroke-miterlimit="10"/>
<ellipse cx="125.114" cy="291.535" rx="26.5568" ry="18.4716" transform="rotate(11.8792 125.114 291.535)" stroke="#EEEEEE" stroke-width="1.8"/>
<line x1="143.477" y1="306.945" x2="165.552" y2="328.449" stroke="#EEEEEE" stroke-width="1.8"/>
<path d="M470.787 147.345L111.611 182.56L120.181 268.121C120.561 271.965 122.953 275.171 126.103 276.041L267.688 315.413C291.065 321.681 319.115 323.945 348.878 320.982C350.994 320.771 353.096 320.523 355.178 320.268C355.688 320.212 356.195 320.138 356.713 320.072C358.785 319.808 360.835 319.518 362.873 319.21C362.986 319.198 363.089 319.177 363.201 319.155C365.145 318.858 367.076 318.524 368.996 318.181C369.492 318.089 369.989 318.006 370.485 317.914C372.469 317.545 374.442 317.168 376.393 316.755C376.589 316.715 376.775 316.666 376.971 316.625C378.763 316.249 380.533 315.846 382.292 315.425C382.777 315.315 383.26 315.196 383.743 315.076C385.632 314.623 387.499 314.142 389.356 313.654C389.625 313.586 389.883 313.501 390.153 313.433C391.794 312.987 393.405 312.526 395.015 312.054C395.487 311.917 395.959 311.78 396.43 311.633C398.214 311.095 399.978 310.54 401.719 309.959C402.042 309.857 402.355 309.747 402.667 309.636C404.16 309.14 405.632 308.626 407.092 308.095C407.551 307.93 408.011 307.766 408.469 307.592C410.131 306.981 411.781 306.353 413.401 305.709C413.758 305.565 414.114 305.421 414.47 305.268C415.814 304.72 417.148 304.164 418.471 303.6C418.918 303.408 419.364 303.217 419.802 303.026C421.342 302.352 422.862 301.662 424.35 300.955C424.741 300.77 425.122 300.585 425.512 300.399C426.719 299.819 427.906 299.231 429.081 298.626C429.506 298.408 429.94 298.189 430.356 297.972C431.765 297.236 433.145 296.494 434.504 295.735C434.9 295.51 435.296 295.286 435.691 295.061C436.77 294.447 437.829 293.826 438.869 293.197C439.272 292.953 439.676 292.718 440.069 292.475C441.339 291.687 442.589 290.892 443.81 290.091C444.202 289.829 444.584 289.568 444.976 289.305C445.928 288.667 446.859 288.012 447.771 287.359C448.135 287.1 448.507 286.839 448.869 286.571C450.001 285.741 451.112 284.894 452.195 284.051C452.564 283.762 452.923 283.466 453.284 283.178C454.117 282.505 454.941 281.823 455.735 281.135C456.049 280.863 456.382 280.597 456.686 280.316C457.68 279.444 458.643 278.556 459.587 277.67C459.916 277.358 460.235 277.046 460.563 276.724C461.288 276.015 462.002 275.297 462.687 274.573C462.953 274.296 463.22 274.028 463.476 273.752C463.51 273.71 463.554 273.677 463.588 273.635C464.408 272.753 465.19 271.866 465.941 270.963C466.229 270.626 466.507 270.281 466.784 269.936C467.375 269.222 467.936 268.502 468.487 267.774C468.73 267.461 468.972 267.139 469.205 266.827C469.912 265.862 470.58 264.892 471.218 263.915C471.431 263.596 471.625 263.27 471.829 262.951C472.309 262.183 472.77 261.417 473.211 260.643C473.396 260.327 473.58 260.001 473.756 259.686C474.304 258.672 474.824 257.661 475.295 256.635C475.418 256.364 475.531 256.085 475.654 255.813C476.022 254.981 476.37 254.141 476.689 253.304C476.808 252.995 476.927 252.686 477.045 252.368C477.427 251.314 477.77 250.255 478.065 249.192C478.119 248.986 478.163 248.78 478.217 248.574C478.461 247.659 478.668 246.749 478.844 245.823C478.906 245.52 478.96 245.218 479.013 244.916C479.2 243.827 479.357 242.731 479.465 241.621C479.472 241.506 479.479 241.39 479.484 241.266C479.565 240.254 479.608 239.247 479.612 238.234C479.618 237.938 479.615 237.642 479.612 237.356C479.595 236.231 479.549 235.11 479.436 233.986L471.372 152.981M335.141 174.361C333.365 174.536 331.61 174.727 329.856 174.927C329.28 174.99 328.716 175.07 328.151 175.141C326.974 175.289 325.796 175.436 324.62 175.593C323.952 175.685 323.285 175.786 322.617 175.878C321.555 176.031 320.493 176.185 319.433 176.358C318.738 176.472 318.044 176.585 317.359 176.698C316.337 176.867 315.316 177.045 314.294 177.223C313.601 177.346 312.918 177.468 312.235 177.6C311.205 177.788 310.187 177.995 309.168 178.191C308.513 178.32 307.868 178.447 307.224 178.584C306.114 178.82 305.013 179.054 303.913 179.298C303.372 179.414 302.83 179.531 302.29 179.656C300.678 180.023 299.078 180.407 297.489 180.809C297.22 180.877 296.96 180.953 296.691 181.02C295.362 181.356 294.044 181.7 292.737 182.062C292.162 182.22 291.588 182.387 291.014 182.545C290.022 182.825 289.041 183.104 288.07 183.391C287.432 183.584 286.794 183.778 286.156 183.971C285.261 184.25 284.364 184.52 283.478 184.807C282.823 185.012 282.178 185.226 281.523 185.44C280.657 185.725 279.8 186.01 278.953 186.302C278.309 186.525 277.675 186.747 277.04 186.969C276.175 187.273 275.322 187.586 274.477 187.897C273.871 188.116 273.275 188.343 272.678 188.561C271.752 188.91 270.837 189.277 269.921 189.634C269.417 189.832 268.914 190.03 268.42 190.227C267.057 190.777 265.715 191.343 264.393 191.917C261.438 193.193 258.557 194.528 255.776 195.91" fill="url(#paint1_linear_7920_444)"/>
<path d="M470.787 147.345L111.611 182.56L120.18 268.121C120.561 271.965 122.953 275.171 126.103 276.041L267.688 315.413C291.065 321.681 319.115 323.945 348.878 320.982C350.994 320.771 353.096 320.523 355.178 320.268C355.688 320.212 356.195 320.138 356.713 320.072C358.785 319.808 360.835 319.518 362.873 319.21C362.986 319.198 363.089 319.177 363.201 319.155C365.145 318.858 367.076 318.524 368.996 318.181C369.492 318.089 369.989 318.006 370.485 317.914C372.469 317.545 374.442 317.168 376.393 316.755C376.589 316.715 376.775 316.666 376.971 316.625C378.763 316.249 380.533 315.846 382.292 315.425C382.777 315.315 383.26 315.196 383.743 315.076C385.632 314.623 387.499 314.142 389.356 313.654C389.625 313.586 389.883 313.501 390.153 313.433C391.794 312.987 393.405 312.526 395.015 312.054C395.487 311.917 395.959 311.78 396.43 311.633C398.214 311.095 399.978 310.54 401.719 309.959C402.042 309.857 402.355 309.747 402.667 309.636C404.16 309.14 405.632 308.626 407.092 308.095C407.551 307.93 408.011 307.766 408.469 307.592C410.131 306.981 411.781 306.353 413.401 305.709C413.758 305.565 414.114 305.421 414.47 305.268C415.814 304.72 417.148 304.164 418.471 303.6C418.918 303.408 419.364 303.217 419.802 303.026C421.342 302.352 422.862 301.662 424.35 300.955C424.741 300.77 425.122 300.585 425.512 300.399C426.719 299.819 427.906 299.231 429.081 298.626C429.506 298.408 429.94 298.189 430.356 297.972C431.765 297.236 433.145 296.494 434.504 295.735C434.9 295.51 435.296 295.286 435.691 295.061C436.77 294.447 437.829 293.826 438.869 293.197C439.272 292.953 439.676 292.718 440.069 292.475C441.339 291.687 442.589 290.892 443.81 290.091C444.202 289.829 444.584 289.568 444.976 289.305C445.928 288.667 446.859 288.012 447.771 287.359C448.135 287.1 448.507 286.839 448.869 286.571C450.001 285.741 451.112 284.894 452.195 284.051C452.564 283.762 452.923 283.466 453.284 283.178C454.117 282.505 454.941 281.823 455.735 281.135C456.049 280.863 456.382 280.597 456.686 280.316C457.68 279.444 458.643 278.556 459.587 277.67C459.916 277.358 460.235 277.046 460.563 276.724C461.288 276.015 462.002 275.297 462.687 274.573C462.953 274.296 463.22 274.028 463.476 273.752C463.51 273.71 463.554 273.677 463.588 273.635C464.408 272.753 465.19 271.866 465.941 270.963C466.229 270.626 466.507 270.281 466.784 269.936C467.375 269.222 467.936 268.502 468.487 267.774C468.73 267.461 468.972 267.139 469.205 266.827C469.912 265.862 470.58 264.892 471.218 263.915C471.431 263.596 471.625 263.27 471.829 262.951C472.309 262.183 472.77 261.417 473.211 260.643C473.396 260.327 473.58 260.001 473.756 259.686C474.304 258.672 474.824 257.661 475.295 256.635C475.418 256.364 475.531 256.085 475.654 255.813C476.022 254.981 476.37 254.141 476.689 253.304C476.808 252.995 476.927 252.686 477.045 252.368C477.427 251.314 477.77 250.255 478.065 249.192C478.119 248.986 478.163 248.78 478.217 248.574C478.461 247.659 478.668 246.749 478.844 245.823C478.906 245.52 478.96 245.218 479.013 244.916C479.2 243.827 479.357 242.731 479.465 241.621C479.472 241.506 479.479 241.39 479.484 241.266C479.565 240.254 479.608 239.247 479.612 238.234C479.618 237.938 479.615 237.642 479.612 237.356C479.595 236.231 479.549 235.11 479.436 233.986L471.372 152.981M335.141 174.361C333.365 174.536 331.61 174.727 329.856 174.927C329.28 174.99 328.716 175.07 328.151 175.141C326.974 175.289 325.796 175.436 324.62 175.593C323.952 175.685 323.285 175.786 322.617 175.878C321.555 176.031 320.493 176.185 319.433 176.358C318.738 176.472 318.044 176.585 317.359 176.698C316.337 176.867 315.316 177.045 314.294 177.223C313.601 177.346 312.918 177.468 312.235 177.6C311.205 177.788 310.187 177.995 309.168 178.191C308.513 178.32 307.868 178.447 307.224 178.584C306.114 178.82 305.013 179.054 303.913 179.298C303.371 179.414 302.83 179.531 302.29 179.656C300.678 180.023 299.078 180.407 297.489 180.809C297.22 180.877 296.96 180.953 296.691 181.02C295.362 181.356 294.044 181.7 292.737 182.062C292.162 182.22 291.588 182.387 291.014 182.545C290.022 182.825 289.041 183.104 288.07 183.391C287.432 183.584 286.794 183.778 286.156 183.971C285.261 184.25 284.364 184.52 283.478 184.807C282.823 185.012 282.178 185.226 281.523 185.44C280.657 185.725 279.8 186.01 278.953 186.302C278.309 186.525 277.675 186.747 277.04 186.969C276.175 187.273 275.322 187.586 274.477 187.897C273.871 188.116 273.275 188.343 272.678 188.561C271.752 188.91 270.837 189.277 269.921 189.634C269.417 189.832 268.914 190.03 268.42 190.227C267.057 190.777 265.715 191.343 264.393 191.917C261.438 193.193 258.557 194.528 255.776 195.91" stroke="#EEEEEE" stroke-width="1.8" stroke-miterlimit="10"/>
<path d="M115.974 223.808C116.354 227.653 118 230.93 121.151 231.809L262.736 271.181C286.113 277.449 314.163 279.714 343.926 276.751C346.042 276.539 348.144 276.291 350.226 276.036C350.736 275.981 351.243 275.906 351.761 275.84C353.833 275.577 355.883 275.287 357.921 274.979C358.034 274.966 358.137 274.946 358.249 274.924C360.193 274.626 362.124 274.292 364.044 273.949C364.54 273.857 365.037 273.774 365.533 273.682C367.517 273.314 369.491 272.936 371.441 272.523C371.637 272.483 371.823 272.434 372.019 272.394C373.811 272.017 375.581 271.614 377.34 271.194C377.825 271.084 378.308 270.964 378.792 270.845C380.68 270.391 382.547 269.911 384.404 269.422C384.673 269.355 384.931 269.269 385.201 269.202C386.842 268.756 388.453 268.294 390.063 267.823C390.535 267.686 391.007 267.548 391.478 267.401C393.262 266.864 395.026 266.309 396.767 265.728C397.09 265.626 397.403 265.515 397.715 265.405C399.208 264.908 400.68 264.395 402.14 263.863C402.599 263.699 403.059 263.534 403.517 263.36C405.179 262.75 406.829 262.121 408.449 261.477C408.806 261.333 409.162 261.189 409.518 261.036C410.862 260.489 412.196 259.933 413.519 259.369C413.966 259.177 414.413 258.985 414.85 258.794C416.39 258.121 417.91 257.43 419.399 256.724C419.789 256.538 420.17 256.353 420.56 256.168C421.767 255.587 422.954 255 424.129 254.395C424.554 254.176 424.988 253.957 425.404 253.74C426.813 253.004 428.194 252.262 429.553 251.503C429.948 251.279 430.344 251.054 430.74 250.83C431.818 250.216 432.878 249.594 433.917 248.966C434.32 248.721 434.724 248.486 435.117 248.243C436.387 247.456 437.638 246.661 438.858 245.859C439.25 245.597 439.632 245.336 440.024 245.074C440.976 244.435 441.907 243.78 442.819 243.127C443.183 242.868 443.555 242.608 443.917 242.339C445.049 241.509 446.16 240.663 447.243 239.819C447.612 239.531 447.971 239.234 448.332 238.947C449.165 238.273 449.989 237.592 450.783 236.904C451.097 236.631 451.431 236.366 451.734 236.084C452.728 235.212 453.691 234.324 454.635 233.439C454.964 233.126 455.283 232.814 455.611 232.492C456.336 231.783 457.05 231.066 457.735 230.342C458.001 230.065 458.268 229.797 458.524 229.521C458.558 229.479 458.602 229.446 458.636 229.404C459.456 228.522 460.238 227.635 460.99 226.732C461.278 226.395 461.555 226.05 461.833 225.704C462.423 224.991 462.984 224.271 463.535 223.543C463.778 223.23 464.02 222.907 464.253 222.596C464.96 221.631 465.628 220.66 466.266 219.684C466.48 219.365 466.673 219.038 466.877 218.72C467.357 217.952 467.818 217.185 468.259 216.412C468.444 216.096 468.628 215.77 468.804 215.455C469.352 214.44 469.872 213.429 470.343 212.404C470.466 212.133 470.579 211.853 470.702 211.582C471.07 210.749 471.418 209.909 471.737 209.073C471.856 208.764 471.975 208.455 472.094 208.136C472.475 207.083 472.818 206.024 473.113 204.96C473.167 204.754 473.211 204.549 473.265 204.342C473.51 203.428 473.716 202.517 473.892 201.591C473.955 201.288 474.008 200.987 474.061 200.685C474.248 199.595 474.405 198.499 474.513 197.389C474.52 197.274 474.527 197.159 474.532 197.034C474.613 196.023 474.656 195.015 474.66 194.003C474.666 193.706 474.663 193.411 474.66 193.125C474.643 192 474.597 190.878 474.484 189.754" stroke="#EEEEEE" stroke-width="1.8" stroke-miterlimit="10"/>
<path d="M346.489 233.62C346.999 233.564 347.506 233.49 348.024 233.424C350.096 233.16 352.146 232.87 354.184 232.562C354.298 232.55 354.4 232.529 354.512 232.508C356.457 232.21 358.387 231.876 360.307 231.533C360.803 231.441 361.3 231.358 361.796 231.266C363.78 230.897 365.754 230.52 367.704 230.107C367.9 230.067 368.086 230.018 368.282 229.977C370.074 229.601 371.844 229.198 373.603 228.778C374.088 228.667 374.571 228.548 375.055 228.429C376.943 227.975 378.81 227.495 380.667 227.006C380.936 226.939 381.194 226.853 381.464 226.786C383.105 226.34 384.716 225.878 386.326 225.406C386.798 225.269 387.27 225.132 387.741 224.985C389.525 224.447 391.289 223.892 393.03 223.311C393.353 223.209 393.666 223.099 393.978 222.989C395.471 222.492 396.943 221.978 398.403 221.447C398.862 221.282 399.322 221.118 399.78 220.944C401.442 220.333 403.092 219.705 404.712 219.061C405.069 218.917 405.426 218.773 405.781 218.62C407.125 218.072 408.459 217.517 409.782 216.952C410.229 216.761 410.676 216.569 411.113 216.378C412.653 215.704 414.173 215.014 415.662 214.307C416.052 214.122 416.433 213.937 416.823 213.751C418.03 213.171 419.217 212.584 420.392 211.978C420.817 211.76 421.252 211.541 421.667 211.324C423.077 210.588 424.457 209.846 425.816 209.087C426.211 208.862 426.607 208.638 427.003 208.413C428.082 207.799 429.141 207.178 430.18 206.549C430.583 206.305 430.987 206.07 431.38 205.827C432.651 205.039 433.901 204.244 435.121 203.443C435.513 203.181 435.895 202.92 436.287 202.657C437.239 202.019 438.17 201.364 439.082 200.711C439.446 200.452 439.818 200.191 440.181 199.923C441.312 199.093 442.423 198.247 443.506 197.403C443.875 197.115 444.234 196.818 444.595 196.53C445.428 195.857 446.252 195.176 447.046 194.488C447.36 194.215 447.694 193.949 447.997 193.668C448.991 192.796 449.954 191.908 450.898 191.022C451.227 190.71 451.546 190.398 451.874 190.076C452.599 189.367 453.313 188.649 453.998 187.926C454.264 187.648 454.531 187.381 454.787 187.104C454.821 187.063 454.865 187.029 454.899 186.987C455.719 186.106 456.501 185.218 457.253 184.315C457.541 183.979 457.818 183.633 458.096 183.288C458.686 182.574 459.248 181.855 459.798 181.126C460.041 180.813 460.283 180.491 460.516 180.179C461.223 179.214 461.891 178.244 462.529 177.268C462.743 176.948 462.936 176.622 463.14 176.304C463.62 175.535 464.081 174.769 464.522 173.995C464.707 173.679 464.891 173.354 465.067 173.039C465.615 172.024 466.135 171.013 466.606 169.988C466.729 169.716 466.842 169.437 466.965 169.165C467.333 168.333 467.681 167.493 468 166.656C468.119 166.347 468.238 166.038 468.357 165.72C468.738 164.666 469.081 163.607 469.376 162.544C469.43 162.338 469.475 162.132 469.529 161.926C469.773 161.011 469.979 160.101 470.155 159.175C470.218 158.872 470.271 158.57 470.324 158.269C470.511 157.179 470.668 156.083 470.777 154.973C470.783 154.858 470.79 154.742 470.795 154.618C470.876 153.606 470.919 152.599 470.924 151.587C470.929 151.29 470.926 150.994 470.923 150.708C470.906 149.583 470.86 148.462 470.747 147.338C466.723 106.949 402.508 80.4078 326.453 87.723C324.677 87.8972 322.922 88.0883 321.168 88.2888C320.592 88.3514 320.028 88.432 319.463 88.503C318.286 88.6503 317.108 88.7975 315.932 88.9543C315.264 89.0461 314.597 89.1473 313.929 89.2391C312.867 89.3929 311.805 89.5468 310.745 89.7195C310.05 89.8332 309.356 89.947 308.672 90.0597C307.649 90.2283 306.628 90.4063 305.607 90.5844C304.913 90.7075 304.23 90.8297 303.547 90.9613C302.517 91.1498 301.499 91.3561 300.48 91.553C299.825 91.6815 299.181 91.809 298.537 91.946C297.426 92.1814 296.325 92.4159 295.225 92.6598C294.684 92.776 294.143 92.8922 293.602 93.0178C291.991 93.3842 290.39 93.7685 288.801 94.1706C288.532 94.2381 288.273 94.3141 288.003 94.3816C286.674 94.7172 285.356 95.0613 284.049 95.4231C283.474 95.5812 282.901 95.7487 282.326 95.9067C281.335 96.1865 280.353 96.4652 279.382 96.7523C278.744 96.9459 278.106 97.1395 277.468 97.333C276.573 97.6119 275.676 97.8814 274.791 98.1688C274.135 98.3738 273.49 98.5873 272.835 98.8017C271.969 99.087 271.112 99.3712 270.265 99.6639C269.621 99.8868 268.987 100.109 268.352 100.331C267.488 100.635 266.634 100.947 265.789 101.259C265.183 101.478 264.587 101.705 263.99 101.922C263.064 102.272 262.149 102.638 261.233 102.996C260.729 103.194 260.226 103.392 259.732 103.589C258.369 104.138 257.027 104.705 255.705 105.278C252.75 106.555 249.869 107.89 247.088 109.272L117.546 174.646C112.768 177.057 111.272 180.16 111.562 183.088C111.853 186.017 113.938 188.769 119.096 190.193L258.978 228.748C282.355 235.016 310.405 237.281 340.168 234.317C342.284 234.106 344.386 233.858 346.468 233.603L346.489 233.62Z" fill="#202124" stroke="#EEEEEE" stroke-width="1.8" stroke-miterlimit="10"/>
<path d="M334.094 185.104C355.356 182.988 371.578 171.078 370.326 158.501C369.075 145.924 350.824 137.444 329.562 139.56C308.3 141.676 292.078 153.586 293.33 166.163C294.581 178.74 312.832 187.22 334.094 185.104Z" fill="url(#paint2_linear_7920_444)" stroke="#EEEEEE" stroke-width="1.8" stroke-miterlimit="10"/>
<mask id="mask0_7920_444" style="mask-type:luminance" maskUnits="userSpaceOnUse" x="293" y="139" width="78" height="47">
<path d="M334.089 185.102C355.351 182.986 371.573 171.076 370.322 158.499C369.07 145.922 350.819 137.442 329.557 139.558C308.295 141.674 292.073 153.584 293.325 166.161C294.576 178.738 312.827 187.218 334.089 185.102Z" fill="white"/>
</mask>
<g mask="url(#mask0_7920_444)">
<path d="M296.514 196.474C295.259 183.893 311.484 171.987 332.745 169.863C354.007 167.749 372.25 176.228 373.505 188.809" stroke="#EEEEEE" stroke-width="1.8" stroke-miterlimit="10"/>
</g>
<path d="M334.088 185.108C355.35 182.992 371.572 171.082 370.321 158.505C369.069 145.928 350.818 137.448 329.556 139.564C308.294 141.679 292.072 153.59 293.324 166.167C294.575 178.744 312.826 187.224 334.088 185.108Z" stroke="#EEEEEE" stroke-width="1.8" stroke-miterlimit="10"/>
<path d="M141.438 196.442L150.172 283.427" stroke="#EEEEEE" stroke-width="1.8" stroke-miterlimit="10"/>
<path d="M187.596 209.754L196.218 295.797" stroke="#EEEEEE" stroke-width="1.8" stroke-miterlimit="10"/>
<path d="M239.736 222.106L248.533 309.666" stroke="#EEEEEE" stroke-width="1.8" stroke-miterlimit="10"/>
<path d="M296.71 235.783L305.153 320.098" stroke="#EEEEEE" stroke-width="1.8" stroke-miterlimit="10"/>
<path d="M329.664 139.727L334.205 185.387" stroke="#EEEEEE" stroke-width="1.8" stroke-miterlimit="10"/>
<path d="M353.105 140.641L356.843 178.483" stroke="#EEEEEE" stroke-width="1.8" stroke-miterlimit="10"/>
<path d="M306.851 145.336L310.632 182.791" stroke="#EEEEEE" stroke-width="1.8" stroke-miterlimit="10"/>
<path d="M359.28 232.844L367.713 317.15" stroke="#EEEEEE" stroke-width="1.8" stroke-miterlimit="10"/>
<path d="M417.831 213.67L426.478 300.12" stroke="#EEEEEE" stroke-width="1.8" stroke-miterlimit="10"/>
<path d="M457.978 183.299L466.624 269.74" stroke="#EEEEEE" stroke-width="1.8" stroke-miterlimit="10"/>
<path d="M398.636 253.939C434.979 232.635 462.113 177.802 456.611 138.396C455.227 128.463 451.122 112.239 445.009 100.883L493.386 74.4657L601.06 271.915L552.684 298.331C546.448 287.043 535.032 274.809 527.43 268.264C497.286 242.301 436.493 235.404 398.906 254.429" fill="url(#paint3_linear_7920_444)"/>
<path d="M398.636 253.939C434.979 232.635 462.113 177.802 456.611 138.396C455.227 128.463 451.122 112.239 445.009 100.883L493.386 74.4657L601.06 271.915L552.684 298.331C546.448 287.043 535.032 274.809 527.43 268.264C497.286 242.301 436.493 235.404 398.906 254.429" stroke="#EEEEEE" stroke-width="1.8" stroke-miterlimit="10"/>
<path d="M424.975 240.028C462.35 219.597 519.135 229.249 549.876 255.721C557.478 262.265 568.894 274.5 575.129 285.788L600.498 272.035L492.994 74.9142L467.45 88.3455C473.563 99.7014 477.668 115.925 479.052 125.858C484.66 166.037 462.391 219.674 424.975 240.028Z" stroke="#EEEEEE" stroke-width="1.8" stroke-miterlimit="10"/>
<path d="M624.679 131.696L626.73 130.547C589.286 150.737 544.586 135.246 516.346 106.337C507.293 97.0656 499.804 86.39 493.609 75.0321C513.458 111.783 518.819 161.969 491.539 196.771C484.933 205.197 476.478 211.909 467.103 217.027C504.669 196.765 549.572 212.071 577.973 241.125C587.025 250.385 594.212 260.52 600.4 271.873C580.885 235.747 575.604 187.441 601.228 152.543C607.488 144.019 615.558 137.008 624.685 131.701L624.679 131.696Z" fill="#202124" stroke="#EEEEEE" stroke-width="1.8" stroke-miterlimit="10"/>
<path d="M504.97 105.771L455.921 132.523" stroke="#EEEEEE" stroke-width="1.8" stroke-miterlimit="10"/>
<path d="M509.356 138.169L455.56 167.506" stroke="#EEEEEE" stroke-width="1.8" stroke-miterlimit="10"/>
<path d="M504.262 172.051L442.01 206" stroke="#EEEEEE" stroke-width="1.8" stroke-miterlimit="10"/>
<path d="M581.094 245.347L532.04 272.099" stroke="#EEEEEE" stroke-width="1.8" stroke-miterlimit="10"/>
<path d="M556.227 224.115L502.431 253.451" stroke="#EEEEEE" stroke-width="1.8" stroke-miterlimit="10"/>
<path d="M524.987 210.055L462.736 244.004" stroke="#EEEEEE" stroke-width="1.8" stroke-miterlimit="10"/>
<path d="M470.606 215.11L400.108 253.555" stroke="#EEEEEE" stroke-width="1.8" stroke-miterlimit="10"/>
<path d="M297.863 62.481C296.405 54.0712 293.6 46.5036 289.449 39.7892C282.287 28.1907 270.638 22.6329 258.749 17.1817C247.446 12.0056 235.407 6.16139 223.082 4C215.629 4.36491 167 141.913 167 141.913C167 141.913 180.817 147.6 190.761 151.137C197.84 153.658 203.622 156.201 210.332 159.092C217.5 162.18 223.948 164.324 231.401 163.96C238.854 163.595 246.15 161.551 253.274 157.835C260.403 154.113 267.129 148.835 273.47 142.003C279.812 135.165 285.158 127.092 289.516 117.773C293.874 108.454 296.718 99.0113 298.047 89.445C299.377 79.8788 299.316 70.8851 297.857 62.481H297.863Z" fill="url(#paint4_linear_7920_444)" stroke="#EEEEEE" stroke-width="1.8" stroke-miterlimit="10"/>
<path d="M275.85 52.3924C274.382 43.9807 271.558 36.4113 267.378 29.6955C263.204 22.9797 257.792 17.8136 251.154 14.203C244.511 10.5924 223.179 2.65243 215.669 3.0118C208.165 3.37679 153.046 120.5 157.226 127.216C161.406 133.931 166.761 140.597 173.405 144.207C179.84 147.369 182.259 147.756 189.015 150.648C196.233 153.736 201.431 154.264 208.935 153.899C216.44 153.534 223.786 151.49 230.959 147.773C238.137 144.05 244.91 138.772 251.295 131.938C257.68 125.099 263.063 117.024 267.451 107.703C271.839 98.3813 274.703 88.9364 276.041 79.3681C277.38 69.7997 277.318 60.804 275.845 52.3924H275.85Z" stroke="#EEEEEE" stroke-width="1.8" stroke-miterlimit="10"/>
<path d="M251.851 44.2039C250.385 35.7725 247.564 28.1853 243.395 21.4537C239.22 14.722 233.82 9.54386 227.184 5.92476C220.554 2.30566 213.485 0.684666 205.989 1.05052C198.494 1.41637 191.161 3.4595 183.991 7.18554C176.821 10.9172 170.05 16.208 163.673 23.0578C157.301 29.9076 151.923 38.007 147.54 47.3446C143.158 56.6879 140.298 66.1549 138.96 75.7458C137.617 85.3367 137.685 94.3535 139.151 102.791C140.618 111.222 143.439 118.809 147.614 125.541C151.788 132.272 157.188 137.451 163.824 141.07C170.455 144.689 177.518 146.315 185.014 145.95C192.509 145.584 199.848 143.541 207.012 139.809C214.182 136.077 220.947 130.787 227.325 123.937C233.702 117.081 239.08 108.988 243.462 99.6443C247.845 90.301 250.705 80.834 252.043 71.2431C253.38 61.6522 253.318 52.6354 251.846 44.2039H251.851Z" fill="#202124" stroke="#EEEEEE" stroke-width="1.8" stroke-miterlimit="10"/>
<path d="M230.817 57.9024C228.815 66.9074 225.867 76.1587 221.968 85.6788C218.07 95.1934 213.738 103.694 208.889 111.4C204.04 119.111 199.118 125.512 194.117 130.597C189.121 135.682 184.244 139.272 179.496 141.36C174.748 143.444 170.484 143.505 166.755 141.752C163.059 140.022 160.336 136.684 158.536 131.527C156.736 126.369 155.897 120.097 156.01 112.722C156.122 105.346 157.186 97.1366 159.2 88.0925C161.214 79.0539 164.156 69.8194 168.026 60.3777C171.896 50.9359 176.29 42.2726 181.128 34.5949C185.966 26.9228 190.882 20.5443 195.878 15.4538C200.879 10.3633 205.756 6.77929 210.521 4.70166C215.285 2.62403 219.516 2.44483 223.217 4.18645C226.947 5.93368 229.698 9.38893 231.481 14.5298C233.264 19.6819 234.103 25.9428 233.99 33.3237C233.878 40.699 232.82 48.8975 230.823 57.8912H230.812L230.817 57.9024Z" stroke="#EEEEEE" stroke-width="1.8" stroke-miterlimit="10"/>
<path d="M159 29L252 69" stroke="#EEEEEE" stroke-width="1.8" stroke-miterlimit="10"/>
<path d="M139 74L233 116" stroke="#EEEEEE" stroke-width="1.8" stroke-miterlimit="10"/>
<path d="M223 4L167 142" stroke="#EEEEEE" stroke-width="1.8" stroke-miterlimit="10"/>
<path d="M252 70L298 89" stroke="#EEEEEE" stroke-width="1.8" stroke-miterlimit="10"/>
<path d="M246 25L292 45" stroke="#EEEEEE" stroke-width="1.8" stroke-miterlimit="10"/>
<path d="M202 142L248 161" stroke="#EEEEEE" stroke-width="1.8" stroke-miterlimit="10"/>
<path d="M233 116L279 136" stroke="#EEEEEE" stroke-width="1.8" stroke-miterlimit="10"/>
<defs>
<linearGradient id="paint0_linear_7920_444" x1="41.2754" y1="367.807" x2="511.777" y2="367.807" gradientUnits="userSpaceOnUse">
<stop stop-color="#5382EB"/>
<stop offset="0.25" stop-color="#5382EB"/>
<stop offset="0.52" stop-color="#9F6CD4"/>
<stop offset="0.82" stop-color="#EA4335"/>
<stop offset="1" stop-color="#EA4335"/>
</linearGradient>
<linearGradient id="paint1_linear_7920_444" x1="169.362" y1="182.29" x2="397.053" y2="316.637" gradientUnits="userSpaceOnUse">
<stop stop-color="#FFCB32"/>
<stop offset="0.18" stop-color="#FFCB32"/>
<stop offset="0.53" stop-color="#F46831"/>
<stop offset="0.79" stop-color="#EA4335"/>
<stop offset="1" stop-color="#EA4335"/>
</linearGradient>
<linearGradient id="paint2_linear_7920_444" x1="293.211" y1="166.175" x2="370.208" y2="158.513" gradientUnits="userSpaceOnUse">
<stop stop-color="#FFCB32"/>
<stop offset="0.18" stop-color="#FFCB32"/>
<stop offset="0.53" stop-color="#F46831"/>
<stop offset="0.79" stop-color="#EA4335"/>
<stop offset="1" stop-color="#EA4335"/>
</linearGradient>
<linearGradient id="paint3_linear_7920_444" x1="471.212" y1="124.713" x2="565.429" y2="259.06" gradientUnits="userSpaceOnUse">
<stop stop-color="#FFCB32"/>
<stop offset="0.24" stop-color="#FFCB32"/>
<stop offset="0.76" stop-color="#34A853"/>
<stop offset="1" stop-color="#34A853"/>
</linearGradient>
<linearGradient id="paint4_linear_7920_444" x1="203.198" y1="145.607" x2="273.384" y2="34.7224" gradientUnits="userSpaceOnUse">
<stop stop-color="#4285F4"/>
<stop offset="0.27" stop-color="#4285F4"/>
<stop offset="0.75" stop-color="#34A853"/>
<stop offset="1" stop-color="#34A853"/>
</linearGradient>
</defs>
</svg>
