<svg xmlns="http://www.w3.org/2000/svg" width="197" height="97" fill="none"><path fill="url(#a)" stroke="#EEE" stroke-miterlimit="10" stroke-width="2" d="m29.658 20.112-1 .013.209 15.738c.029 2.11-.52 3.596-1.506 4.608-1.023 1.049-2.326 1.6-3.994 1.622l-1 .013.013 1 .114 8.582.013 1 1-.013c1.669-.022 2.987.493 4.034 1.514 1.014.988 1.601 2.46 1.628 4.565l.21 15.738c.069 5.229 1.655 9.483 4.841 12.655 3.195 3.18 7.505 4.685 12.797 4.617l2.766-.037 1-.014-.014-1-.113-8.486-.013-1-1 .013-1.909.025c-1.966.028-3.513-.616-4.724-1.902-1.21-1.285-1.875-3.052-1.906-5.403l-.202-15.357c-.043-3.21-.618-5.861-1.813-7.867-.923-1.55-2.243-2.712-3.915-3.502 1.646-.827 2.933-2.005 3.817-3.552 1.15-2.012 1.65-4.701 1.608-7.969l-.202-15.357c-.032-2.353.586-4.135 1.763-5.454 1.173-1.317 2.703-1.999 4.671-2.026h.008l1.173-.025h.008l.597-.008.988-.012V2.344l-1.014.013-2.764.037c-5.291.072-9.556 1.69-12.667 4.952v.001c-3.097 3.255-4.571 7.55-4.502 12.778l1-.013Z"/><path fill="url(#b)" stroke="#EEE" stroke-miterlimit="10" stroke-width="2" d="m149.885 83.46-.904.024-.977.008-1.005.007.013 1.006.115 8.487.013 1 1-.014 2.765-.038c5.291-.072 9.555-1.69 12.666-4.953v-.001c3.096-3.256 4.57-7.55 4.5-12.78l-1 .014 1-.013-.212-15.738c-.029-2.11.519-3.596 1.506-4.608 1.022-1.05 2.326-1.6 3.994-1.622l1-.014-.014-1-.115-8.582-.013-1-1 .014c-1.669.022-2.987-.493-4.035-1.514-1.013-.988-1.601-2.459-1.629-4.564l-.211-15.739c-.07-5.228-1.658-9.482-4.844-12.654-3.195-3.179-7.505-4.684-12.798-4.615l-2.765.038-1 .013.013 1 .115 8.486.013 1 1-.013 1.909-.025c1.967-.028 3.513.615 4.724 1.902 1.21 1.284 1.876 3.052 1.907 5.402l.205 15.357c.044 3.21.619 5.861 1.814 7.867.923 1.55 2.244 2.712 3.915 3.502-1.645.827-2.932 2.005-3.816 3.552-1.149 2.012-1.65 4.701-1.607 7.969l.205 15.357c.033 2.353-.586 4.135-1.762 5.454h-.001c-1.172 1.317-2.702 2-4.671 2.027h-.013Z"/><rect width="41" height="20" x="62" y="56" fill="#202124" stroke="#EEE" stroke-width="2" rx="10"/><path fill="#EEE" d="M121.5 54.79c-5.799 0-10.5 4.7-10.5 10.5 0 5.798 4.701 10.5 10.5 10.5s10.5-4.702 10.5-10.5c0-5.8-4.701-10.5-10.5-10.5Z"/><rect width="54" height="20" x="86" y="24" fill="#202124" stroke="#EEE" stroke-width="2" rx="10"/><path fill="#EEE" d="M69.499 44.79c5.799 0 10.5-4.702 10.5-10.5 0-5.8-4.701-10.5-10.5-10.5s-10.5 4.7-10.5 10.5c0 5.798 4.701 10.5 10.5 10.5Z"/><defs><linearGradient id="a" x1="63.449" x2="23.396" y1="82.974" y2="13.575" gradientUnits="userSpaceOnUse"><stop stop-color="#5382EB"/><stop offset=".25" stop-color="#5382EB"/><stop offset=".52" stop-color="#9F6CD4"/><stop offset=".82" stop-color="#EA4335"/><stop offset="1" stop-color="#EA4335"/></linearGradient><linearGradient id="b" x1="133.27" x2="173.334" y1="13.364" y2="82.757" gradientUnits="userSpaceOnUse"><stop stop-color="#5382EB"/><stop offset=".25" stop-color="#5382EB"/><stop offset=".52" stop-color="#9F6CD4"/><stop offset=".82" stop-color="#EA4335"/><stop offset="1" stop-color="#EA4335"/></linearGradient></defs></svg>