<svg viewBox="0 0 16 17" fill="#9aa0a6" xmlns="http://www.w3.org/2000/svg" width="16" role="presentation" alt="SocialFacebookNoOutlineIcon" data-testid="SocialFacebookNoOutlineIcon" color="#9aa0a6"><path d="M10.097 0.857422C7.67769 0.857422 5.71484 2.82027 5.71484 5.2396V7.01318H4C3.58579 7.01318 3.25 7.34897 3.25 7.76318C3.25 8.1774 3.58579 8.51318 4 8.51318H5.71484V16.1074C5.71484 16.5216 6.05063 16.8574 6.46484 16.8574C6.87906 16.8574 7.21484 16.5216 7.21484 16.1074V8.51318H11.3872C11.8014 8.51318 12.1372 8.1774 12.1372 7.76318C12.1372 7.34897 11.8014 7.01318 11.3872 7.01318H7.21484V5.2396C7.21484 3.6487 8.50612 2.35742 10.097 2.35742H11.3891C11.8033 2.35742 12.1391 2.02164 12.1391 1.60742C12.1391 1.19321 11.8033 0.857422 11.3891 0.857422H10.097Z" fill="currentColor"></path></svg>