<svg viewBox="0 0 16 17" fill="#9aa0a6" xmlns="http://www.w3.org/2000/svg" width="16" role="presentation" alt="SocialLinkedinNoOutlineIcon" data-testid="SocialLinkedinNoOutlineIcon" color="#9aa0a6"><path fill-rule="evenodd" clip-rule="evenodd" d="M0.330095 1.75758C0.326645 1.11991 0.844655 0.607422 1.47546 0.607422C2.10572 0.607422 2.62418 1.11529 2.62418 1.75446C2.62418 2.38752 2.11019 2.90151 1.47713 2.90151C0.845118 2.90151 0.331776 2.3892 0.330095 1.75758Z" fill="currentColor"></path><path d="M11.241 7.59476C9.59247 7.59476 8.2572 8.93003 8.2572 10.5785V15.8359C8.2572 16.262 7.91178 16.6074 7.48568 16.6074C7.05958 16.6074 6.71417 16.262 6.71417 15.8359V10.5785C6.71417 8.07784 8.74028 6.05173 11.241 6.05173C13.7416 6.05173 15.7677 8.07784 15.7677 10.5785V15.8359C15.7677 16.262 15.4223 16.6074 14.9962 16.6074C14.5701 16.6074 14.2247 16.262 14.2247 15.8359V10.5785C14.2247 8.93003 12.8894 7.59476 11.241 7.59476Z" fill="currentColor"></path><path d="M2.25083 6.82324C2.25083 6.39715 1.90541 6.05173 1.47931 6.05173C1.05322 6.05173 0.707799 6.39715 0.707799 6.82324V15.8359C0.707799 16.262 1.05322 16.6074 1.47931 16.6074C1.90541 16.6074 2.25083 16.262 2.25083 15.8359V6.82324Z" fill="currentColor"></path></svg>